<svg width="88" height="89" fill="none" xmlns="http://www.w3.org/2000/svg"><g filter="url(#a)"><rect x="4" y="2.5" width="80" height="80" rx="4" fill="#fff"/><g clip-path="url(#b)"><path fill-rule="evenodd" clip-rule="evenodd" d="M44.09 72.09c16.342 0 29.59-13.248 29.59-29.59S60.431 12.911 44.09 12.911 14.501 26.158 14.501 42.5s13.248 29.59 29.59 29.59Zm-4.71-48.35c-.401-.61-1.144-.896-1.825-.655-.775.273-1.533.596-2.27.964-.647.324-.972 1.063-.83 1.783l.508 2.568c.13.66-.14 1.331-.651 1.757a15.521 15.521 0 0 0-2.225 2.278c-.416.523-1.073.801-1.72.67l-2.518-.508a1.572 1.572 0 0 0-1.745.853 20.96 20.96 0 0 0-.936 2.318c-.234.696.048 1.453.649 1.86l2.137 1.45c.55.372.824 1.041.758 1.712a15.976 15.976 0 0 0 .006 3.216c.07.67-.202 1.34-.751 1.715l-2.133 1.457c-.599.41-.879 1.167-.643 1.861.268.792.584 1.566.945 2.318.317.66 1.041.991 1.747.846l2.517-.518c.647-.133 1.305.142 1.722.664a15.5 15.5 0 0 0 2.232 2.271c.513.425.785 1.094.657 1.756l-.498 2.568c-.14.721.187 1.46.836 1.78a20.067 20.067 0 0 0 2.272.956c1.127.394 2.704-1.017 3.87-2.061.575-.515.93-1.243.934-2.023v-4.307c0-.046.001-.091.005-.136-3.444-.84-6.005-4.001-6.005-7.773v-4.56c0-.347.276-.628.615-.628h2.133v-4.487c0-.62.493-1.122 1.1-1.122a1.11 1.11 0 0 1 1.099 1.122v4.487h5.771v-4.487c0-.62.493-1.122 1.1-1.122.607 0 1.1.502 1.1 1.122v4.487h2.132c.34 0 .615.28.615.627v4.56c0 3.892-2.725 7.134-6.334 7.847l.002.063v4.276c0 .795.365 1.537.957 2.053 1.187 1.035 2.791 2.434 3.912 2.039a19.942 19.942 0 0 0 2.27-.965c.648-.324.972-1.063.83-1.783l-.508-2.568c-.13-.66.14-1.331.651-1.757a15.521 15.521 0 0 0 2.226-2.278c.416-.523 1.072-.8 1.72-.67l2.517.508a1.572 1.572 0 0 0 1.745-.853 20.928 20.928 0 0 0 .936-2.318c.234-.696-.048-1.453-.649-1.86l-2.137-1.449c-.55-.373-.824-1.042-.758-1.713a15.99 15.99 0 0 0-.006-3.216c-.07-.67.203-1.34.752-1.715l2.132-1.457c.6-.41.88-1.167.643-1.861a20.747 20.747 0 0 0-.945-2.318 1.572 1.572 0 0 0-1.747-.846l-2.516.518c-.648.133-1.305-.142-1.723-.664a15.517 15.517 0 0 0-2.232-2.271c-.513-.424-.785-1.094-.657-1.756l.499-2.568c.14-.721-.188-1.46-.836-1.78a20.067 20.067 0 0 0-2.273-.956c-.681-.238-1.424.05-1.823.662l-1.42 2.181c-.365.561-1.02.841-1.678.773a15.055 15.055 0 0 0-3.152.007c-.657.07-1.313-.207-1.68-.767L39.38 23.74Z" fill="#005AE0"/></g></g><defs><clipPath id="b"><path fill="#fff" transform="translate(14 12.911)" d="M0 0h60v59.178H0z"/></clipPath><filter id="a" x="0" y=".5" width="88" height="88" filterUnits="userSpaceOnUse" color-interpolation-filters="sRGB"><feFlood flood-opacity="0" result="BackgroundImageFix"/><feColorMatrix in="SourceAlpha" values="0 0 0 0 0 0 0 0 0 0 0 0 0 0 0 0 0 0 127 0" result="hardAlpha"/><feOffset dy="2"/><feGaussianBlur stdDeviation="2"/><feComposite in2="hardAlpha" operator="out"/><feColorMatrix values="0 0 0 0 0 0 0 0 0 0 0 0 0 0 0 0 0 0 0.07 0"/><feBlend in2="BackgroundImageFix" result="effect1_dropShadow_14_197"/><feBlend in="SourceGraphic" in2="effect1_dropShadow_14_197" result="shape"/></filter></defs></svg>