<svg width="23" height="16" fill="none" xmlns="http://www.w3.org/2000/svg"><path d="M19.464 6.036c-.142-2.072-1.857-3.75-3.964-3.75-.286 0-.571.035-.821.107C13.536.964 11.786 0 9.786 0a6.32 6.32 0 0 0-6.179 5 5.717 5.717 0 0 0-3.535 5.286A5.686 5.686 0 0 0 5.786 16h12a5.144 5.144 0 0 0 5.143-5.143c0-2.178-1.429-4.107-3.465-4.821zm-1.678 8.25h-12c-2.214 0-4-1.786-4-4 0-2 1.464-3.679 3.428-3.929v-.071c0-2.5 2.036-4.572 4.572-4.572 1.893 0 3.536 1.179 4.214 2.857A2.236 2.236 0 0 1 15.5 4a2.302 2.302 0 0 1 2.286 2.286c0 .428-.143.821-.322 1.178.108 0 .215-.035.322-.035a3.43 3.43 0 0 1 0 6.857zM10.643 4.25a.411.411 0 0 0-.607 0L6.322 7.964a.411.411 0 0 0 0 .607l.607.608a.411.411 0 0 0 .607 0l1.964-2v4.964c0 .25.179.428.429.428h.857a.434.434 0 0 0 .428-.428V7.179l1.929 2a.411.411 0 0 0 .607 0l.607-.608a.411.411 0 0 0 0-.607L10.643 4.25z" fill="#50575E"/></svg>