<svg version="1.1" id="Layer_1" xmlns="http://www.w3.org/2000/svg" xmlns:xlink="http://www.w3.org/1999/xlink" x="0px" y="0px"
	 width="100%" viewBox="0 0 150 150" enable-background="new 0 0 150 150" xml:space="preserve">
<path fill="#809EB0" opacity="1.000000" stroke="none" 
	d="
M93.000000,151.000000 
	C62.000000,151.000000 31.500000,151.000000 1.000000,151.000000 
	C1.000000,101.000000 1.000000,51.000000 1.000000,1.000000 
	C51.000000,1.000000 101.000000,1.000000 151.000000,1.000000 
	C151.000000,51.000000 151.000000,101.000000 151.000000,151.000000 
	C131.833328,151.000000 112.666664,151.000000 93.000000,151.000000 
M64.669189,99.000282 
	C65.113235,98.996262 65.557281,98.992241 66.679001,99.378693 
	C67.648643,99.587563 68.612091,99.939827 69.588943,99.982079 
	C76.015991,100.260010 82.524162,99.932938 88.853333,100.852783 
	C95.410591,101.805779 101.892204,103.638748 108.233528,105.637009 
	C118.749641,108.950836 121.883530,104.428490 124.144371,97.173195 
	C128.203613,84.146629 131.526962,70.870834 134.583038,57.567150 
	C135.252045,54.654881 133.510361,51.188835 132.390778,47.495815 
	C131.183289,46.667824 130.084961,45.443199 128.750656,45.075996 
	C119.866333,42.631004 110.931557,40.369297 101.460846,37.843750 
	C101.074867,37.777233 100.688881,37.710716 100.095421,36.935757 
	C98.741631,34.486179 97.387848,32.036606 95.376617,29.034367 
	C93.628471,28.689125 91.883759,28.067322 90.131599,28.045584 
	C81.670753,27.940607 73.206490,27.909470 64.746582,28.046324 
	C61.975586,28.091148 59.214054,28.721142 56.280952,29.696205 
	C54.755814,32.350368 53.230671,35.004528 51.116650,37.716908 
	C50.739300,37.829746 50.361946,37.942581 49.190159,38.111107 
	C41.716385,40.100079 34.130718,41.759109 26.822926,44.237507 
	C23.824482,45.254410 21.425560,48.039066 18.161875,50.436672 
	C18.005806,53.457474 17.372789,56.549221 17.809032,59.481915 
	C18.414858,63.554619 19.795725,67.515465 20.893105,71.510925 
	C23.350584,80.458374 25.528297,89.498795 28.407015,98.309540 
	C30.893141,105.918686 34.929783,107.774376 42.571659,105.853584 
	C48.679184,104.318443 54.777405,102.739128 60.838638,101.033318 
	C61.992111,100.708694 62.953320,99.700912 64.669189,99.000282 
M91.337967,116.070831 
	C88.845795,105.830528 80.682205,100.567734 71.445007,103.246498 
	C63.171566,105.645760 58.471889,114.859276 61.314209,123.107491 
	C63.625595,129.814972 70.905823,134.475266 77.648506,133.563568 
	C86.021858,132.431381 91.099342,126.287674 91.337967,116.070831 
z"/>
<path fill="#FEFEFE" opacity="1.000000" stroke="none" 
	d="
M51.705528,37.658691 
	C53.230671,35.004528 54.755814,32.350368 56.874073,29.501183 
	C70.322815,29.399782 83.178444,29.493404 96.034065,29.587027 
	C97.387848,32.036606 98.741631,34.486179 100.143990,37.781570 
	C100.128937,41.419647 99.914162,44.218315 100.032265,47.002869 
	C100.301613,53.353371 100.734077,59.696949 101.032799,66.283112 
	C100.965324,66.522881 100.839188,67.004807 100.655182,67.316315 
	C100.362732,68.821121 100.254280,70.014412 100.263878,71.375549 
	C100.574722,71.741867 100.792213,71.908020 101.023796,72.007851 
	C101.013184,71.973846 100.945076,71.994743 100.920670,72.322128 
	C100.654175,73.701454 100.412086,74.753403 100.126854,76.208061 
	C100.064293,77.420105 100.044868,78.229431 99.998161,79.426010 
	C100.027649,80.844398 100.084427,81.875549 100.113525,83.337128 
	C99.788506,91.634254 99.579239,91.827370 91.397781,93.191818 
	C90.508530,93.340118 89.711082,94.038925 88.497574,94.599594 
	C83.774063,94.282867 79.423080,93.503952 75.074287,93.515953 
	C71.048149,93.527054 67.024338,94.384361 62.838455,94.545013 
	C61.630009,93.845215 60.608677,93.264526 59.530914,93.127411 
	C53.283699,92.332634 52.103798,90.990501 51.965462,84.566978 
	C51.916180,82.278687 51.603195,79.996078 51.519188,77.312149 
	C51.592686,74.760078 51.557579,72.606735 51.568886,70.108688 
	C51.465935,67.151382 51.316570,64.538795 51.212475,61.519264 
	C51.407005,53.294445 51.556267,45.476570 51.705528,37.658691 
M91.584625,84.396164 
	C91.705620,81.582100 91.709602,78.757057 91.972588,75.956322 
	C92.479950,70.553261 91.554924,65.914787 86.909393,62.266354 
	C84.590546,60.445217 83.045753,59.991371 81.135605,62.346165 
	C78.534752,65.552467 75.927162,68.753304 73.322464,71.956482 
	C71.049240,70.191635 70.086075,69.753685 69.524727,69.011719 
	C66.761917,65.360008 64.302719,66.369186 62.054695,69.452568 
	C58.449146,74.397942 59.930141,79.798035 61.797676,85.209412 
	C71.579140,85.175903 81.360596,85.142395 91.584625,84.396164 
M75.521019,55.763042 
	C76.020126,50.186474 73.968353,46.782959 69.624977,45.982559 
	C65.148048,45.157547 61.102425,47.729897 60.228397,51.957233 
	C59.408504,55.922741 61.920654,60.108826 65.946838,61.136028 
	C70.306213,62.248238 73.271439,60.286179 75.521019,55.763042 
z"/>
<path fill="#E5EBEE" opacity="1.000000" stroke="none" 
	d="
M100.145828,71.207710 
	C100.254280,70.014412 100.362732,68.821121 101.002106,67.440941 
	C105.438271,68.554855 109.316284,69.950958 113.270279,71.081223 
	C114.127670,71.326302 115.257843,70.617104 116.262375,70.347435 
	C115.528130,69.439232 114.951393,67.981499 114.032341,67.718079 
	C110.079338,66.585098 106.025803,65.802879 102.009476,64.430954 
	C102.011101,55.328682 102.012138,46.688351 102.013184,38.048019 
	C110.931557,40.369297 119.866333,42.631004 128.750656,45.075996 
	C130.084961,45.443199 131.183289,46.667824 132.660126,48.159988 
	C131.925323,53.283657 130.972519,57.755474 129.906387,62.200115 
	C127.620743,71.728859 125.001434,81.187592 123.049477,90.782959 
	C121.660362,97.611511 120.049187,103.467781 110.958710,101.630875 
	C108.852539,100.879997 106.932526,100.455879 104.800781,99.997482 
	C104.589058,99.963211 104.160187,99.954155 103.944977,99.656540 
	C101.456078,98.616493 99.182381,97.874069 97.150597,96.873581 
	C102.120522,93.471176 102.117043,88.642479 102.378555,83.795151 
	C105.951736,84.337448 109.114517,84.846611 112.277306,85.355782 
	C112.492188,84.537239 112.707077,83.718704 112.921959,82.900169 
	C108.623123,81.613037 104.324287,80.325897 100.025452,79.038765 
	C100.044868,78.229431 100.064293,77.420105 100.525284,76.262421 
	C104.353035,76.655594 107.719063,77.525459 111.137444,78.061684 
	C112.184036,78.225861 113.374214,77.474777 114.498634,77.142838 
	C113.675674,76.290298 112.993446,74.963493 112.004593,74.670082 
	C108.373192,73.592583 104.639977,72.858238 100.945076,71.994751 
	C100.945076,71.994743 101.013184,71.973846 100.888687,71.854263 
	C100.585884,71.526398 100.379761,71.350739 100.145828,71.207710 
z"/>
<path fill="#E5EBEE" opacity="1.000000" stroke="none" 
	d="
M51.167206,61.926205 
	C51.316570,64.538795 51.465935,67.151382 51.258049,69.980026 
	C49.474686,69.923119 48.048569,69.650169 45.291180,69.122429 
	C47.281822,72.986038 48.610638,75.565109 49.952770,78.593002 
	C50.003567,81.525681 49.924461,84.017960 50.103001,86.491646 
	C50.465450,91.513512 51.638386,95.966530 57.861691,96.269989 
	C57.376266,96.963905 57.052795,97.424065 56.339638,97.890945 
	C51.294350,99.065720 46.687653,100.514473 41.971687,101.335968 
	C34.905499,102.566872 32.306736,101.771507 30.567238,94.420448 
	C29.201725,88.649834 27.502537,82.958572 25.974354,77.225983 
	C23.557526,68.159851 21.159756,59.088646 18.753922,50.019588 
	C21.425560,48.039066 23.824482,45.254410 26.822926,44.237507 
	C34.130718,41.759109 41.716385,40.100079 49.593246,38.547455 
	C49.581543,45.822895 49.084793,52.659348 48.864422,59.504696 
	C48.839264,60.286346 50.362125,61.117828 51.167206,61.926205 
M45.731411,76.803391 
	C44.698734,73.272736 43.666058,69.742088 42.633377,66.211433 
	C41.961285,66.048508 41.289192,65.885574 40.617100,65.722649 
	C40.514015,71.280182 31.909048,70.335068 33.612797,77.787506 
	C35.402386,85.615402 42.231464,81.798073 47.039021,84.106133 
	C46.666557,81.936356 46.294090,79.766571 45.731411,76.803391 
z"/>
<path fill="#B8D46E" opacity="1.000000" stroke="none" 
	d="
M91.403038,116.456406 
	C91.099342,126.287674 86.021858,132.431381 77.648506,133.563568 
	C70.905823,134.475266 63.625595,129.814972 61.314209,123.107491 
	C58.471889,114.859276 63.171566,105.645760 71.445007,103.246498 
	C80.682205,100.567734 88.845795,105.830528 91.403038,116.456406 
M84.780174,111.661652 
	C82.077766,113.406967 79.188423,114.926979 76.730194,116.966583 
	C74.642365,118.698868 73.087486,120.335983 70.522224,117.681717 
	C69.937187,117.076363 68.354965,117.434738 67.231697,117.349548 
	C67.497681,118.469353 67.431206,119.855957 68.082024,120.666924 
	C73.495338,127.412239 73.992973,127.402016 80.118027,121.279037 
	C81.873070,119.524582 83.850456,117.928482 85.274529,115.937004 
	C85.884933,115.083389 85.342422,113.405334 84.780174,111.661652 
z"/>
<path fill="#7D9BAD" opacity="1.000000" stroke="none" 
	d="
M104.160187,99.954155 
	C104.160187,99.954155 104.589058,99.963211 105.030273,100.279434 
	C107.362610,101.049652 109.253731,101.503639 111.144859,101.957634 
	C120.049187,103.467781 121.660362,97.611511 123.049477,90.782959 
	C125.001434,81.187592 127.620743,71.728859 129.906387,62.200115 
	C130.972519,57.755474 131.925323,53.283657 132.904175,48.400990 
	C133.510361,51.188835 135.252045,54.654881 134.583038,57.567150 
	C131.526962,70.870834 128.203613,84.146629 124.144371,97.173195 
	C121.883530,104.428490 118.749641,108.950836 108.233528,105.637009 
	C101.892204,103.638748 95.410591,101.805779 88.853333,100.852783 
	C82.524162,99.932938 76.015991,100.260010 69.588943,99.982079 
	C68.612091,99.939827 67.648643,99.587563 66.684998,98.990067 
	C67.822853,98.401802 68.966400,97.978577 70.084770,98.037056 
	C81.445602,98.631058 92.802315,99.303612 104.160187,99.954155 
z"/>
<path fill="#7D9BAD" opacity="1.000000" stroke="none" 
	d="
M18.457897,50.228130 
	C21.159756,59.088646 23.557526,68.159851 25.974354,77.225983 
	C27.502537,82.958572 29.201725,88.649834 30.567238,94.420448 
	C32.306736,101.771507 34.905499,102.566872 41.971687,101.335968 
	C46.687653,100.514473 51.294350,99.065720 56.720047,98.046280 
	C59.661179,98.466019 61.832207,98.737175 64.003235,99.008324 
	C62.953320,99.700912 61.992111,100.708694 60.838638,101.033318 
	C54.777405,102.739128 48.679184,104.318443 42.571659,105.853584 
	C34.929783,107.774376 30.893141,105.918686 28.407015,98.309540 
	C25.528297,89.498795 23.350584,80.458374 20.893105,71.510925 
	C19.795725,67.515465 18.414858,63.554619 17.809032,59.481915 
	C17.372789,56.549221 18.005806,53.457474 18.457897,50.228130 
z"/>
<path fill="#7290A2" opacity="1.000000" stroke="none" 
	d="
M64.336212,99.004303 
	C61.832207,98.737175 59.661179,98.466019 57.109737,98.039543 
	C57.052795,97.424065 57.376266,96.963905 58.247078,96.257416 
	C60.196114,95.630394 61.597809,95.249710 62.999504,94.869026 
	C67.024338,94.384361 71.048149,93.527054 75.074287,93.515953 
	C79.423080,93.503952 83.774063,94.282867 88.812973,94.832764 
	C91.970802,95.676369 94.439743,96.404007 96.908691,97.131638 
	C99.182381,97.874069 101.456078,98.616493 103.944977,99.656540 
	C92.802315,99.303612 81.445602,98.631058 70.084770,98.037056 
	C68.966400,97.978577 67.822853,98.401802 66.346161,98.794830 
	C65.557281,98.992241 65.113235,98.996262 64.336212,99.004303 
z"/>
<path fill="#D6DDE1" opacity="1.000000" stroke="none" 
	d="
M101.737015,37.945885 
	C102.012138,46.688351 102.011101,55.328682 101.885376,64.644630 
	C101.575890,65.593567 101.355751,65.834595 101.100273,66.043343 
	C100.734077,59.696949 100.301613,53.353371 100.032265,47.002869 
	C99.914162,44.218315 100.128937,41.419647 100.247726,38.135796 
	C100.688881,37.710716 101.074867,37.777233 101.737015,37.945885 
z"/>
<path fill="#D4DCE1" opacity="1.000000" stroke="none" 
	d="
M51.212475,61.519264 
	C50.362125,61.117828 48.839264,60.286346 48.864422,59.504696 
	C49.084793,52.659348 49.581543,45.822895 49.990463,38.519611 
	C50.361946,37.942581 50.739300,37.829746 51.411087,37.687798 
	C51.556267,45.476570 51.407005,53.294445 51.212475,61.519264 
z"/>
<path fill="#65889D" opacity="1.000000" stroke="none" 
	d="
M95.705338,29.310696 
	C83.178444,29.493404 70.322815,29.399782 56.957695,29.194845 
	C59.214054,28.721142 61.975586,28.091148 64.746582,28.046324 
	C73.206490,27.909470 81.670753,27.940607 90.131599,28.045584 
	C91.883759,28.067322 93.628471,28.689125 95.705338,29.310696 
z"/>
<path fill="#C0CFD8" opacity="1.000000" stroke="none" 
	d="
M60.828079,85.127014 
	C59.930141,79.798035 58.449146,74.397942 62.054695,69.452568 
	C64.302719,66.369186 66.761917,65.360008 69.524727,69.011719 
	C70.086075,69.753685 71.049240,70.191635 73.322464,71.956482 
	C75.927162,68.753304 78.534752,65.552467 81.135605,62.346165 
	C83.045753,59.991371 84.590546,60.445217 86.909393,62.266354 
	C91.554924,65.914787 92.479950,70.553261 91.972588,75.956322 
	C91.709602,78.757057 91.705620,81.582100 90.991959,84.535294 
	C84.288353,84.448929 78.176743,84.042274 72.066727,84.064995 
	C68.319244,84.078926 64.574211,84.750664 60.828079,85.127014 
z"/>
<path fill="#BECDD7" opacity="1.000000" stroke="none" 
	d="
M75.377945,56.118340 
	C73.271439,60.286179 70.306213,62.248238 65.946838,61.136028 
	C61.920654,60.108826 59.408504,55.922741 60.228397,51.957233 
	C61.102425,47.729897 65.148048,45.157547 69.624977,45.982559 
	C73.968353,46.782959 76.020126,50.186474 75.377945,56.118340 
z"/>
<path fill="#D4DCE0" opacity="1.000000" stroke="none" 
	d="
M62.838455,94.545013 
	C61.597809,95.249710 60.196114,95.630394 58.409027,96.023651 
	C51.638386,95.966530 50.465450,91.513512 50.103001,86.491646 
	C49.924461,84.017960 50.003567,81.525681 50.194763,78.502281 
	C50.752483,77.878792 51.081535,77.794830 51.410583,77.710876 
	C51.603195,79.996078 51.916180,82.278687 51.965462,84.566978 
	C52.103798,90.990501 53.283699,92.332634 59.530914,93.127411 
	C60.608677,93.264526 61.630009,93.845215 62.838455,94.545013 
z"/>
<path fill="#D4DCE0" opacity="1.000000" stroke="none" 
	d="
M97.150597,96.873581 
	C94.439743,96.404007 91.970802,95.676369 89.186455,94.715561 
	C89.711082,94.038925 90.508530,93.340118 91.397781,93.191818 
	C99.579239,91.827370 99.788506,91.634254 100.355591,83.416061 
	C101.072945,83.297050 101.520561,83.529541 101.968170,83.762032 
	C102.117043,88.642479 102.120522,93.471176 97.150597,96.873581 
z"/>
<path fill="#B1C3CE" opacity="1.000000" stroke="none" 
	d="
M101.032799,66.283112 
	C101.355751,65.834595 101.575890,65.593567 101.884781,65.106575 
	C106.025803,65.802879 110.079338,66.585098 114.032341,67.718079 
	C114.951393,67.981499 115.528130,69.439232 116.262375,70.347435 
	C115.257843,70.617104 114.127670,71.326302 113.270279,71.081223 
	C109.316284,69.950958 105.438271,68.554855 101.186104,67.129433 
	C100.839188,67.004807 100.965324,66.522881 101.032799,66.283112 
z"/>
<path fill="#B2C4CE" opacity="1.000000" stroke="none" 
	d="
M100.920670,72.322128 
	C104.639977,72.858238 108.373192,73.592583 112.004593,74.670082 
	C112.993446,74.963493 113.675674,76.290298 114.498634,77.142838 
	C113.374214,77.474777 112.184036,78.225861 111.137444,78.061684 
	C107.719063,77.525459 104.353035,76.655594 100.568436,75.859711 
	C100.412086,74.753403 100.654175,73.701454 100.920670,72.322128 
z"/>
<path fill="#AEC0CB" opacity="1.000000" stroke="none" 
	d="
M102.378555,83.795151 
	C101.520561,83.529541 101.072945,83.297050 100.383270,82.985626 
	C100.084427,81.875549 100.027649,80.844398 99.998161,79.426010 
	C104.324287,80.325897 108.623123,81.613037 112.921959,82.900169 
	C112.707077,83.718704 112.492188,84.537239 112.277306,85.355782 
	C109.114517,84.846611 105.951736,84.337448 102.378555,83.795151 
z"/>
<path fill="#ACBFC9" opacity="1.000000" stroke="none" 
	d="
M51.519192,77.312149 
	C51.081535,77.794830 50.752483,77.878792 50.181442,78.053467 
	C48.610638,75.565109 47.281822,72.986038 45.291180,69.122429 
	C48.048569,69.650169 49.474686,69.923119 51.211636,70.324730 
	C51.557579,72.606735 51.592686,74.760078 51.519192,77.312149 
z"/>
<path fill="#B4C5D0" opacity="1.000000" stroke="none" 
	d="
M61.312878,85.168213 
	C64.574211,84.750664 68.319244,84.078926 72.066727,84.064995 
	C78.176743,84.042274 84.288353,84.448929 90.770676,84.891647 
	C81.360596,85.142395 71.579140,85.175903 61.312878,85.168213 
z"/>
<path fill="#B2C4CE" opacity="1.000000" stroke="none" 
	d="
M100.263878,71.375549 
	C100.379761,71.350739 100.585884,71.526398 100.899300,71.888275 
	C100.792213,71.908020 100.574722,71.741867 100.263878,71.375549 
z"/>
<path fill="#7290A2" opacity="1.000000" stroke="none" 
	d="
M110.958710,101.630875 
	C109.253731,101.503639 107.362610,101.049652 105.241989,100.313713 
	C106.932526,100.455879 108.852539,100.879997 110.958710,101.630875 
z"/>
<path fill="#B2C4CF" opacity="1.000000" stroke="none" 
	d="
M45.826519,77.200089 
	C46.294090,79.766571 46.666557,81.936356 47.039021,84.106133 
	C42.231464,81.798073 35.402386,85.615402 33.612797,77.787506 
	C31.909048,70.335068 40.514015,71.280182 40.617100,65.722649 
	C41.289192,65.885574 41.961285,66.048508 42.633377,66.211433 
	C43.666058,69.742088 44.698734,73.272736 45.826519,77.200089 
z"/>
<path fill="#F8FBF2" opacity="1.000000" stroke="none" 
	d="
M85.051964,111.881760 
	C85.342422,113.405334 85.884933,115.083389 85.274529,115.937004 
	C83.850456,117.928482 81.873070,119.524582 80.118027,121.279037 
	C73.992973,127.402016 73.495338,127.412239 68.082024,120.666924 
	C67.431206,119.855957 67.497681,118.469353 67.231705,117.349548 
	C68.354965,117.434738 69.937187,117.076363 70.522224,117.681717 
	C73.087486,120.335983 74.642365,118.698868 76.730194,116.966583 
	C79.188423,114.926979 82.077766,113.406967 85.051964,111.881760 
z"/>
</svg>