<svg xmlns="http://www.w3.org/2000/svg" viewBox="0 0 150 150" xml:space="preserve"><path fill="#809EB0" d="M93 151H1V1h150v150H93M64.67 99c.443-.004.887-.008 2.009.379.97.209 1.933.56 2.91.603 6.427.278 12.935-.05 19.264.87 6.558.954 13.04 2.787 19.38 4.785 10.517 3.314 13.65-1.209 15.911-8.464 4.06-13.026 7.383-26.302 10.439-39.606.669-2.912-1.073-6.378-2.192-10.071-1.208-.828-2.306-2.053-3.64-2.42-8.885-2.445-17.82-4.707-27.29-7.232-.386-.067-.772-.133-1.366-.908-1.353-2.45-2.707-4.9-4.718-7.902-1.749-.345-3.493-.967-5.245-.988-8.461-.105-16.926-.137-25.385 0-2.771.045-5.533.675-8.466 1.65-1.525 2.654-3.05 5.309-5.164 8.02-.378.114-.755.227-1.927.395-7.474 1.99-15.06 3.648-22.367 6.127-2.999 1.016-5.397 3.801-8.661 6.199-.156 3.02-.79 6.112-.353 9.045.606 4.073 1.987 8.033 3.084 12.029 2.458 8.947 4.635 17.988 7.514 26.799 2.486 7.609 6.523 9.464 14.165 7.544 6.107-1.536 12.205-3.115 18.267-4.82 1.153-.325 2.114-1.333 3.83-2.034m26.669 17.07c-2.492-10.24-10.656-15.502-19.893-12.824-8.273 2.4-12.973 11.613-10.13 19.861 2.31 6.708 9.59 11.368 16.334 10.457 8.373-1.133 13.45-7.276 13.689-17.493z"/><path fill="#FEFEFE" d="M51.706 37.659c1.525-2.654 3.05-5.309 5.168-8.158 13.449-.101 26.304-.008 39.16.086 1.354 2.45 2.708 4.9 4.11 8.195-.015 3.638-.23 6.436-.112 9.22.27 6.351.702 12.695 1 19.281-.067.24-.193.722-.377 1.033-.292 1.505-.4 2.698-.391 4.06.31.366.528.532.76.632-.01-.034-.079-.013-.103.314-.267 1.38-.509 2.431-.794 3.886-.063 1.212-.082 2.021-.129 3.218.03 1.418.086 2.45.116 3.911-.325 8.297-.535 8.49-8.716 9.855-.89.148-1.687.847-2.9 1.408-4.724-.317-9.075-1.096-13.424-1.084-4.026.011-8.05.868-12.236 1.029-1.208-.7-2.23-1.28-3.307-1.418-6.247-.794-7.427-2.136-7.566-8.56-.049-2.288-.362-4.57-.446-7.255.074-2.552.039-4.705.05-7.203-.103-2.958-.252-5.57-.357-8.59.195-8.225.344-16.042.494-23.86m39.879 46.737c.12-2.814.125-5.639.388-8.44.507-5.403-.418-10.041-5.064-13.69-2.318-1.82-3.863-2.275-5.773.08-2.601 3.206-5.209 6.407-7.814 9.61-2.273-1.764-3.236-2.202-3.797-2.944-2.763-3.652-5.222-2.643-7.47.44-3.606 4.946-2.125 10.346-.257 15.757 9.781-.033 19.563-.067 29.787-.813M75.52 55.763c.5-5.577-1.553-8.98-5.896-9.78-4.477-.825-8.523 1.747-9.397 5.974-.82 3.966 1.693 8.152 5.719 9.179 4.36 1.112 7.324-.85 9.574-5.373z"/><path fill="#E5EBEE" d="M100.146 71.208c.108-1.194.217-2.387.856-3.767 4.436 1.114 8.314 2.51 12.268 3.64.858.245 1.988-.464 2.992-.734-.734-.908-1.31-2.366-2.23-2.629-3.953-1.133-8.006-1.915-12.023-3.287l.004-26.383c8.919 2.321 17.853 4.583 26.738 7.028 1.334.367 2.432 1.592 3.91 3.084-.736 5.124-1.688 9.595-2.755 14.04-2.285 9.529-4.905 18.988-6.857 28.583-1.389 6.829-3 12.685-12.09 10.848-2.106-.751-4.026-1.175-6.158-1.634-.212-.034-.64-.043-.856-.34-2.489-1.04-4.763-1.783-6.794-2.783 4.97-3.403 4.966-8.232 5.228-13.079 3.573.542 6.736 1.052 9.898 1.56l.645-2.455-12.897-3.861c.02-.81.04-1.619.5-2.777 3.828.394 7.194 1.263 10.612 1.8 1.047.164 2.237-.587 3.362-.92-.823-.852-1.506-2.179-2.494-2.472-3.632-1.077-7.365-1.812-11.06-2.675 0 0 .068-.021-.056-.14-.303-.329-.51-.504-.743-.647zm-48.979-9.282c.15 2.613.299 5.225.091 8.054-1.783-.057-3.21-.33-5.967-.858 1.99 3.864 3.32 6.443 4.662 9.471.05 2.933-.029 5.425.15 7.899.362 5.022 1.535 9.475 7.759 9.778-.486.694-.81 1.154-1.522 1.62-5.046 1.176-9.652 2.624-14.368 3.446-7.067 1.23-9.665.436-11.405-6.916-1.365-5.77-3.064-11.461-4.593-17.194-2.416-9.066-4.814-18.137-7.22-27.206 2.672-1.98 5.07-4.766 8.069-5.782 7.308-2.479 14.893-4.138 22.77-5.69-.011 7.275-.508 14.111-.729 20.957-.025.781 1.498 1.613 2.303 2.421m-5.436 14.877-3.098-10.592-2.016-.488c-.103 5.557-8.708 4.612-7.004 12.065 1.79 7.827 8.618 4.01 13.426 6.318-.372-2.17-.745-4.34-1.308-7.303z"/><path fill="#B8D46E" d="M91.403 116.456c-.304 9.832-5.381 15.975-13.754 17.108-6.743.911-14.023-3.749-16.335-10.457-2.842-8.248 1.858-17.461 10.131-19.86 9.237-2.68 17.4 2.584 19.958 13.21m-6.623-4.795c-2.702 1.745-5.592 3.265-8.05 5.305-2.088 1.732-3.643 3.369-6.208.715-.585-.606-2.167-.247-3.29-.332.266 1.12.2 2.506.85 3.317 5.413 6.745 5.911 6.735 12.036.612 1.755-1.754 3.732-3.35 5.157-5.342.61-.854.067-2.532-.495-4.275z"/><path fill="#7D9BAD" d="M104.16 99.954s.43.01.87.325c2.333.77 4.224 1.225 6.115 1.679 8.904 1.51 10.515-4.346 11.904-11.175 1.952-9.595 4.572-19.054 6.857-28.583 1.067-4.445 2.02-8.916 2.998-13.799.606 2.788 2.348 6.254 1.679 9.166-3.056 13.304-6.38 26.58-10.439 39.606-2.26 7.255-5.394 11.778-15.91 8.464-6.342-1.998-12.823-3.831-19.38-4.784-6.33-.92-12.838-.593-19.265-.87-.977-.043-1.94-.395-2.904-.993 1.138-.588 2.281-1.011 3.4-.953 11.36.594 22.717 1.267 34.075 1.917zM18.458 50.228c2.702 8.86 5.1 17.932 7.516 26.998 1.529 5.733 3.228 11.424 4.593 17.194 1.74 7.352 4.338 8.147 11.405 6.916 4.716-.822 9.322-2.27 14.748-3.29 2.941.42 5.112.691 7.283.962-1.05.693-2.01 1.7-3.164 2.025-6.062 1.706-12.16 3.285-18.267 4.82-7.642 1.921-11.679.066-14.165-7.543-2.879-8.811-5.056-17.852-7.514-26.8-1.097-3.995-2.478-7.955-3.084-12.028-.436-2.933.197-6.025.649-9.254z"/><path fill="#7290A2" d="M64.336 99.004c-2.504-.267-4.675-.538-7.226-.964-.057-.616.266-1.076 1.137-1.783A97.702 97.702 0 0 1 63 94.87c4.024-.485 8.048-1.342 12.074-1.353 4.35-.012 8.7.767 13.739 1.317 3.158.843 5.627 1.571 8.096 2.299 2.273.742 4.547 1.484 7.036 2.525-11.143-.353-22.5-1.026-33.86-1.62-1.119-.058-2.262.365-3.739.758-.789.197-1.233.201-2.01.21z"/><path fill="#D6DDE1" d="M101.737 37.946c.275 8.742.274 17.383.148 26.699-.31.949-.53 1.19-.785 1.398-.366-6.346-.798-12.69-1.068-19.04-.118-2.785.097-5.583.216-8.867.44-.425.827-.359 1.489-.19z"/><path fill="#D4DCE1" d="M51.212 61.52c-.85-.402-2.373-1.234-2.348-2.015.22-6.846.718-13.682 1.126-20.985.372-.577.75-.69 1.421-.832.145 7.789-.004 15.606-.199 23.831z"/><path fill="#65889D" d="M95.705 29.31c-12.527.183-25.382.09-38.747-.115 2.256-.474 5.018-1.104 7.789-1.149 8.46-.137 16.924-.105 25.385 0 1.752.021 3.496.643 5.573 1.265z"/><path fill="#C0CFD8" d="M60.828 85.127c-.898-5.329-2.379-10.73 1.227-15.674 2.248-3.084 4.707-4.093 7.47-.441.561.742 1.524 1.18 3.797 2.944 2.605-3.203 5.213-6.404 7.814-9.61 1.91-2.355 3.455-1.9 5.773-.08 4.646 3.649 5.57 8.287 5.064 13.69-.263 2.801-.267 5.626-.981 8.58-6.704-.087-12.815-.494-18.925-.471-3.748.014-7.493.686-11.239 1.062z"/><path fill="#BECDD7" d="M75.378 56.118c-2.107 4.168-5.072 6.13-9.431 5.018-4.026-1.027-6.538-5.213-5.719-9.179.874-4.227 4.92-6.8 9.397-5.974 4.343.8 6.395 4.203 5.753 10.135z"/><path fill="#D4DCE0" d="M62.838 94.545c-1.24.705-2.642 1.085-4.429 1.479-6.77-.057-7.944-4.51-8.306-9.532-.179-2.474-.1-4.966.092-7.99.557-.623.887-.707 1.216-.791.192 2.285.505 4.568.554 6.856.139 6.424 1.319 7.766 7.566 8.56 1.078.138 2.099.718 3.307 1.418zm34.312 2.329c-2.71-.47-5.18-1.198-7.964-2.158.525-.677 1.323-1.376 2.212-1.524 8.181-1.365 8.39-1.558 8.958-9.776.717-.119 1.165.114 1.612.346.149 4.88.153 9.71-4.817 13.112z"/><path fill="#B1C3CE" d="M101.033 66.283c.323-.448.543-.69.852-1.176 4.14.696 8.194 1.478 12.147 2.611.92.263 1.496 1.721 2.23 2.63-1.004.27-2.134.978-2.992.733-3.954-1.13-7.832-2.526-12.084-3.952-.347-.124-.22-.606-.153-.846z"/><path fill="#B2C4CE" d="M100.92 72.322c3.72.536 7.453 1.27 11.085 2.348.988.293 1.67 1.62 2.494 2.473-1.125.332-2.315 1.083-3.362.919-3.418-.537-6.784-1.406-10.569-2.202-.156-1.107.086-2.159.353-3.538z"/><path fill="#AEC0CB" d="M102.379 83.795c-.858-.265-1.306-.498-1.996-.81-.299-1.11-.355-2.14-.385-3.559 4.326.9 8.625 2.187 12.924 3.474l-.645 2.456c-3.162-.51-6.325-1.019-9.898-1.56z"/><path fill="#ACBFC9" d="M51.52 77.312c-.438.483-.768.567-1.339.741-1.57-2.488-2.9-5.067-4.89-8.93 2.758.527 4.184.8 5.92 1.202.347 2.282.382 4.435.308 6.987z"/><path fill="#B4C5D0" d="M61.313 85.168c3.261-.417 7.006-1.09 10.754-1.103 6.11-.023 12.221.384 18.704.827-9.41.25-19.192.284-29.458.276z"/><path fill="#B2C4CE" d="M100.264 71.376c.116-.025.322.15.635.512-.107.02-.324-.146-.635-.512z"/><path fill="#7290A2" d="M110.959 101.63c-1.705-.126-3.596-.58-5.717-1.316 1.69.142 3.61.566 5.717 1.317z"/><path fill="#B2C4CF" d="M45.827 77.2c.467 2.567.84 4.736 1.212 6.906-4.808-2.308-11.637 1.51-13.426-6.318-1.704-7.453 6.901-6.508 7.004-12.065l2.016.488c1.033 3.531 2.066 7.062 3.194 10.99z"/><path fill="#F8FBF2" d="M85.052 111.882c.29 1.523.833 3.201.223 4.055-1.425 1.991-3.402 3.588-5.157 5.342-6.125 6.123-6.623 6.133-12.036-.612-.65-.811-.584-2.198-.85-3.317 1.123.085 2.705-.274 3.29.332 2.565 2.654 4.12 1.017 6.208-.715 2.458-2.04 5.348-3.56 8.322-5.085z"/></svg>