<?xml version="1.0" encoding="utf-8"?>
<!-- Generator: Adobe Illustrator 23.0.6, SVG Export Plug-In . SVG Version: 6.00 Build 0)  -->
<svg version="1.1" id="Layer_1" xmlns="http://www.w3.org/2000/svg" xmlns:xlink="http://www.w3.org/1999/xlink" x="0px" y="0px"
	 viewBox="0 0 372.7 364" style="enable-background:new 0 0 372.7 364;" xml:space="preserve">
<style type="text/css">
	.st0{fill:#6F4BBB;}
	.st1{fill:#7D5DC2;}
	.st2{fill:#9478CF;}
	.st3{fill:#5F3EA7;}
	.st4{fill:#A58DD4;}
	.st5{fill:#D3E8EF;}
	.st6{fill:#FFFFFF;}
	.st7{fill:#EA4E64;}
	.st8{fill:#EC6277;}
	.st9{fill:#232323;}
	.st10{fill:#323232;}
	.st11{fill:#2B3039;}
	.st12{fill:#393F4C;}
	.st13{fill:#999999;}
	.st14{fill:#1EC185;}
	.st15{fill:#FF893A;}
</style>
<g>
	<path class="st0" d="M103.4,306.5h65.7V364h-64.5c-10.2-4.5-18.6-10.9-24.7-18.4C82.3,333.2,91.2,317,103.4,306.5L103.4,306.5
		L103.4,306.5z"/>
	<path class="st1" d="M107.2,311.3c-8.7,9-17.3,19.9-20.2,32.3c5.2,6.2,12,11,19.3,14.5h55.2v-46.8H107.2L107.2,311.3z"/>
	<path class="st2" d="M92,330.9c-1.7,2.4-4.9,12.1-5.1,12.7c5.2,6.2,12,11,19.3,14.5h29.4V333C121.1,332.9,106.6,332.2,92,330.9
		L92,330.9L92,330.9z"/>
	<path class="st3" d="M103.1,351.8c6.8,2.3,10,6.6,11,12.2H90.4C92,359.2,96.5,353.3,103.1,351.8"/>
	<path class="st0" d="M103,354.4c-3.7,1-6.8,3.9-8.8,7.2h8.9L103,354.4L103,354.4L103,354.4z"/>
	<path class="st3" d="M126.5,350.4c9.1,2.5,13.5,8.6,14.6,13.6h-31.6C111.6,358.7,118,351.6,126.5,350.4"/>
	<path class="st0" d="M126.3,352.9c-5,0.9-9.9,4.4-12.8,8.7h13v-8.7H126.3L126.3,352.9z"/>
	<path class="st0" d="M247.9,306.5h-65.7V364h64.5c10.2-4.5,18.6-10.9,24.7-18.4C269.1,333.2,260.2,317,247.9,306.5L247.9,306.5
		L247.9,306.5z"/>
	<path class="st1" d="M244.2,311.3c8.7,9,17.3,19.9,20.2,32.3c-5.2,6.2-12,11-19.3,14.5h-55.2v-46.8H244.2L244.2,311.3z"/>
	<path class="st2" d="M259.3,330.9c1.7,2.4,4.9,12.1,5.1,12.7c-5.2,6.2-12,11-19.3,14.5h-29.4V333
		C230.2,332.9,244.8,332.2,259.3,330.9L259.3,330.9L259.3,330.9z"/>
	<path class="st3" d="M248.3,351.8c-6.8,2.3-10,6.6-11,12.2H261C259.4,359.2,254.9,353.3,248.3,351.8"/>
	<path class="st0" d="M248.4,354.4c3.7,1,6.8,3.9,8.8,7.2h-8.9v-7.2H248.4L248.4,354.4z"/>
	<path class="st3" d="M224.9,350.4c-9.1,2.5-13.5,8.6-14.6,13.6h31.6C239.8,358.7,233.4,351.6,224.9,350.4"/>
	<path class="st0" d="M225,352.9c5,0.9,9.9,4.4,12.8,8.7h-13v-8.7H225L225,352.9z"/>
	<path class="st3" d="M0,324.2c0.4,10.5,2.8,18.7,7.4,23.8c7.2-0.6,13.3-8.6,16.1-15.5C19.3,325.2,11.1,321.9,0,324.2"/>
	<path class="st0" d="M3.7,327.1c0.2,6.1,1.8,12.4,5.1,17l2.8-16.6C9.1,326.9,6.4,326.9,3.7,327.1"/>
	<path class="st3" d="M18.2,329.8c0.7,9.4,1.9,17.7,7.8,26.1c10.6-2.3,18.9-8.2,22.4-17.6C43.2,326.4,30.8,324.8,18.2,329.8
		L18.2,329.8L18.2,329.8z"/>
	<path class="st0" d="M27.5,351.9l7.1-20.9c-4-0.8-8.5-0.2-12.8,1.2C22.5,339.3,23.7,345.6,27.5,351.9L27.5,351.9L27.5,351.9z"/>
	<path class="st3" d="M53,337.5c1.8,10.7,11.9,16,17,15.7c2.3-3.9,4.6-9,4.6-15.1l-4.4-3.7C63.5,333.1,56.4,333.6,53,337.5L53,337.5
		L53,337.5z"/>
	<path class="st0" d="M68.2,349.6c2-3,3.3-7.6,3.5-12l-7.2-1.2L68.2,349.6L68.2,349.6z"/>
	<path class="st0" d="M74.7,194.1V338c-24.9,3.1-53.9,2.1-74.7-13.9c0.4-13.4,1.7-26.5,4.1-39c4.5-22.6,13-43.2,27.7-60.1
		C44.8,210.1,57.8,203,74.7,194.1L74.7,194.1L74.7,194.1z"/>
	<path class="st2" d="M7,320.8c13,10,44.2,13.1,60.6,11V205.7C25.3,228.2,8.5,269.7,7,320.8"/>
	<path class="st4" d="M7,320.8c6.6,5.1,17.8,8.3,29.5,10.1c1.7-32.1,1.5-80.4-5.7-93.2C15.1,260,8,288.5,7,320.8"/>
	<path class="st2" d="M36.5,299.4c5.5,0,9.9,4.4,9.9,9.9s-4.4,9.9-9.9,9.9s-9.9-4.4-9.9-9.9S31,299.4,36.5,299.4"/>
	<path class="st0" d="M60.1,81.9c-2.9-18.7,0.3-28.4,4.1-45.5c11.9,9.9,19.5,17,34,24.3c2.9-18.1,9.3-35.2,18.6-51.2l5.5-9.4
		c21.2,16,39.3,28.8,53.3,50c14-21.2,32.1-34,53.3-50l5.5,9.4c9.3,16,15.7,33.1,18.6,51.2c14.5-7.3,22.1-14.4,34-24.3
		c3.9,17,7,26.7,4.1,45.5l26.2,7.2c-5.2,68.4-10.5,126.7-17.2,195.1c-0.9,9.4-1.9,18.9-2.9,28.3c-0.3,2.7-3.6,7.6-17.6,7.7
		c-68.4,4.6-140,4.6-208.3,0c-14-0.2-17.3-5-17.6-7.7c-1-9.6-2-19.2-2.9-28.8c-0.4-3.9-0.8-7.8-1.2-11.8
		c-5.7-61-11.3-121.8-16-182.9l26.2-7.2L60.1,81.9L60.1,81.9z"/>
	<path class="st2" d="M125.2,14.4c-11.3,19.2-17.6,39.5-18.8,60.5C94.8,70.5,81.6,63.3,70.2,54c-2.3,10.2-1.8,23.5,1.3,35.1
		c-9.6,2.2-18.5,4.5-27.4,7.1c4.8,62.8,9.3,125.6,15.5,188.2c0.6,6.2,1.9,19.6,2.6,25.8c2.5,1.4,7.7,1.4,9.8,1.5
		c68.8,4.6,138.4,4.6,207.2,0c2.2-0.2,7.3-0.2,9.8-1.5c0.7-6.1,2-19.8,2.6-25.8c6.1-62.7,10.7-125.5,15.5-188.2
		c-8.9-2.6-17.8-4.9-27.4-7.1c3.1-11.6,3.6-24.9,1.3-35.1c-11.3,9.4-24.6,16.5-36.2,20.9c-1.2-20.9-7.5-41.3-18.8-60.5
		c-23,17.4-38.1,30-50.4,55.2c-12.4-25.2-27.4-37.8-50.5-55.2L125.2,14.4L125.2,14.4z"/>
	<path class="st4" d="M125.2,14.4c1.7,27.9,8.7,58.9,21.9,71.9c-17.6-1.9-27-4-40.6-11.4C94.8,70.5,81.6,63.3,70.2,54
		c6.1,18.4,12,31.5,24.1,44.3c-10.3-0.2-16.2-3.6-22.8-9.2c-9.6,2.2-18.5,4.5-27.4,7.1c4.8,62.8,9.3,125.6,15.5,188.2
		c0.6,6.2,1.9,19.6,2.6,25.8c2.5,1.4,7.7,1.4,9.8,1.5c34.4,2.3,69,3.4,103.6,3.4v-37.4c-53.4,4.2-102.2-80-46.1-135.3l-11.2,6.2
		c-1.4-8.9,1.4-20,5.1-29c7.3-17.5,26.7-30.5,52.2-33.6V69.5C163.2,44.3,148.3,31.7,125.2,14.4L125.2,14.4L125.2,14.4z"/>
	<path class="st1" d="M256.9,98.3c12-12.8,18-26,24.1-44.4c2.3,10.2,1.8,23.5-1.3,35.1C273.1,94.7,267.2,98.1,256.9,98.3
		 M236.6,93.1c6,0,10.8,4.9,10.8,10.8c0,6-4.9,10.8-10.8,10.8c-6,0-10.8-4.9-10.8-10.8S230.7,93.1,236.6,93.1 M276.1,117.5
		c4.1,0,7.5,3.4,7.5,7.5c0,4.1-3.4,7.5-7.5,7.5s-7.5-3.4-7.5-7.5C268.6,120.8,271.9,117.5,276.1,117.5 M204.2,86.2
		c13.2-12.9,20.2-43.9,21.9-71.9c11.3,19.2,17.6,39.5,18.8,60.5C231.2,82.2,221.8,84.3,204.2,86.2"/>
	<path class="st2" d="M77.6,108.8c9.8,0,17.8,8,17.8,17.8s-8,17.8-17.8,17.8s-17.8-8-17.8-17.8S67.8,108.8,77.6,108.8 M66.1,163.4
		c3.9,0,7.1,3.2,7.1,7.1c0,3.9-3.2,7.1-7.1,7.1s-7.1-3.2-7.1-7.1C59,166.6,62.2,163.4,66.1,163.4"/>
	<path class="st5" d="M176.8,118.5c42.3,0,76.6,34.3,76.6,76.6s-34.3,76.6-76.6,76.6s-76.6-34.3-76.6-76.6
		C100.2,152.8,134.5,118.5,176.8,118.5"/>
	<path class="st6" d="M102.2,177.7c6.7-28.8,29.7-51.4,58.7-57.5c31.6-2.4,57.2,19.7,57.2,49.8c0,30.3-26,57.2-57.9,60
		c-32,2.8-57.9-19.4-57.9-49.8C102.2,179.4,102.2,178.5,102.2,177.7L102.2,177.7L102.2,177.7z"/>
	<path class="st7" d="M200.4,165.7c23.9,0,43.2,19.3,43.2,43.2s-19.3,43.2-43.2,43.2c-23.9,0-43.2-19.3-43.2-43.2
		C157.2,185.1,176.5,165.7,200.4,165.7"/>
	<path class="st8" d="M200.4,165.7c6.3,0,12.3,1.3,17.7,3.8v0.5c0,29.5-24.6,55.8-55.6,59.8c-3.4-6.2-5.4-13.3-5.4-20.9
		C157.1,185,176.4,165.7,200.4,165.7L200.4,165.7L200.4,165.7z"/>
	<path class="st9" d="M200.4,180.9c15.5,0,28.1,12.5,28.1,28.1c0,15.5-12.5,28.1-28.1,28.1c-15.5,0-28.1-12.5-28.1-28.1
		C172.3,193.5,184.8,180.9,200.4,180.9"/>
	<path class="st10" d="M200.4,180.9c5.7,0,11,1.7,15.4,4.6c-5.4,17.9-19.6,33.1-37.8,40.3c-3.5-4.7-5.6-10.6-5.6-16.8
		C172.3,193.5,184.8,180.9,200.4,180.9"/>
	<path class="st6" d="M169.8,176.6c9.8,0,17.7,7.9,17.7,17.7s-7.9,17.7-17.7,17.7c-9.8,0-17.7-7.9-17.7-17.7S160,176.6,169.8,176.6"
		/>
	<path class="st0" d="M86.7,230.2c21.8-12,54.6,9,52.2,43C118.1,266.8,95.6,247.2,86.7,230.2"/>
	<path class="st4" d="M86.7,230.2c19.8,0.4,41.7,11.6,52.2,43C114,270.4,90.8,251.4,86.7,230.2"/>
	<path class="st1" d="M97,258.6c2.9-1,16.5-0.7,17.6,0.8c1.3,1.8-2.3,11-6.1,17C103.5,272.4,99.4,266.9,97,258.6"/>
	<path class="st6" d="M93,255.3c2.9-1,16.5-0.7,17.6,0.8c1.3,1.8-2.3,11-6.1,17C99.5,269.1,95.4,263.6,93,255.3"/>
	<path class="st0" d="M97.1,250.6c0.9,19.3,26.1,37.9,50,31c1.3,5.6-2.5,8.9-6.4,9.7c-21.7,1.9-42.6-11.8-49.5-29.3
		C89.2,257.2,91.4,251.2,97.1,250.6L97.1,250.6L97.1,250.6z"/>
	<path class="st0" d="M93,286.8c6,11.3,15.4,16.6,25.7,18.3C104,311.7,91,302.9,93,286.8"/>
	<path class="st2" d="M102.9,289.5c11.8,6.6,23,8.7,36,7.5C129.4,303.3,110.8,304,102.9,289.5"/>
	<path class="st3" d="M203.3,96.8c-23.7-41-86.1-17.1-79.8,28.9C139.1,99.9,169.2,91.5,203.3,96.8"/>
	<path class="st0" d="M203.3,96.8c-13.4-23.1-41.6-24.6-60.5-11.9c-0.1,5.4,1.5,9.3,4.4,12.4C162.5,89.9,182.5,86.9,203.3,96.8
		L203.3,96.8L203.3,96.8z"/>
	<path class="st0" d="M327.4,252.7c24.9,0,45.3,20,45.3,45s-20.4,45-45.3,45s-45.3-20-45.3-45S302.5,252.7,327.4,252.7"/>
	<path class="st2" d="M327.4,259.3c21.4,0,38.7,17.2,38.7,38.3c0,21.2-17.3,38.3-38.7,38.3c-21.4,0-38.7-17.2-38.7-38.3
		C288.7,276.5,306.1,259.3,327.4,259.3"/>
	<path class="st4" d="M327.4,259.3c15.2,0,28.3,8.7,34.7,21.3c1.4,20-23,34.7-39.3,27.8c-12-6.5-20.3-19.2-20.3-33.7
		c0-2.4,0.2-4.7,0.7-7C309.9,262.5,318.3,259.3,327.4,259.3L327.4,259.3L327.4,259.3z"/>
	<path class="st11" d="M311.6,291.7c-1.8-5.5,18.8-12.4,20.7-6.9l20.4,61.1c1.8,5.5-18.8,12.4-20.7,6.9L311.6,291.7L311.6,291.7z"/>
	<path class="st3" d="M341.2,285.5c-8.1,5-14.8,9.9-19.6,19c6.9,8.4,16,13,26,11.8C355.7,306.1,351.5,294.4,341.2,285.5L341.2,285.5
		L341.2,285.5z"/>
	<path class="st0" d="M347.5,299.5c-1.2-3.5-3.4-6.8-6.2-10c-6.2,4-11.3,8.3-15.2,14.5C330.4,304.4,337.1,303.3,347.5,299.5
		L347.5,299.5L347.5,299.5z"/>
	<path class="st3" d="M349,310c-8.1,5-14.8,9.9-19.6,19c6.9,8.4,16,13,26,11.8C363.5,330.6,359.3,318.9,349,310L349,310L349,310z"/>
	<path class="st0" d="M355.3,323c-1.2-3.5-3.4-6.8-6.2-10c-6.2,4-11.3,8.3-15.2,14.5C338.2,328,344.9,326.8,355.3,323L355.3,323
		L355.3,323z"/>
	<path class="st3" d="M306.8,312.4c7.7-1.9,14.5-3.1,22.8-0.7c1,9-1.5,17.2-8,22.4C310.8,333.2,306.2,323.8,306.8,312.4L306.8,312.4
		L306.8,312.4z"/>
	<path class="st0" d="M311.5,323.3c-1.4-2.8-2.1-6-2.4-9.5c6-1.4,11.5-2,17.6-0.7C324.5,316,319.9,319.3,311.5,323.3L311.5,323.3
		L311.5,323.3z"/>
	<path class="st12" d="M291.4,146.9c-40.9,2.3-72.2,37.4-69.9,78.3c2.3,40.9,37.4,72.2,78.3,69.9s72.2-37.4,69.9-78.3
		S332.4,144.6,291.4,146.9"/>
	<path class="st5" d="M292,156.1c-35.8,2-63.3,32.8-61.3,68.7c2,35.8,32.8,63.3,68.7,61.2c35.8-2,63.3-32.8,61.3-68.7
		C358.6,181.5,327.9,154,292,156.1"/>
	<path class="st6" d="M345.1,253.2c6.6-10.2,10.2-22.5,9.5-35.6c-1.5-25.9-19.4-47-43.1-53.5c-1.9,22.4-3.9,44.4-6,67
		C313.4,234.3,333.8,244.5,345.1,253.2L345.1,253.2L345.1,253.2z"/>
	<path class="st6" d="M291,163.3c-31.2,1.8-55.1,28.5-53.2,59.7c0.3,4.4,1,8.7,2.2,12.7c-0.1-0.9-0.2-1.8-0.2-2.8
		c-2-36.2,25.6-67.2,61.8-69.3h0.3C298.4,163.3,294.7,163.1,291,163.3L291,163.3L291,163.3z"/>
	<path class="st13" d="M240,254.7c1.2,2,2.5,3.9,3.9,5.7l19.2-26.6l44.2,18.4l25.6-52.9l25.7,4.9c-0.7-2.4-1.4-4.8-2.3-7.1l-27-5.2
		l-25.1,51.9l-43.2-18L240,254.7L240,254.7L240,254.7z"/>
	<path class="st14" d="M261.2,216.4c7.4-0.4,13.7,5.2,14.1,12.6c0.4,7.4-5.2,13.7-12.6,14.1c-7.4,0.4-13.7-5.2-14.1-12.6
		C248.1,223.2,253.8,216.9,261.2,216.4"/>
	<path class="st7" d="M330.3,182.3c7.4-0.4,13.7,5.2,14.1,12.6c0.4,7.4-5.2,13.7-12.6,14.1c-7.4,0.4-13.7-5.2-14.1-12.6
		C317.2,189,322.9,182.7,330.3,182.3"/>
	<path class="st15" d="M304.9,234.7c7.4-0.4,13.7,5.2,14.1,12.6c0.4,7.4-5.2,13.7-12.6,14.1s-13.7-5.2-14.1-12.6
		C291.8,241.4,297.5,235.1,304.9,234.7"/>
</g>
</svg>
