<svg version="1.1" id="Layer_1" xmlns="http://www.w3.org/2000/svg" x="0" y="0" viewBox="0 0 372.7 364" xml:space="preserve"><style>.st0{fill:#6f4bbb}.st1{fill:#7d5dc2}.st2{fill:#9478cf}.st3{fill:#5f3ea7}.st4{fill:#a58dd4}.st5{fill:#d3e8ef}.st6{fill:#fff}.st7{fill:#ea4e64}</style><path class="st0" d="M103.4 306.5h65.7V364h-64.5c-10.2-4.5-18.6-10.9-24.7-18.4 2.4-12.4 11.3-28.6 23.5-39.1z"/><path class="st1" d="M107.2 311.3c-8.7 9-17.3 19.9-20.2 32.3 5.2 6.2 12 11 19.3 14.5h55.2v-46.8h-54.3z"/><path class="st2" d="M92 330.9c-1.7 2.4-4.9 12.1-5.1 12.7 5.2 6.2 12 11 19.3 14.5h29.4V333c-14.5-.1-29-.8-43.6-2.1z"/><path class="st3" d="M103.1 351.8c6.8 2.3 10 6.6 11 12.2H90.4c1.6-4.8 6.1-10.7 12.7-12.2"/><path class="st0" d="M103 354.4c-3.7 1-6.8 3.9-8.8 7.2h8.9l-.1-7.2z"/><path class="st3" d="M126.5 350.4c9.1 2.5 13.5 8.6 14.6 13.6h-31.6c2.1-5.3 8.5-12.4 17-13.6"/><path class="st0" d="M126.3 352.9c-5 .9-9.9 4.4-12.8 8.7h13v-8.7h-.2zm121.6-46.4h-65.7V364h64.5c10.2-4.5 18.6-10.9 24.7-18.4-2.3-12.4-11.2-28.6-23.5-39.1z"/><path class="st1" d="M244.2 311.3c8.7 9 17.3 19.9 20.2 32.3-5.2 6.2-12 11-19.3 14.5h-55.2v-46.8h54.3z"/><path class="st2" d="M259.3 330.9c1.7 2.4 4.9 12.1 5.1 12.7-5.2 6.2-12 11-19.3 14.5h-29.4V333c14.5-.1 29.1-.8 43.6-2.1z"/><path class="st3" d="M248.3 351.8c-6.8 2.3-10 6.6-11 12.2H261c-1.6-4.8-6.1-10.7-12.7-12.2"/><path class="st0" d="M248.4 354.4c3.7 1 6.8 3.9 8.8 7.2h-8.9v-7.2h.1z"/><path class="st3" d="M224.9 350.4c-9.1 2.5-13.5 8.6-14.6 13.6h31.6c-2.1-5.3-8.5-12.4-17-13.6"/><path class="st0" d="M225 352.9c5 .9 9.9 4.4 12.8 8.7h-13v-8.7h.2z"/><path class="st3" d="M0 324.2c.4 10.5 2.8 18.7 7.4 23.8 7.2-.6 13.3-8.6 16.1-15.5-4.2-7.3-12.4-10.6-23.5-8.3"/><path class="st0" d="M3.7 327.1c.2 6.1 1.8 12.4 5.1 17l2.8-16.6c-2.5-.6-5.2-.6-7.9-.4"/><path class="st3" d="M18.2 329.8c.7 9.4 1.9 17.7 7.8 26.1 10.6-2.3 18.9-8.2 22.4-17.6-5.2-11.9-17.6-13.5-30.2-8.5z"/><path class="st0" d="M27.5 351.9l7.1-20.9c-4-.8-8.5-.2-12.8 1.2.7 7.1 1.9 13.4 5.7 19.7z"/><path class="st3" d="M53 337.5c1.8 10.7 11.9 16 17 15.7 2.3-3.9 4.6-9 4.6-15.1l-4.4-3.7c-6.7-1.3-13.8-.8-17.2 3.1z"/><path class="st0" d="M68.2 349.6c2-3 3.3-7.6 3.5-12l-7.2-1.2 3.7 13.2z"/><path class="st0" d="M74.7 194.1V338c-24.9 3.1-53.9 2.1-74.7-13.9.4-13.4 1.7-26.5 4.1-39 4.5-22.6 13-43.2 27.7-60.1 13-14.9 26-22 42.9-30.9z"/><path class="st2" d="M7 320.8c13 10 44.2 13.1 60.6 11V205.7C25.3 228.2 8.5 269.7 7 320.8"/><path class="st4" d="M7 320.8c6.6 5.1 17.8 8.3 29.5 10.1 1.7-32.1 1.5-80.4-5.7-93.2C15.1 260 8 288.5 7 320.8"/><path class="st2" d="M36.5 299.4c5.5 0 9.9 4.4 9.9 9.9s-4.4 9.9-9.9 9.9-9.9-4.4-9.9-9.9 4.4-9.9 9.9-9.9"/><path class="st0" d="M60.1 81.9c-2.9-18.7.3-28.4 4.1-45.5 11.9 9.9 19.5 17 34 24.3 2.9-18.1 9.3-35.2 18.6-51.2l5.5-9.4c21.2 16 39.3 28.8 53.3 50 14-21.2 32.1-34 53.3-50l5.5 9.4c9.3 16 15.7 33.1 18.6 51.2 14.5-7.3 22.1-14.4 34-24.3 3.9 17 7 26.7 4.1 45.5l26.2 7.2c-5.2 68.4-10.5 126.7-17.2 195.1-.9 9.4-1.9 18.9-2.9 28.3-.3 2.7-3.6 7.6-17.6 7.7-68.4 4.6-140 4.6-208.3 0-14-.2-17.3-5-17.6-7.7-1-9.6-2-19.2-2.9-28.8-.4-3.9-.8-7.8-1.2-11.8-5.7-61-11.3-121.8-16-182.9l26.2-7.2.3.1z"/><path class="st2" d="M125.2 14.4c-11.3 19.2-17.6 39.5-18.8 60.5C94.8 70.5 81.6 63.3 70.2 54c-2.3 10.2-1.8 23.5 1.3 35.1-9.6 2.2-18.5 4.5-27.4 7.1 4.8 62.8 9.3 125.6 15.5 188.2.6 6.2 1.9 19.6 2.6 25.8 2.5 1.4 7.7 1.4 9.8 1.5 68.8 4.6 138.4 4.6 207.2 0 2.2-.2 7.3-.2 9.8-1.5.7-6.1 2-19.8 2.6-25.8 6.1-62.7 10.7-125.5 15.5-188.2-8.9-2.6-17.8-4.9-27.4-7.1 3.1-11.6 3.6-24.9 1.3-35.1-11.3 9.4-24.6 16.5-36.2 20.9-1.2-20.9-7.5-41.3-18.8-60.5-23 17.4-38.1 30-50.4 55.2-12.4-25.2-27.4-37.8-50.5-55.2h.1z"/><path class="st4" d="M125.2 14.4c1.7 27.9 8.7 58.9 21.9 71.9-17.6-1.9-27-4-40.6-11.4C94.8 70.5 81.6 63.3 70.2 54c6.1 18.4 12 31.5 24.1 44.3-10.3-.2-16.2-3.6-22.8-9.2-9.6 2.2-18.5 4.5-27.4 7.1 4.8 62.8 9.3 125.6 15.5 188.2.6 6.2 1.9 19.6 2.6 25.8 2.5 1.4 7.7 1.4 9.8 1.5 34.4 2.3 69 3.4 103.6 3.4v-37.4c-53.4 4.2-102.2-80-46.1-135.3l-11.2 6.2c-1.4-8.9 1.4-20 5.1-29 7.3-17.5 26.7-30.5 52.2-33.6V69.5c-12.4-25.2-27.3-37.8-50.4-55.1z"/><path class="st1" d="M256.9 98.3c12-12.8 18-26 24.1-44.4 2.3 10.2 1.8 23.5-1.3 35.1-6.6 5.7-12.5 9.1-22.8 9.3m-20.3-5.2c6 0 10.8 4.9 10.8 10.8 0 6-4.9 10.8-10.8 10.8-6 0-10.8-4.9-10.8-10.8s4.9-10.8 10.8-10.8m39.5 24.4c4.1 0 7.5 3.4 7.5 7.5s-3.4 7.5-7.5 7.5-7.5-3.4-7.5-7.5c0-4.2 3.3-7.5 7.5-7.5m-71.9-31.3c13.2-12.9 20.2-43.9 21.9-71.9 11.3 19.2 17.6 39.5 18.8 60.5-13.7 7.4-23.1 9.5-40.7 11.4"/><path class="st2" d="M77.6 108.8c9.8 0 17.8 8 17.8 17.8s-8 17.8-17.8 17.8-17.8-8-17.8-17.8 8-17.8 17.8-17.8m-11.5 54.6c3.9 0 7.1 3.2 7.1 7.1 0 3.9-3.2 7.1-7.1 7.1s-7.1-3.2-7.1-7.1c0-3.9 3.2-7.1 7.1-7.1"/><path class="st5" d="M176.8 118.5c42.3 0 76.6 34.3 76.6 76.6s-34.3 76.6-76.6 76.6-76.6-34.3-76.6-76.6 34.3-76.6 76.6-76.6"/><path class="st6" d="M102.2 177.7c6.7-28.8 29.7-51.4 58.7-57.5 31.6-2.4 57.2 19.7 57.2 49.8 0 30.3-26 57.2-57.9 60-32 2.8-57.9-19.4-57.9-49.8-.1-.8-.1-1.7-.1-2.5z"/><path class="st7" d="M200.4 165.7c23.9 0 43.2 19.3 43.2 43.2s-19.3 43.2-43.2 43.2c-23.9 0-43.2-19.3-43.2-43.2 0-23.8 19.3-43.2 43.2-43.2"/><path d="M200.4 165.7c6.3 0 12.3 1.3 17.7 3.8v.5c0 29.5-24.6 55.8-55.6 59.8-3.4-6.2-5.4-13.3-5.4-20.9 0-23.9 19.3-43.2 43.3-43.2z" fill="#ec6277"/><path d="M200.4 180.9c15.5 0 28.1 12.5 28.1 28.1 0 15.5-12.5 28.1-28.1 28.1-15.5 0-28.1-12.5-28.1-28.1 0-15.5 12.5-28.1 28.1-28.1" fill="#232323"/><path d="M200.4 180.9c5.7 0 11 1.7 15.4 4.6-5.4 17.9-19.6 33.1-37.8 40.3-3.5-4.7-5.6-10.6-5.6-16.8-.1-15.5 12.4-28.1 28-28.1" fill="#323232"/><path class="st6" d="M169.8 176.6c9.8 0 17.7 7.9 17.7 17.7s-7.9 17.7-17.7 17.7c-9.8 0-17.7-7.9-17.7-17.7s7.9-17.7 17.7-17.7"/><path class="st0" d="M86.7 230.2c21.8-12 54.6 9 52.2 43-20.8-6.4-43.3-26-52.2-43"/><path class="st4" d="M86.7 230.2c19.8.4 41.7 11.6 52.2 43-24.9-2.8-48.1-21.8-52.2-43"/><path class="st1" d="M97 258.6c2.9-1 16.5-.7 17.6.8 1.3 1.8-2.3 11-6.1 17-5-4-9.1-9.5-11.5-17.8"/><path class="st6" d="M93 255.3c2.9-1 16.5-.7 17.6.8 1.3 1.8-2.3 11-6.1 17-5-4-9.1-9.5-11.5-17.8"/><path class="st0" d="M97.1 250.6c.9 19.3 26.1 37.9 50 31 1.3 5.6-2.5 8.9-6.4 9.7-21.7 1.9-42.6-11.8-49.5-29.3-2-4.8.2-10.8 5.9-11.4zM93 286.8c6 11.3 15.4 16.6 25.7 18.3-14.7 6.6-27.7-2.2-25.7-18.3"/><path class="st2" d="M102.9 289.5c11.8 6.6 23 8.7 36 7.5-9.5 6.3-28.1 7-36-7.5"/><path class="st3" d="M203.3 96.8c-23.7-41-86.1-17.1-79.8 28.9 15.6-25.8 45.7-34.2 79.8-28.9"/><path class="st0" d="M203.3 96.8c-13.4-23.1-41.6-24.6-60.5-11.9-.1 5.4 1.5 9.3 4.4 12.4 15.3-7.4 35.3-10.4 56.1-.5zm124.1 155.9c24.9 0 45.3 20 45.3 45s-20.4 45-45.3 45-45.3-20-45.3-45 20.4-45 45.3-45"/><path class="st2" d="M327.4 259.3c21.4 0 38.7 17.2 38.7 38.3 0 21.2-17.3 38.3-38.7 38.3-21.4 0-38.7-17.2-38.7-38.3 0-21.1 17.4-38.3 38.7-38.3"/><path class="st4" d="M327.4 259.3c15.2 0 28.3 8.7 34.7 21.3 1.4 20-23 34.7-39.3 27.8-12-6.5-20.3-19.2-20.3-33.7 0-2.4.2-4.7.7-7 6.7-5.2 15.1-8.4 24.2-8.4z"/><path d="M311.6 291.7c-1.8-5.5 18.8-12.4 20.7-6.9l20.4 61.1c1.8 5.5-18.8 12.4-20.7 6.9l-20.4-61.1z" fill="#2b3039"/><path class="st3" d="M341.2 285.5c-8.1 5-14.8 9.9-19.6 19 6.9 8.4 16 13 26 11.8 8.1-10.2 3.9-21.9-6.4-30.8z"/><path class="st0" d="M347.5 299.5c-1.2-3.5-3.4-6.8-6.2-10-6.2 4-11.3 8.3-15.2 14.5 4.3.4 11-.7 21.4-4.5z"/><path class="st3" d="M349 310c-8.1 5-14.8 9.9-19.6 19 6.9 8.4 16 13 26 11.8 8.1-10.2 3.9-21.9-6.4-30.8z"/><path class="st0" d="M355.3 323c-1.2-3.5-3.4-6.8-6.2-10-6.2 4-11.3 8.3-15.2 14.5 4.3.5 11-.7 21.4-4.5z"/><path class="st3" d="M306.8 312.4c7.7-1.9 14.5-3.1 22.8-.7 1 9-1.5 17.2-8 22.4-10.8-.9-15.4-10.3-14.8-21.7z"/><path class="st0" d="M311.5 323.3c-1.4-2.8-2.1-6-2.4-9.5 6-1.4 11.5-2 17.6-.7-2.2 2.9-6.8 6.2-15.2 10.2z"/><path d="M291.4 146.9c-40.9 2.3-72.2 37.4-69.9 78.3 2.3 40.9 37.4 72.2 78.3 69.9s72.2-37.4 69.9-78.3-37.3-72.2-78.3-69.9" fill="#393f4c"/><path class="st5" d="M292 156.1c-35.8 2-63.3 32.8-61.3 68.7 2 35.8 32.8 63.3 68.7 61.2 35.8-2 63.3-32.8 61.3-68.7-2.1-35.8-32.8-63.3-68.7-61.2"/><path class="st6" d="M345.1 253.2c6.6-10.2 10.2-22.5 9.5-35.6-1.5-25.9-19.4-47-43.1-53.5-1.9 22.4-3.9 44.4-6 67 7.9 3.2 28.3 13.4 39.6 22.1zM291 163.3c-31.2 1.8-55.1 28.5-53.2 59.7.3 4.4 1 8.7 2.2 12.7-.1-.9-.2-1.8-.2-2.8-2-36.2 25.6-67.2 61.8-69.3h.3c-3.5-.3-7.2-.5-10.9-.3z"/><path d="M240 254.7c1.2 2 2.5 3.9 3.9 5.7l19.2-26.6 44.2 18.4 25.6-52.9 25.7 4.9c-.7-2.4-1.4-4.8-2.3-7.1l-27-5.2-25.1 51.9-43.2-18-21 28.9z" fill="#999"/><path d="M261.2 216.4c7.4-.4 13.7 5.2 14.1 12.6.4 7.4-5.2 13.7-12.6 14.1-7.4.4-13.7-5.2-14.1-12.6-.5-7.3 5.2-13.6 12.6-14.1" fill="#1ec185"/><path class="st7" d="M330.3 182.3c7.4-.4 13.7 5.2 14.1 12.6.4 7.4-5.2 13.7-12.6 14.1-7.4.4-13.7-5.2-14.1-12.6-.5-7.4 5.2-13.7 12.6-14.1"/><path d="M304.9 234.7c7.4-.4 13.7 5.2 14.1 12.6.4 7.4-5.2 13.7-12.6 14.1s-13.7-5.2-14.1-12.6c-.5-7.4 5.2-13.7 12.6-14.1" fill="#ff893a"/></svg>