<svg version="1.1" id="Layer_1" xmlns="http://www.w3.org/2000/svg" x="0" y="0" viewBox="0 0 500 419.1" xml:space="preserve"><style>.st0{fill:#996}.st1{fill:#c0c0a0}.st2{fill:#fbfac4}.st4{fill:#70a91b}.st5{fill:#a1e141}.st7{fill:#85c51f}.st8{fill:#d3e8ef}.st9{fill:#fff}.st15{fill:#5d8d17}.st16{fill:#2c440c}</style><g transform="translate(-53.008 -114.933)"><g id="Mascot"><path class="st0" d="M452.3 269.9c.5-.3.6-2.2.7-2.8.2-1.3 1.7-1.8 2.8-1.2 1.8 1.3 2.7 3.7 3 5.8.3 2.2.1 5-1.5 6.7-1.6 1.8-5.8 2.4-8.2 2.2-.7-.1-1.3-.2-1.9-.3l-1.2-10.6 1.3.3c1.1.3 3.7.5 5-.1z" transform="translate(-2757.47 -1681.47) scale(7.14596)"/><path class="st1" d="M456.3 267.8c-.3-.4-.7-.8-1.1-1.1-.4-.3-1.2-.1-1.2.5l-.1.4c.8-.3 1.7-.1 2.4.2m1.4 7.2c.3-1.6.2-3.5-.4-5.2-.4-.5-.8-.9-1.6-1.2-1-.4-1.5-.3-1.9.2-.1.4-.2.7-.3 1 2.7.9 3.8 3.5 4.2 5.2zm-7.8-3.7c-.9 0-1.9-.1-2.9-.3l.9 8.5c1.2.3 2.7.3 3.9.1 1-3.3.1-7.2-1.9-8.3zm2.9-.6c-.4.2-.9.4-1.5.5 1.8 1.9 2.4 5.5 1.7 8.2 1.5-.3 2.8-.9 3.5-1.6.2-.2.3-.4.4-.5 0-2.9-1.2-6-4-6.7 0 .1 0 .1-.1.1z" transform="translate(-2757.47 -1681.47) scale(7.14596)"/><path class="st2" d="M452.3 276.2c-1.2.3-2.6.4-3.5.3-.4-.1-.8-.1-1.1-.2l-.7-5.3c1 .2 1.9.3 2.9.3 1.3.8 2.2 2.8 2.4 4.9zm3.7-7.4c0 .3.1.6.2.9.1.6.1 1.3.1 2-.7-.8-1.5-1.5-2.7-1.9.1-.3.2-.6.3-1 .4-.4 1-.6 1.9-.2 0 .1.1.1.2.2m-.8-2c.2.3.3.5.4.8-.6-.2-1.1-.2-1.7-.1l.1-.4c.1-.5.8-.8 1.2-.5v.2zm-2.4 3.9c-.4.2-.9.4-1.5.5 1.1 1.2 1.7 2.9 1.9 4.8.7-.3 1.4-.6 1.8-1.1.4-.4-.7-3.8-2.2-4.1v-.1" transform="translate(-2757.47 -1681.47) scale(7.14596)"/><path class="st0" d="M404.2 269.9c-.5-.3-.6-2.2-.7-2.8-.2-1.3-1.7-1.8-2.8-1.2-1.8 1.3-2.7 3.7-3 5.8-.3 2.2-.1 5 1.5 6.7 1.6 1.8 5.8 2.4 8.2 2.2.7-.1 1.3-.2 1.9-.3l1.2-10.6-1.3.3c-1.1.3-3.7.5-5-.1z" transform="translate(-2757.47 -1681.47) scale(7.14596)"/><path class="st1" d="M400.2 267.8c.3-.4.7-.8 1.1-1.1.4-.3 1.2-.1 1.2.5v.4c-.7-.3-1.6-.1-2.3.2m-1.4 7.2c-.3-1.6-.2-3.5.4-5.2.4-.5.8-.9 1.6-1.2 1-.4 1.5-.3 1.9.2.1.4.2.7.3 1-2.7.9-3.8 3.5-4.2 5.2zm7.8-3.7c.9 0 1.9-.1 2.9-.3l-.9 8.5c-1.2.3-2.7.3-3.9.1-1-3.3-.1-7.2 1.9-8.3zm-2.9-.6c.4.2.9.4 1.5.5-1.8 1.9-2.4 5.5-1.7 8.2-1.5-.3-2.8-.9-3.5-1.6-.2-.2-.3-.4-.4-.5 0-2.9 1.2-6 4-6.7 0 .1 0 .1.1.1z" transform="translate(-2757.47 -1681.47) scale(7.14596)"/><path class="st2" d="M404.2 276.2c1.2.3 2.6.4 3.5.3.4-.1.8-.1 1.1-.2l.6-5.3c-1 .2-1.9.3-2.9.3-1.2.8-2.1 2.8-2.3 4.9zm-3.7-7.4c-.1.3-.1.6-.2.9-.1.6-.1 1.3-.1 2 .7-.8 1.5-1.5 2.7-1.9-.1-.3-.2-.6-.3-1-.4-.4-1-.6-1.9-.2 0 .1-.1.1-.2.2m.8-2c-.2.3-.3.5-.4.8.6-.2 1.1-.2 1.7-.1l-.1-.4c0-.5-.8-.8-1.2-.5v.2zm2.4 3.9c.4.2.9.4 1.5.5-1.1 1.2-1.7 2.9-1.9 4.8-.7-.3-1.4-.6-1.8-1.1-.4-.4.7-3.8 2.2-4.1v-.1" transform="translate(-2757.47 -1681.47) scale(7.14596)"/><path d="M409.9 267.8c-1.8-.2-3.5.2-5.3.5l1.5-1.5c1.5-1.4 3.5-2.7 5.4-3.6 2.8-1.4 6-2.5 9.3-2.8-2.3-1-4.8-1.4-7.2-2 9.3-1.9 21.2-2.7 29.7 4.6 4.9 4.1 7.5 11.8 7.5 18.8 0 26.3-44.8 26.3-44.8 0 0-3.5.9-6.9 2.5-10l-1.8.6-2.7 1.1 1.9-2.2c1.2-1.3 2.5-2.5 4-3.3v-.2z" fill="#8ed41e" transform="translate(-2757.47 -1681.47) scale(7.14596)"/><path class="st4" d="M430 259.7c4.4.5 8.6 1.9 12.1 5 4.3 3.6 6.6 10.4 6.6 16.5 0 11.2-9.2 17-18.7 17.3v-38.8z" transform="translate(-2757.47 -1681.47) scale(7.14596)"/><path class="st5" d="M413.5 265.4c3.4-2.3 8.9-3 15.6-2.6-1.2-1.4-2.3-2.3-3.8-3 3-.1 5.4.6 11.4 2.6-5.2-3-11.5-4.4-17.5-3.7 2.2.6 4.2 1.6 6.1 2.9-6.1-.7-13.1 2.3-15.9 4.7 1.8-.2 3.5.2 5.2.9-2.5.9-4 1.6-5.6 3.1 2.7-1.3 4.8-2.5 8.1-3.2-1.3-.5-2-1.3-3.6-1.7" transform="translate(-2757.47 -1681.47) scale(7.14596)"/><path class="st4" d="M428.4 259.2c6.1 0 11.1 4.8 11.1 10.8 0 5.9-5 10.8-11.1 10.8s-11.1-4.8-11.1-10.8c-.1-5.9 4.9-10.8 11.1-10.8" transform="translate(-2757.47 -1681.47) scale(7.14596)"/><path class="st4" d="M410.7 280.1c.4-.7 34.1-.9 34.7 0 1.2 1.5.5 3 0 4.3h-34.7c-.3-1.4-.8-2.8 0-4.3" transform="translate(-2757.47 -1681.47) scale(7.14596)"/><path d="M411.2 281.1c.4-.9 33.2-1.2 33.9 0 1.1 2.1.5 4.1 0 5.9h-33.9c-.3-1.9-.8-3.9 0-5.9" fill="#4b7113" transform="translate(-2757.47 -1681.47) scale(7.14596)"/><path class="st4" d="M438.5 258.8c-.5-8.8-12.2-9.7-15.3-2.8 5.4-3 10.9-2 15.3 2.8" transform="translate(-2757.47 -1681.47) scale(7.14596)"/><path class="st7" d="M431.9 251.5c-3.4-.5-7.2 1-8.7 4.4 2-1.1 4.1-1.6 6.1-1.6.5-.8 1.5-2.3 2.6-2.8z" transform="translate(-2757.47 -1681.47) scale(7.14596)"/><path class="st8" d="M428.4 258.1c5.5 0 10 4.5 10 10s-4.5 10-10 10-10-4.5-10-10 4.4-10 10-10" transform="translate(-2757.47 -1681.47) scale(7.14596)"/><path class="st9" d="M422.1 260.7c3.3-2.8 8-2.8 10.3.1 2.4 2.8 1.5 7.4-1.8 10.2-3.3 2.8-8 2.8-10.3-.1-2.4-2.9-1.6-7.4 1.8-10.2" transform="translate(-2757.47 -1681.47) scale(7.14596)"/><path d="M428.6 264.7c3.9 0 7 2.9 7 6.6 0 3.6-3.1 6.6-7 6.6s-7-2.9-7-6.6c0-3.7 3.1-6.6 7-6.6" fill="#0d82df" transform="translate(-2757.47 -1681.47) scale(7.14596)"/><path d="M428.6 264.7c1.9 0 3.6.7 4.9 1.8-.5 1.6-1.4 3.2-2.9 4.4-2.8 2.3-6.5 2.7-9 1.1-.1-.3-.1-.5-.1-.8.1-3.6 3.2-6.5 7.1-6.5" fill="#0399ed" transform="translate(-2757.47 -1681.47) scale(7.14596)"/><path d="M428.6 267.1c2.5 0 4.5 1.9 4.5 4.2 0 2.3-2 4.2-4.5 4.2s-4.5-1.9-4.5-4.2c0-2.3 2-4.2 4.5-4.2" fill="#232323" transform="translate(-2757.47 -1681.47) scale(7.14596)"/><path d="M428.6 267.1c1.6 0 3 .8 3.8 1.9-.5.7-1.1 1.4-1.8 1.9-1.8 1.5-4.1 2.2-6.1 2-.3-.5-.4-1.1-.4-1.7 0-2.3 2-4.2 4.5-4.1z" fill="#323232" transform="translate(-2757.47 -1681.47) scale(7.14596)"/><path class="st9" d="M424.7 265.1c1.8 0 3.3 1.4 3.3 3.1 0 1.7-1.5 3.1-3.3 3.1-1.8 0-3.3-1.4-3.3-3.1-.1-1.8 1.4-3.1 3.3-3.1" transform="translate(-2757.47 -1681.47) scale(7.14596)"/><path d="M405 283.6c15.5-2.3 31-2.1 46.5 0 1.1 8.1.5 15.8 0 23.5-15.5.6-31 .7-46.5 0-.9-7.9-1-15.7 0-23.5" fill="#9caeb3" transform="translate(-2757.47 -1681.47) scale(7.14596)"/><path class="st8" d="M409.5 305.5c12.6.5 25 .4 37.6 0-4.5-2.6-9-5-14.1-6.4-1.6.8-3.4 1.4-5.1 1.9-.3.1-.3.1-.5 0-1.4-.5-2.9-1-4.3-1.6-4.9 1.4-9.3 3.5-13.6 6.1zm-3-19.3c-.7 6.2-.6 12.4.1 18.6 4.5-2.8 9.3-5.1 14.4-6.7-5.8-3-9.9-7.4-14.5-11.9m42.2-1.2c-13.7-1.6-27.4-1.8-41.1 0 5.6 6.3 11.8 11.5 20.1 14.2 8.8-2.5 14.8-8 21-14.2m1.2 19.9c.4-6.2.8-12.4.2-18.6-4.6 4.6-9.5 8.9-15.3 11.9 5.3 1.6 10.3 3.9 15.1 6.7z" transform="translate(-2757.47 -1681.47) scale(7.14596)"/><path class="st9" d="M409.5 305.5c6 .2 12.1.3 18.2.3V301c-.1 0-.1 0-.3-.1-1.4-.5-2.9-1-4.3-1.6-4.8 1.4-9.3 3.5-13.6 6.2m-3-19.3c-.7 6.2-.6 12.4.1 18.6 4.5-2.8 9.3-5.1 14.4-6.7-5.8-3-9.9-7.4-14.5-11.9m21.2-2.5c-6.7 0-13.4.4-20 1.3 5.6 6.3 11.8 11.4 20 14.2v-15.5z" transform="translate(-2757.47 -1681.47) scale(7.14596)"/><path class="st0" d="M419 287.4l-.3.6c-.1.3-.3.6-.6.8-.6.5-1.4.3-2.1.1-1.5-.6-2.5-2.1-3.1-3.5-.7-1.6-.8-2.8-.4-4.6 10.3-.6 21-.7 31-.1v.1h.2c.2 1.7 0 2.5-.4 3.9-.5 1.6-1.4 3.6-3.1 4.4-.6.3-1.3.5-1.9.1-.3-.2-.5-.5-.6-.8-.4-.6-.5-1.4-.6-2-.2.4-.5.7-.9.8-.7.2-1.4.3-2.1.3-.7.1-1.4.1-2.1.1-1.1 0-2.3-.1-3.3-.4-.2.6-.4 1.2-1 1.4-.7.2-1.5.3-2.2.4-.8.1-1.5.1-2.3.1-1.2 0-2.5-.1-3.6-.6-.2-.3-.5-.6-.6-1.1z" transform="translate(-2757.47 -1681.47) scale(7.14596)"/><path class="st1" d="M436.3 280.4c.4 2.3.3 5.3-.4 5.4-1 .3-5 .7-6.9-.1-.5-1-.5-3.4-.5-5.4 2.8 0 5.4 0 7.8.1m-16.5.4c-.4 1.1-.7 2.3-1.1 3.8-.2.9-.4 1.8-.5 2.5-.2.9-.7 1.1-1.5.7-2.3-1-3.4-4.8-3.3-7.1 1.5-.1 3.8-.2 6.5-.3 2.5-.1 5.3-.1 8.1-.1.3 2.8.3 6.2-.4 6.9-1.1.4-5.3.9-7.3-.1-1-.3-.6-3.7-.5-6.3zm17-.4c.3 1.2.7 2.5 1 4.1.2 1 .3 2 .5 2.7.2 1 .6 1.2 1.4.8 2-1 3.1-4.8 3.1-7.3-1.5-.2-3.6-.3-6-.3" transform="translate(-2757.47 -1681.47) scale(7.14596)"/><path class="st2" d="M428.6 281.8c2.4 0 4.8 0 7 .1.4 1.3.4 3.6-1.2 4.1-1.6.2-4 .2-5.4-.3-.3-.8-.4-2.4-.4-3.9m-8.9.1c2.2-.1 4.7-.1 7.2-.1.3 1.8.7 5.5-1.6 5.7-1.7.2-3.8.2-5.1-.4-.7-.3-.6-2.9-.5-5.2zm-6.3.3c1.1-.1 2.5-.2 4.2-.2.2 0 .6 5.1.6 5.1-.2.9-.7 1.1-1.5.7-1.8-.8-2.9-3.3-3.3-5.6zm24.8 5c.2 1 .6 1.2 1.4.8 1.6-.8 2.7-3.5 3-5.8-1-.1-2.2-.2-3.5-.2-.8.6-1 4.8-.9 5.2" transform="translate(-2757.47 -1681.47) scale(7.14596)"/><path class="st9" d="M424.2 281.9c.1 2 0 4-.3 4.1-.5.3-2.4.7-3.3-.1-.4-.3-.3-2.2-.3-4h3.9zm8.6-.1c.1 1.5-.1 2.9-.3 3-.5.3-2.3.6-3.2-.1-.3-.2-.3-1.6-.3-3l3.8.1zm-16.2.3c-.1.6-.1 1.2-.1 1.9v2c0 .8-.2.9-.6.6-.8-.6-1.5-2.6-1.8-4.4.7 0 1.6-.1 2.5-.1m25.4 0c-.7-.1-1.4-.1-2.3-.1 0 .6.1 1.2.1 1.8v2.2c0 .8.2 1 .6.6.7-.6 1.3-2.5 1.6-4.5" transform="translate(-2757.47 -1681.47) scale(7.14596)"/><path class="st7" d="M408.1 305.9c-.6 2.6-3.1 4.3-5.7 4.1-3.5-.2-9-4-8.9-7.9.1-2.2 1.6-4.1 3.3-5.3 1.6-1.2 4.3-2.5 6.3-1.9 2 .6 3.5 3.4 4.1 5.2.7 1.6 1.3 4.1.9 5.8z" transform="translate(-2757.47 -1681.47) scale(7.14596)"/><path class="st4" d="M407.2 305.6c.1-.3.1-.6.1-1-.7-2.8-2.3-6-4-6.6-2.8-.8-8.3 2.9-8 6.7 1.5 2.4 4.8 4.3 7.2 4.4 2.1.2 4.3-1.3 4.7-3.5z" transform="translate(-2757.47 -1681.47) scale(7.14596)"/><path class="st15" d="M404.7 302.8c.7-1.4-.5-3.9-2.3-3.7-1.9.3-6 3.1-6 5.3 0 1.4 1.9 2.4 3.9 1.8 1.5-.5 3.8-2.3 4.4-3.4m1.6 3.5c.4-.9-.2-2.4-1.2-2.3-1.1.2-3.6 2-3.5 3.1.1.8 1.5 1.5 2.6 1.1.8-.2 1.8-1.1 2.1-1.9" transform="translate(-2757.47 -1681.47) scale(7.14596)"/><path class="st16" d="M401.9 296.1c.1.9-1.7 1.7-2.5 1.1-.6-1.2-.5-2.6.1-2.9.5-.3 1.9.2 2.4 1.8m-3.5 1.7c.2 1-1.2 1.9-1.8 1.4-.9-.9-1.2-2.4-.8-2.8.4-.3 1.9.3 2.6 1.4m-2.6 2.6c.3.7-.4 1.6-1.1 1.5-.8-.6-1.6-2-1.3-2.4.3-.4 1.7 0 2.4.9m13.1-9.6c.4-.8-.7-1.3-1.6-1.6-.9-.3-1.4-.3-1.7.5-.4.8-.6 1.9.4 2.3.8.2 2.5-.4 2.9-1.2z" transform="translate(-2757.47 -1681.47) scale(7.14596)"/><path class="st16" d="M409.7 288c.1.9-1.1 1.3-2.2 1.5-1 .2-1.4.1-1.5-.8-.1-.9.2-2.3 1.2-2.5 1-.1 2.4.9 2.5 1.8" transform="translate(-2757.47 -1681.47) scale(7.14596)"/><path class="st16" d="M409.9 285.1c.1.8-1.1 1.2-2.1 1.4-1 .2-1.4.1-1.5-.8-.1-.8.2-2.1 1.1-2.3 1-.2 2.4.8 2.5 1.7zm-8-1.9c.2.7 1.4.5 2.4.3 1-.3 1.3-.5 1.1-1.1-.2-.7-.8-1.6-1.7-1.3-1 .2-2 1.4-1.8 2.1z" transform="translate(-2757.47 -1681.47) scale(7.14596)"/><path class="st7" d="M401 291.3l.3.9-.7-.5c-.3-.3-.6-.6-.8-1 .1.4.1.7.2 1-1-1.6-1.8-3.3-1.3-5.6.5-2.1 2.6-3.1 4.1-3.5.9-.3 1.9-.4 2.9-.3.6.1 1.5.2 1.9.7.4.5.6 1.6.7 2.3.2 1.1.1 2.3-.1 3.4-.2 1-.5 2-1 2.8-.4.6-.9 1.1-1.5 1.3-.7.3-1.4.4-2.2.2-.8-.1-1.7-.7-2.5-1.7z" transform="translate(-2757.47 -1681.47) scale(7.14596)"/><path class="st5" d="M407.2 283.7c.6.7.9 3.7.2 5.9-.2.1-.5.1-.7.1-1.1.1-2.2-.4-2.9-1 .1.3.2.5.3.7-.6-.3-1.1-1-1.5-1.9.1.7.2 1 .3 1.4-.8-.3-1.4-1.1-1.8-2-.4-.8-.4-2 .4-2.5 1.7-1.4 4.9-1.5 5.7-.7z" transform="translate(-2757.47 -1681.47) scale(7.14596)"/><path class="st7" d="M448.4 305.9c.6 2.6 3.1 4.3 5.7 4.1 3.5-.2 9-4 8.9-7.9 0-2.2-1.6-4.1-3.3-5.3-1.6-1.2-4.3-2.5-6.3-1.9-2 .6-3.5 3.4-4.1 5.2-.6 1.6-1.2 4.1-.9 5.8z" transform="translate(-2757.47 -1681.47) scale(7.14596)"/><path class="st4" d="M449.3 305.6c-.1-.3-.1-.6-.1-1 .7-2.8 2.3-6 4-6.6 2.8-.8 8.3 2.9 8 6.7-1.5 2.4-4.8 4.3-7.2 4.4-2.1.2-4.3-1.3-4.7-3.5z" transform="translate(-2757.47 -1681.47) scale(7.14596)"/><path class="st15" d="M451.9 302.8c-.7-1.4.5-3.9 2.3-3.7 1.9.3 6 3.1 6 5.3 0 1.4-1.9 2.4-3.9 1.8-1.6-.5-3.9-2.3-4.4-3.4m-1.6 3.5c-.4-.9.2-2.4 1.2-2.3 1.1.2 3.6 2 3.5 3.1-.1.8-1.5 1.5-2.6 1.1-.8-.2-1.8-1.1-2.1-1.9" transform="translate(-2757.47 -1681.47) scale(7.14596)"/><path class="st16" d="M454.6 296.1c-.1.9 1.7 1.7 2.5 1.1.6-1.2.5-2.6-.1-2.9-.5-.3-1.9.2-2.4 1.8m3.5 1.7c-.2 1 1.2 1.9 1.8 1.4.9-.9 1.2-2.4.8-2.8-.4-.3-1.9.3-2.6 1.4m2.6 2.6c-.3.7.4 1.6 1.1 1.5.8-.6 1.6-2 1.3-2.4-.3-.4-1.7 0-2.4.9m-13.1-9.6c-.4-.8.7-1.3 1.6-1.6.9-.3 1.4-.3 1.7.5.4.8.6 1.9-.4 2.3-.8.2-2.5-.4-2.9-1.2z" transform="translate(-2757.47 -1681.47) scale(7.14596)"/><path class="st16" d="M446.8 288c-.1.9 1.1 1.3 2.2 1.5 1 .2 1.4.1 1.5-.8.1-.9-.2-2.3-1.2-2.5-1-.1-2.4.9-2.5 1.8" transform="translate(-2757.47 -1681.47) scale(7.14596)"/><path class="st16" d="M446.6 285.1c-.1.8 1.1 1.2 2.1 1.4 1 .2 1.4.1 1.5-.8.1-.8-.2-2.1-1.1-2.3-1-.2-2.4.8-2.5 1.7zm8.1-1.9c-.2.7-1.4.5-2.4.3-1-.3-1.3-.5-1.1-1.1.2-.7.8-1.6 1.7-1.3 1 .2 1.9 1.4 1.8 2.1z" transform="translate(-2757.47 -1681.47) scale(7.14596)"/><path class="st7" d="M455.5 291.3l-.3.9.7-.5c.3-.3.6-.6.8-1-.1.4-.1.7-.2 1 1-1.6 1.8-3.3 1.3-5.6-.5-2.1-2.6-3.1-4.1-3.5-.9-.3-1.9-.4-2.9-.3-.6.1-1.5.2-1.9.7-.4.5-.6 1.6-.7 2.3-.2 1.1-.1 2.3.1 3.4.2 1 .5 2 1 2.8.4.6.9 1.1 1.5 1.3.7.3 1.4.4 2.2.2.8-.1 1.7-.7 2.5-1.7z" transform="translate(-2757.47 -1681.47) scale(7.14596)"/><path class="st5" d="M449.3 283.7c-.6.7-.9 3.7-.2 5.9.2.1.5.1.7.1 1.1.1 2.2-.4 2.9-1-.1.3-.2.5-.3.7.6-.3 1.1-1 1.5-1.9-.1.7-.2 1-.3 1.4.8-.3 1.4-1.1 1.8-2 .4-.8.4-2-.4-2.5-1.7-1.4-4.9-1.5-5.7-.7z" transform="translate(-2757.47 -1681.47) scale(7.14596)"/></g></g></svg>