<?xml version="1.0" encoding="utf-8"?>
<!-- Generator: Adobe Illustrator 23.0.6, SVG Export Plug-In . SVG Version: 6.00 Build 0)  -->
<svg version="1.1" id="Layer_1" xmlns="http://www.w3.org/2000/svg" xmlns:xlink="http://www.w3.org/1999/xlink" x="0px" y="0px"
	 viewBox="0 0 500 419.1" style="enable-background:new 0 0 500 419.1;" xml:space="preserve">
<style type="text/css">
	.st0{fill:#999966;}
	.st1{fill:#C0C0A0;}
	.st2{fill:#FBFAC4;}
	.st3{fill:#8ED41E;}
	.st4{fill:#70A91B;}
	.st5{fill:#A1E141;}
	.st6{fill:#4B7113;}
	.st7{fill:#85C51F;}
	.st8{fill:#D3E8EF;}
	.st9{fill:#FFFFFF;}
	.st10{fill:#0D82DF;}
	.st11{fill:#0399ED;}
	.st12{fill:#232323;}
	.st13{fill:#323232;}
	.st14{fill:#9CAEB3;}
	.st15{fill:#5D8D17;}
	.st16{fill:#2C440C;}
</style>
<g transform="matrix(1,0,0,1,-53.008,-114.933)">
	<g id="Mascot" transform="matrix(7.14596,0,0,7.14596,-2757.47,-1681.47)">
		<path class="st0" d="M452.3,269.9c0.5-0.3,0.6-2.2,0.7-2.8c0.2-1.3,1.7-1.8,2.8-1.2c1.8,1.3,2.7,3.7,3,5.8c0.3,2.2,0.1,5-1.5,6.7
			c-1.6,1.8-5.8,2.4-8.2,2.2c-0.7-0.1-1.3-0.2-1.9-0.3l-1.2-10.6l1.3,0.3C448.4,270.3,451,270.5,452.3,269.9L452.3,269.9z"/>
		<path class="st1" d="M456.3,267.8c-0.3-0.4-0.7-0.8-1.1-1.1c-0.4-0.3-1.2-0.1-1.2,0.5l-0.1,0.4
			C454.7,267.3,455.6,267.5,456.3,267.8 M457.7,275c0.3-1.6,0.2-3.5-0.4-5.2c-0.4-0.5-0.8-0.9-1.6-1.2c-1-0.4-1.5-0.3-1.9,0.2
			c-0.1,0.4-0.2,0.7-0.3,1C456.2,270.7,457.3,273.3,457.7,275L457.7,275L457.7,275z M449.9,271.3c-0.9,0-1.9-0.1-2.9-0.3l0.9,8.5
			c1.2,0.3,2.7,0.3,3.9,0.1C452.8,276.3,451.9,272.4,449.9,271.3L449.9,271.3z M452.8,270.7c-0.4,0.2-0.9,0.4-1.5,0.5
			c1.8,1.9,2.4,5.5,1.7,8.2c1.5-0.3,2.8-0.9,3.5-1.6c0.2-0.2,0.3-0.4,0.4-0.5c0-2.9-1.2-6-4-6.7
			C452.9,270.7,452.9,270.7,452.8,270.7L452.8,270.7z"/>
		<path class="st2" d="M452.3,276.2c-1.2,0.3-2.6,0.4-3.5,0.3c-0.4-0.1-0.8-0.1-1.1-0.2L447,271c1,0.2,1.9,0.3,2.9,0.3
			C451.2,272.1,452.1,274.1,452.3,276.2L452.3,276.2z M456,268.8c0,0.3,0.1,0.6,0.2,0.9c0.1,0.6,0.1,1.3,0.1,2
			c-0.7-0.8-1.5-1.5-2.7-1.9c0.1-0.3,0.2-0.6,0.3-1c0.4-0.4,1-0.6,1.9-0.2C455.8,268.7,455.9,268.7,456,268.8 M455.2,266.8
			c0.2,0.3,0.3,0.5,0.4,0.8c-0.6-0.2-1.1-0.2-1.7-0.1l0.1-0.4c0.1-0.5,0.8-0.8,1.2-0.5L455.2,266.8L455.2,266.8L455.2,266.8z
			 M452.8,270.7c-0.4,0.2-0.9,0.4-1.5,0.5c1.1,1.2,1.7,2.9,1.9,4.8c0.7-0.3,1.4-0.6,1.8-1.1c0.4-0.4-0.7-3.8-2.2-4.1
			C452.8,270.7,452.8,270.7,452.8,270.7"/>
		<path class="st0" d="M404.2,269.9c-0.5-0.3-0.6-2.2-0.7-2.8c-0.2-1.3-1.7-1.8-2.8-1.2c-1.8,1.3-2.7,3.7-3,5.8
			c-0.3,2.2-0.1,5,1.5,6.7c1.6,1.8,5.8,2.4,8.2,2.2c0.7-0.1,1.3-0.2,1.9-0.3l1.2-10.6l-1.3,0.3C408.1,270.3,405.5,270.5,404.2,269.9
			L404.2,269.9z"/>
		<path class="st1" d="M400.2,267.8c0.3-0.4,0.7-0.8,1.1-1.1c0.4-0.3,1.2-0.1,1.2,0.5l0,0.4C401.8,267.3,400.9,267.5,400.2,267.8
			 M398.8,275c-0.3-1.6-0.2-3.5,0.4-5.2c0.4-0.5,0.8-0.9,1.6-1.2c1-0.4,1.5-0.3,1.9,0.2c0.1,0.4,0.2,0.7,0.3,1
			C400.3,270.7,399.2,273.3,398.8,275L398.8,275L398.8,275z M406.6,271.3c0.9,0,1.9-0.1,2.9-0.3l-0.9,8.5c-1.2,0.3-2.7,0.3-3.9,0.1
			C403.7,276.3,404.6,272.4,406.6,271.3L406.6,271.3z M403.7,270.7c0.4,0.2,0.9,0.4,1.5,0.5c-1.8,1.9-2.4,5.5-1.7,8.2
			c-1.5-0.3-2.8-0.9-3.5-1.6c-0.2-0.2-0.3-0.4-0.4-0.5c0-2.9,1.2-6,4-6.7C403.6,270.7,403.6,270.7,403.7,270.7L403.7,270.7z"/>
		<path class="st2" d="M404.2,276.2c1.2,0.3,2.6,0.4,3.5,0.3c0.4-0.1,0.8-0.1,1.1-0.2l0.6-5.3c-1,0.2-1.9,0.3-2.9,0.3
			C405.3,272.1,404.4,274.1,404.2,276.2L404.2,276.2z M400.5,268.8c-0.1,0.3-0.1,0.6-0.2,0.9c-0.1,0.6-0.1,1.3-0.1,2
			c0.7-0.8,1.5-1.5,2.7-1.9c-0.1-0.3-0.2-0.6-0.3-1c-0.4-0.4-1-0.6-1.9-0.2C400.7,268.7,400.6,268.7,400.5,268.8 M401.3,266.8
			c-0.2,0.3-0.3,0.5-0.4,0.8c0.6-0.2,1.1-0.2,1.7-0.1l-0.1-0.4c0-0.5-0.8-0.8-1.2-0.5L401.3,266.8L401.3,266.8L401.3,266.8z
			 M403.7,270.7c0.4,0.2,0.9,0.4,1.5,0.5c-1.1,1.2-1.7,2.9-1.9,4.8c-0.7-0.3-1.4-0.6-1.8-1.1c-0.4-0.4,0.7-3.8,2.2-4.1
			C403.7,270.7,403.7,270.7,403.7,270.7"/>
		<path class="st3" d="M409.9,267.8c-1.8-0.2-3.5,0.2-5.3,0.5l1.5-1.5c1.5-1.4,3.5-2.7,5.4-3.6c2.8-1.4,6-2.5,9.3-2.8
			c-2.3-1-4.8-1.4-7.2-2c9.3-1.9,21.2-2.7,29.7,4.6c4.9,4.1,7.5,11.8,7.5,18.8c0,26.3-44.8,26.3-44.8,0c0-3.5,0.9-6.9,2.5-10
			c-0.6,0.2-1.2,0.4-1.8,0.6l-2.7,1.1l1.9-2.2c1.2-1.3,2.5-2.5,4-3.3L409.9,267.8z"/>
		<path class="st4" d="M430,259.7c4.4,0.5,8.6,1.9,12.1,5c4.3,3.6,6.6,10.4,6.6,16.5c0,11.2-9.2,17-18.7,17.3L430,259.7L430,259.7z"
			/>
		<path class="st5" d="M413.5,265.4c3.4-2.3,8.9-3,15.6-2.6c-1.2-1.4-2.3-2.3-3.8-3c3-0.1,5.4,0.6,11.4,2.6
			c-5.2-3-11.5-4.4-17.5-3.7c2.2,0.6,4.2,1.6,6.1,2.9c-6.1-0.7-13.1,2.3-15.9,4.7c1.8-0.2,3.5,0.2,5.2,0.9c-2.5,0.9-4,1.6-5.6,3.1
			c2.7-1.3,4.8-2.5,8.1-3.2C415.8,266.6,415.1,265.8,413.5,265.4"/>
		<path class="st4" d="M428.4,259.2c6.1,0,11.1,4.8,11.1,10.8c0,5.9-5,10.8-11.1,10.8c-6.1,0-11.1-4.8-11.1-10.8
			C417.2,264.1,422.2,259.2,428.4,259.2"/>
		<path class="st4" d="M410.7,280.1c0.4-0.7,34.1-0.9,34.7,0c1.2,1.5,0.5,3,0,4.3h-34.7C410.4,283,409.9,281.6,410.7,280.1"/>
		<path class="st6" d="M411.2,281.1c0.4-0.9,33.2-1.2,33.9,0c1.1,2.1,0.5,4.1,0,5.9h-33.9C410.9,285.1,410.4,283.1,411.2,281.1"/>
		<path class="st4" d="M438.5,258.8c-0.5-8.8-12.2-9.7-15.3-2.8C428.6,253,434.1,254,438.5,258.8"/>
		<path class="st7" d="M431.9,251.5c-3.4-0.5-7.2,1-8.7,4.4c2-1.1,4.1-1.6,6.1-1.6C429.8,253.5,430.8,252,431.9,251.5L431.9,251.5z"
			/>
		<path class="st8" d="M428.4,258.1c5.5,0,10,4.5,10,10c0,5.5-4.5,10-10,10c-5.5,0-10-4.5-10-10
			C418.4,262.6,422.8,258.1,428.4,258.1"/>
		<path class="st9" d="M422.1,260.7c3.3-2.8,8-2.8,10.3,0.1c2.4,2.8,1.5,7.4-1.8,10.2c-3.3,2.8-8,2.8-10.3-0.1
			C417.9,268,418.7,263.5,422.1,260.7"/>
		<path class="st10" d="M428.6,264.7c3.9,0,7,2.9,7,6.6c0,3.6-3.1,6.6-7,6.6c-3.9,0-7-2.9-7-6.6
			C421.6,267.6,424.7,264.7,428.6,264.7"/>
		<path class="st11" d="M428.6,264.7c1.9,0,3.6,0.7,4.9,1.8c-0.5,1.6-1.4,3.2-2.9,4.4c-2.8,2.3-6.5,2.7-9,1.1
			c-0.1-0.3-0.1-0.5-0.1-0.8C421.6,267.6,424.7,264.7,428.6,264.7"/>
		<path class="st12" d="M428.6,267.1c2.5,0,4.5,1.9,4.5,4.2c0,2.3-2,4.2-4.5,4.2c-2.5,0-4.5-1.9-4.5-4.2
			C424.1,269,426.1,267.1,428.6,267.1"/>
		<path class="st13" d="M428.6,267.1c1.6,0,3,0.8,3.8,1.9c-0.5,0.7-1.1,1.4-1.8,1.9c-1.8,1.5-4.1,2.2-6.1,2
			c-0.3-0.5-0.4-1.1-0.4-1.7C424.1,268.9,426.1,267,428.6,267.1L428.6,267.1z"/>
		<path class="st9" d="M424.7,265.1c1.8,0,3.3,1.4,3.3,3.1c0,1.7-1.5,3.1-3.3,3.1c-1.8,0-3.3-1.4-3.3-3.1
			C421.3,266.4,422.8,265.1,424.7,265.1"/>
		<path class="st14" d="M405,283.6c15.5-2.3,31-2.1,46.5,0c1.1,8.1,0.5,15.8,0,23.5c-15.5,0.6-31,0.7-46.5,0
			C404.1,299.2,404,291.4,405,283.6"/>
		<path class="st8" d="M409.5,305.5c12.6,0.5,25,0.4,37.6,0c-4.5-2.6-9-5-14.1-6.4c-1.6,0.8-3.4,1.4-5.1,1.9c-0.3,0.1-0.3,0.1-0.5,0
			c-1.4-0.5-2.9-1-4.3-1.6C418.2,300.8,413.8,302.9,409.5,305.5L409.5,305.5z M406.5,286.2c-0.7,6.2-0.6,12.4,0.1,18.6
			c4.5-2.8,9.3-5.1,14.4-6.7C415.2,295.1,411.1,290.7,406.5,286.2 M448.7,285c-13.7-1.6-27.4-1.8-41.1,0
			c5.6,6.3,11.8,11.5,20.1,14.2C436.5,296.7,442.5,291.2,448.7,285 M449.9,304.9c0.4-6.2,0.8-12.4,0.2-18.6
			c-4.6,4.6-9.5,8.9-15.3,11.9C440.1,299.8,445.1,302.1,449.9,304.9L449.9,304.9L449.9,304.9z"/>
		<path class="st9" d="M409.5,305.5c6,0.2,12.1,0.3,18.2,0.3V301c-0.1,0-0.1,0-0.3-0.1c-1.4-0.5-2.9-1-4.3-1.6
			C418.3,300.7,413.8,302.8,409.5,305.5 M406.5,286.2c-0.7,6.2-0.6,12.4,0.1,18.6c4.5-2.8,9.3-5.1,14.4-6.7
			C415.2,295.1,411.1,290.7,406.5,286.2 M427.7,283.7c-6.7,0-13.4,0.4-20,1.3c5.6,6.3,11.8,11.4,20,14.2V283.7z"/>
		<path class="st0" d="M419,287.4c-0.1,0.2-0.2,0.4-0.3,0.6c-0.1,0.3-0.3,0.6-0.6,0.8c-0.6,0.5-1.4,0.3-2.1,0.1
			c-1.5-0.6-2.5-2.1-3.1-3.5c-0.7-1.6-0.8-2.8-0.4-4.6c10.3-0.6,21-0.7,31-0.1v0.1h0.2c0.2,1.7,0,2.5-0.4,3.9
			c-0.5,1.6-1.4,3.6-3.1,4.4c-0.6,0.3-1.3,0.5-1.9,0.1c-0.3-0.2-0.5-0.5-0.6-0.8c-0.4-0.6-0.5-1.4-0.6-2c-0.2,0.4-0.5,0.7-0.9,0.8
			c-0.7,0.2-1.4,0.3-2.1,0.3c-0.7,0.1-1.4,0.1-2.1,0.1c-1.1,0-2.3-0.1-3.3-0.4c-0.2,0.6-0.4,1.2-1,1.4c-0.7,0.2-1.5,0.3-2.2,0.4
			c-0.8,0.1-1.5,0.1-2.3,0.1c-1.2,0-2.5-0.1-3.6-0.6C419.4,288.2,419.1,287.9,419,287.4L419,287.4L419,287.4z"/>
		<path class="st1" d="M436.3,280.4c0.4,2.3,0.3,5.3-0.4,5.4c-1,0.3-5,0.7-6.9-0.1c-0.5-1-0.5-3.4-0.5-5.4
			C431.3,280.3,433.9,280.3,436.3,280.4 M419.8,280.8c-0.4,1.1-0.7,2.3-1.1,3.8c-0.2,0.9-0.4,1.8-0.5,2.5c-0.2,0.9-0.7,1.1-1.5,0.7
			c-2.3-1-3.4-4.8-3.3-7.1c1.5-0.1,3.8-0.2,6.5-0.3c2.5-0.1,5.3-0.1,8.1-0.1c0.3,2.8,0.3,6.2-0.4,6.9c-1.1,0.4-5.3,0.9-7.3-0.1
			C419.3,286.8,419.7,283.4,419.8,280.8L419.8,280.8z M436.8,280.4c0.3,1.2,0.7,2.5,1,4.1c0.2,1,0.3,2,0.5,2.7
			c0.2,1,0.6,1.2,1.4,0.8c2-1,3.1-4.8,3.1-7.3C441.3,280.5,439.2,280.4,436.8,280.4"/>
		<path class="st2" d="M428.6,281.8c2.4,0,4.8,0,7,0.1c0.4,1.3,0.4,3.6-1.2,4.1c-1.6,0.2-4,0.2-5.4-0.3
			C428.7,284.9,428.6,283.3,428.6,281.8 M419.7,281.9c2.2-0.1,4.7-0.1,7.2-0.1c0.3,1.8,0.7,5.5-1.6,5.7c-1.7,0.2-3.8,0.2-5.1-0.4
			C419.5,286.8,419.6,284.2,419.7,281.9L419.7,281.9z M413.4,282.2c1.1-0.1,2.5-0.2,4.2-0.2c0.2,0,0.6,5.1,0.6,5.1
			c-0.2,0.9-0.7,1.1-1.5,0.7C414.9,287,413.8,284.5,413.4,282.2L413.4,282.2z M438.2,287.2c0.2,1,0.6,1.2,1.4,0.8
			c1.6-0.8,2.7-3.5,3-5.8c-1-0.1-2.2-0.2-3.5-0.2C438.3,282.6,438.1,286.8,438.2,287.2"/>
		<path class="st9" d="M424.2,281.9c0.1,2,0,4-0.3,4.1c-0.5,0.3-2.4,0.7-3.3-0.1c-0.4-0.3-0.3-2.2-0.3-4
			C421.6,281.9,422.9,281.9,424.2,281.9L424.2,281.9z M432.8,281.8c0.1,1.5-0.1,2.9-0.3,3c-0.5,0.3-2.3,0.6-3.2-0.1
			c-0.3-0.2-0.3-1.6-0.3-3L432.8,281.8L432.8,281.8L432.8,281.8z M416.6,282.1c-0.1,0.6-0.1,1.2-0.1,1.9v2c0,0.8-0.2,0.9-0.6,0.6
			c-0.8-0.6-1.5-2.6-1.8-4.4C414.8,282.2,415.7,282.1,416.6,282.1 M442,282.1c-0.7-0.1-1.4-0.1-2.3-0.1c0,0.6,0.1,1.2,0.1,1.8v2.2
			c0,0.8,0.2,1,0.6,0.6C441.1,286,441.7,284.1,442,282.1"/>
		<path class="st7" d="M408.1,305.9c-0.6,2.6-3.1,4.3-5.7,4.1c-3.5-0.2-9-4-8.9-7.9c0.1-2.2,1.6-4.1,3.3-5.3
			c1.6-1.2,4.3-2.5,6.3-1.9c2,0.6,3.5,3.4,4.1,5.2C407.9,301.7,408.5,304.2,408.1,305.9L408.1,305.9L408.1,305.9z"/>
		<path class="st4" d="M407.2,305.6c0.1-0.3,0.1-0.6,0.1-1c-0.7-2.8-2.3-6-4-6.6c-2.8-0.8-8.3,2.9-8,6.7c1.5,2.4,4.8,4.3,7.2,4.4
			C404.6,309.3,406.8,307.8,407.2,305.6L407.2,305.6L407.2,305.6z"/>
		<path class="st15" d="M404.7,302.8c0.7-1.4-0.5-3.9-2.3-3.7c-1.9,0.3-6,3.1-6,5.3c0,1.4,1.9,2.4,3.9,1.8
			C401.8,305.7,404.1,303.9,404.7,302.8 M406.3,306.3c0.4-0.9-0.2-2.4-1.2-2.3c-1.1,0.2-3.6,2-3.5,3.1c0.1,0.8,1.5,1.5,2.6,1.1
			C405,308,406,307.1,406.3,306.3"/>
		<path class="st16" d="M401.9,296.1c0.1,0.9-1.7,1.7-2.5,1.1c-0.6-1.2-0.5-2.6,0.1-2.9C400,294,401.4,294.5,401.9,296.1"/>
		<path class="st16" d="M398.4,297.8c0.2,1-1.2,1.9-1.8,1.4c-0.9-0.9-1.2-2.4-0.8-2.8C396.2,296.1,397.7,296.7,398.4,297.8"/>
		<path class="st16" d="M395.8,300.4c0.3,0.7-0.4,1.6-1.1,1.5c-0.8-0.6-1.6-2-1.3-2.4C393.7,299.1,395.1,299.5,395.8,300.4"/>
		<path class="st16" d="M408.9,290.8c0.4-0.8-0.7-1.3-1.6-1.6c-0.9-0.3-1.4-0.3-1.7,0.5c-0.4,0.8-0.6,1.9,0.4,2.3
			C406.8,292.2,408.5,291.6,408.9,290.8L408.9,290.8L408.9,290.8z"/>
		<path class="st16" d="M409.7,288c0.1,0.9-1.1,1.3-2.2,1.5c-1,0.2-1.4,0.1-1.5-0.8c-0.1-0.9,0.2-2.3,1.2-2.5
			C408.2,286.1,409.6,287.1,409.7,288"/>
		<path class="st16" d="M409.9,285.1c0.1,0.8-1.1,1.2-2.1,1.4c-1,0.2-1.4,0.1-1.5-0.8c-0.1-0.8,0.2-2.1,1.1-2.3
			C408.4,283.2,409.8,284.2,409.9,285.1L409.9,285.1z"/>
		<path class="st16" d="M401.9,283.2c0.2,0.7,1.4,0.5,2.4,0.3c1-0.3,1.3-0.5,1.1-1.1c-0.2-0.7-0.8-1.6-1.7-1.3
			C402.7,281.3,401.7,282.5,401.9,283.2L401.9,283.2z"/>
		<path class="st7" d="M401,291.3l0.3,0.9l-0.7-0.5c-0.3-0.3-0.6-0.6-0.8-1c0.1,0.4,0.1,0.7,0.2,1c-1-1.6-1.8-3.3-1.3-5.6
			c0.5-2.1,2.6-3.1,4.1-3.5c0.9-0.3,1.9-0.4,2.9-0.3c0.6,0.1,1.5,0.2,1.9,0.7c0.4,0.5,0.6,1.6,0.7,2.3c0.2,1.1,0.1,2.3-0.1,3.4
			c-0.2,1-0.5,2-1,2.8c-0.4,0.6-0.9,1.1-1.5,1.3c-0.7,0.3-1.4,0.4-2.2,0.2C402.7,292.9,401.8,292.3,401,291.3L401,291.3z"/>
		<path class="st5" d="M407.2,283.7c0.6,0.7,0.9,3.7,0.2,5.9c-0.2,0.1-0.5,0.1-0.7,0.1c-1.1,0.1-2.2-0.4-2.9-1
			c0.1,0.3,0.2,0.5,0.3,0.7c-0.6-0.3-1.1-1-1.5-1.9c0.1,0.7,0.2,1,0.3,1.4c-0.8-0.3-1.4-1.1-1.8-2c-0.4-0.8-0.4-2,0.4-2.5
			C403.2,283,406.4,282.9,407.2,283.7L407.2,283.7z"/>
		<path class="st7" d="M448.4,305.9c0.6,2.6,3.1,4.3,5.7,4.1c3.5-0.2,9-4,8.9-7.9c0-2.2-1.6-4.1-3.3-5.3c-1.6-1.2-4.3-2.5-6.3-1.9
			c-2,0.6-3.5,3.4-4.1,5.2C448.7,301.7,448.1,304.2,448.4,305.9L448.4,305.9L448.4,305.9z"/>
		<path class="st4" d="M449.3,305.6c-0.1-0.3-0.1-0.6-0.1-1c0.7-2.8,2.3-6,4-6.6c2.8-0.8,8.3,2.9,8,6.7c-1.5,2.4-4.8,4.3-7.2,4.4
			C451.9,309.3,449.7,307.8,449.3,305.6L449.3,305.6L449.3,305.6z"/>
		<path class="st15" d="M451.9,302.8c-0.7-1.4,0.5-3.9,2.3-3.7c1.9,0.3,6,3.1,6,5.3c0,1.4-1.9,2.4-3.9,1.8
			C454.7,305.7,452.4,303.9,451.9,302.8 M450.3,306.3c-0.4-0.9,0.2-2.4,1.2-2.3c1.1,0.2,3.6,2,3.5,3.1c-0.1,0.8-1.5,1.5-2.6,1.1
			C451.6,308,450.6,307.1,450.3,306.3"/>
		<path class="st16" d="M454.6,296.1c-0.1,0.9,1.7,1.7,2.5,1.1c0.6-1.2,0.5-2.6-0.1-2.9C456.5,294,455.1,294.5,454.6,296.1"/>
		<path class="st16" d="M458.1,297.8c-0.2,1,1.2,1.9,1.8,1.4c0.9-0.9,1.2-2.4,0.8-2.8C460.3,296.1,458.8,296.7,458.1,297.8"/>
		<path class="st16" d="M460.7,300.4c-0.3,0.7,0.4,1.6,1.1,1.5c0.8-0.6,1.6-2,1.3-2.4C462.8,299.1,461.4,299.5,460.7,300.4"/>
		<path class="st16" d="M447.6,290.8c-0.4-0.8,0.7-1.3,1.6-1.6c0.9-0.3,1.4-0.3,1.7,0.5c0.4,0.8,0.6,1.9-0.4,2.3
			C449.7,292.2,448,291.6,447.6,290.8L447.6,290.8L447.6,290.8z"/>
		<path class="st16" d="M446.8,288c-0.1,0.9,1.1,1.3,2.2,1.5c1,0.2,1.4,0.1,1.5-0.8c0.1-0.9-0.2-2.3-1.2-2.5
			C448.3,286.1,446.9,287.1,446.8,288"/>
		<path class="st16" d="M446.6,285.1c-0.1,0.8,1.1,1.2,2.1,1.4c1,0.2,1.4,0.1,1.5-0.8c0.1-0.8-0.2-2.1-1.1-2.3
			C448.1,283.2,446.7,284.2,446.6,285.1L446.6,285.1z"/>
		<path class="st16" d="M454.7,283.2c-0.2,0.7-1.4,0.5-2.4,0.3c-1-0.3-1.3-0.5-1.1-1.1c0.2-0.7,0.8-1.6,1.7-1.3
			C453.9,281.3,454.8,282.5,454.7,283.2L454.7,283.2z"/>
		<path class="st7" d="M455.5,291.3l-0.3,0.9l0.7-0.5c0.3-0.3,0.6-0.6,0.8-1c-0.1,0.4-0.1,0.7-0.2,1c1-1.6,1.8-3.3,1.3-5.6
			c-0.5-2.1-2.6-3.1-4.1-3.5c-0.9-0.3-1.9-0.4-2.9-0.3c-0.6,0.1-1.5,0.2-1.9,0.7c-0.4,0.5-0.6,1.6-0.7,2.3c-0.2,1.1-0.1,2.3,0.1,3.4
			c0.2,1,0.5,2,1,2.8c0.4,0.6,0.9,1.1,1.5,1.3c0.7,0.3,1.4,0.4,2.2,0.2C453.8,292.9,454.7,292.3,455.5,291.3L455.5,291.3z"/>
		<path class="st5" d="M449.3,283.7c-0.6,0.7-0.9,3.7-0.2,5.9c0.2,0.1,0.5,0.1,0.7,0.1c1.1,0.1,2.2-0.4,2.9-1
			c-0.1,0.3-0.2,0.5-0.3,0.7c0.6-0.3,1.1-1,1.5-1.9c-0.1,0.7-0.2,1-0.3,1.4c0.8-0.3,1.4-1.1,1.8-2c0.4-0.8,0.4-2-0.4-2.5
			C453.3,283,450.1,282.9,449.3,283.7L449.3,283.7z"/>
	</g>
</g>
</svg>
