<svg width="14" height="14" fill="none" xmlns="http://www.w3.org/2000/svg"><path d="M11.656 2.375a6.22 6.22 0 0 1 1.719 2.938 6.618 6.618 0 0 1 0 3.375c-.292 1.124-.865 2.114-1.719 2.968a6.335 6.335 0 0 1-2.937 1.688 6.62 6.62 0 0 1-3.375 0 6.54 6.54 0 0 1-2.969-1.688A6.54 6.54 0 0 1 .687 8.687a6.618 6.618 0 0 1 0-3.374 6.336 6.336 0 0 1 1.688-2.938C3.229 1.521 4.219.948 5.344.656a6.618 6.618 0 0 1 3.375 0 6.22 6.22 0 0 1 2.937 1.719ZM8.22 11.406V8.187h3.219V5.813h-3.22v-3.22H5.845v3.22h-3.22v2.375h3.219v3.218h2.375Z" fill="#2271B1"/></svg>