<?xml version="1.0" encoding="utf-8"?>
<!-- Generator: Adobe Illustrator 23.0.6, SVG Export Plug-In . SVG Version: 6.00 Build 0)  -->
<svg version="1.1" id="Layer_1" xmlns="http://www.w3.org/2000/svg" xmlns:xlink="http://www.w3.org/1999/xlink" x="0px" y="0px"
	 viewBox="0 0 63 67" style="enable-background:new 0 0 63 67;" xml:space="preserve">
<style type="text/css">
	.st0{fill-rule:evenodd;clip-rule:evenodd;fill:#55AD55;}
</style>
<title>Group</title>
<desc>Created with Sketch.</desc>
<g id="Page-1">
	<g id="SeedProd-logos" transform="translate(-88.000000, -133.000000)">
		<g id="Group" transform="translate(88.130401, 133.616570)">
			<path id="Fill-1005" class="st0" d="M35.7,0.2c-0.7-0.3-1.4-0.2-2,0.1c-0.6,0.3-1.1,0.8-1.4,1.5c-0.3,0.7-0.2,1.4,0,2
				c0.3,0.6,0.7,1.1,1.4,1.4c0.7,0.3,1.4,0.2,2-0.1c0.6-0.3,1.1-0.8,1.4-1.5c0.3-0.7,0.2-1.4,0-2C36.9,0.9,36.4,0.4,35.7,0.2"/>
			<path id="Fill-1006" class="st0" d="M36.9,6.2c-0.4-0.2-0.9-0.1-1.3,0c-0.4,0.2-0.7,0.5-0.9,1c-0.2,0.5-0.2,0.9,0,1.3
				c0.2,0.4,0.5,0.7,0.9,0.9c0.4,0.2,0.9,0.1,1.3,0c0.4-0.2,0.7-0.5,0.9-1s0.2-0.9,0-1.3C37.7,6.7,37.4,6.4,36.9,6.2"/>
			<path id="Fill-1007" class="st0" d="M37.1,10.7c-0.4-0.1-0.8-0.1-1.1,0c-0.3,0.2-0.6,0.4-0.8,0.8c-0.2,0.4-0.1,0.8,0,1.1
				c0.1,0.3,0.4,0.6,0.8,0.8c0.4,0.1,0.8,0.1,1.1,0c0.3-0.2,0.6-0.4,0.8-0.8c0.2-0.4,0.1-0.8,0-1.1C37.7,11.2,37.4,10.9,37.1,10.7"
				/>
			<path id="Fill-1008" class="st0" d="M36.6,14.9c-0.3-0.1-0.6-0.1-0.8,0c-0.3,0.1-0.5,0.3-0.6,0.6c-0.1,0.3-0.1,0.6,0,0.9
				c0.1,0.3,0.3,0.5,0.6,0.6c0.3,0.1,0.6,0.1,0.8,0c0.3-0.1,0.5-0.3,0.6-0.6c0.1-0.3,0.1-0.6,0-0.9C37.1,15.2,36.9,15,36.6,14.9"/>
			<path id="Fill-1009" class="st0" d="M14.6,45.4c-0.9-0.4-1.9-0.3-2.7,0.1c-0.8,0.4-1.5,1.1-1.9,2c-0.4,0.9-0.3,1.9,0,2.8
				c0.4,0.9,1,1.5,1.9,1.9c0.9,0.4,1.9,0.3,2.7-0.1c0.8-0.4,1.5-1.1,1.9-2c0.4-0.9,0.3-1.9,0-2.8C16.2,46.4,15.6,45.7,14.6,45.4"/>
			<path id="Fill-1010" class="st0" d="M41,28.3c-0.8-0.3-1.7-0.3-2.5,0.1c-0.8,0.4-1.4,1-1.7,1.8c-0.3,0.9-0.3,1.8,0,2.5
				c0.3,0.8,0.9,1.4,1.8,1.7c0.8,0.3,1.7,0.3,2.5-0.1c0.8-0.3,1.4-1,1.7-1.8c0.3-0.9,0.3-1.8,0-2.5C42.5,29.3,41.9,28.6,41,28.3"/>
			<path id="Fill-1011" class="st0" d="M24.7,26.7c-0.6-0.2-1.3-0.2-1.9,0.1c-0.6,0.3-1.1,0.7-1.3,1.4c-0.3,0.6-0.2,1.3,0,1.9
				c0.2,0.6,0.7,1.1,1.3,1.3s1.3,0.2,1.9-0.1c0.6-0.3,1.1-0.7,1.3-1.4c0.3-0.6,0.2-1.3,0-1.9C25.7,27.4,25.3,26.9,24.7,26.7"/>
			<path id="Fill-1012" class="st0" d="M38.2,48.6c-0.5-0.2-1-0.2-1.5,0c-0.5,0.2-0.9,0.6-1.1,1.1c-0.2,0.5-0.2,1.1,0,1.5
				c0.2,0.5,0.6,0.9,1.1,1.1c0.5,0.2,1,0.2,1.5,0c0.5-0.2,0.9-0.6,1.1-1.1c0.2-0.5,0.2-1.1,0-1.5C39.1,49.2,38.7,48.8,38.2,48.6"/>
			<path id="Fill-1013" class="st0" d="M30.9,22.3c-0.9-0.3-1.8-0.3-2.6,0.1c-0.8,0.4-1.5,1-1.8,1.9c-0.4,0.9-0.3,1.8,0,2.7
				c0.3,0.8,1,1.5,1.8,1.8c0.9,0.3,1.8,0.3,2.6-0.1c0.8-0.4,1.5-1,1.8-1.9c0.4-0.9,0.3-1.8,0-2.7C32.4,23.3,31.8,22.7,30.9,22.3"/>
			<path id="Fill-1014" class="st0" d="M25.6,52.8c-0.8-0.3-1.7-0.3-2.4,0.1c-0.7,0.3-1.4,1-1.7,1.8c-0.3,0.8-0.3,1.7,0,2.5
				c0.3,0.8,0.9,1.4,1.7,1.7c0.8,0.3,1.7,0.3,2.4-0.1c0.7-0.3,1.4-1,1.7-1.8c0.3-0.8,0.3-1.7,0-2.5C27,53.7,26.4,53.1,25.6,52.8"/>
			<path id="Fill-1015" class="st0" d="M50.3,49.8c-0.9-0.4-1.9-0.3-2.8,0.1c-0.9,0.4-1.6,1.1-2,2.1c-0.4,1-0.3,2,0,2.9
				c0.4,0.9,1.1,1.6,2,2c0.9,0.4,1.9,0.3,2.8-0.1c0.9-0.4,1.6-1.1,2-2.1c0.4-1,0.3-2,0-2.9C51.9,50.9,51.3,50.2,50.3,49.8"/>
			<path id="Fill-1016" class="st0" d="M30.6,14c-0.5-0.2-1-0.2-1.4,0c-0.4,0.2-0.8,0.6-1,1.1c-0.2,0.5-0.2,1,0,1.5
				c0.2,0.4,0.5,0.8,1,1c0.5,0.2,1,0.2,1.4,0c0.4-0.2,0.8-0.6,1-1.1c0.2-0.5,0.2-1,0-1.5S31,14.2,30.6,14"/>
			<path id="Fill-1017" class="st0" d="M34.1,63.3c-0.2-0.1-0.5-0.1-0.7,0c-0.2,0.1-0.4,0.3-0.5,0.5c-0.1,0.2-0.1,0.5,0,0.7
				c0.1,0.2,0.3,0.4,0.5,0.5c0.2,0.1,0.5,0.1,0.7,0c0.2-0.1,0.4-0.3,0.5-0.5c0.1-0.2,0.1-0.5,0-0.7C34.5,63.6,34.3,63.4,34.1,63.3"
				/>
			<path id="Fill-1018" class="st0" d="M48.8,16.4c-0.5-0.2-1-0.2-1.5,0c-0.5,0.2-0.9,0.6-1.1,1.1s-0.2,1.1,0,1.5
				c0.2,0.5,0.6,0.9,1.1,1.1c0.5,0.2,1,0.2,1.5,0c0.5-0.2,0.9-0.6,1.1-1.1c0.2-0.5,0.2-1.1,0-1.5C49.7,17,49.4,16.6,48.8,16.4"/>
			<path id="Fill-1019" class="st0" d="M30.2,41.9c-0.5-0.2-1.1-0.2-1.6,0c-0.5,0.2-0.9,0.6-1.1,1.2c-0.2,0.5-0.2,1.1,0,1.6
				c0.2,0.5,0.6,0.9,1.1,1.1c0.5,0.2,1.1,0.2,1.6,0c0.5-0.2,0.9-0.6,1.1-1.2c0.2-0.5,0.2-1.1,0-1.6C31.1,42.5,30.7,42.1,30.2,41.9"
				/>
			<path id="Fill-1020" class="st0" d="M50.2,25.4c-0.5-0.2-1-0.2-1.5,0c-0.5,0.2-0.9,0.6-1.1,1.1c-0.2,0.5-0.2,1.1,0,1.5
				c0.2,0.5,0.6,0.9,1.1,1.1c0.5,0.2,1,0.2,1.5,0c0.5-0.2,0.9-0.6,1.1-1.1c0.2-0.5,0.2-1.1,0-1.5C51.1,26,50.7,25.6,50.2,25.4"/>
			<path id="Fill-1021" class="st0" d="M19.8,28.4c-0.4-0.2-0.9-0.1-1.3,0c-0.4,0.2-0.7,0.5-0.9,1c-0.2,0.4-0.2,0.9,0,1.3
				c0.2,0.4,0.5,0.7,0.9,0.9c0.4,0.2,0.9,0.1,1.3,0c0.4-0.2,0.7-0.5,0.9-1c0.2-0.4,0.2-0.9,0-1.3C20.5,28.9,20.2,28.5,19.8,28.4"/>
			<path id="Fill-1022" class="st0" d="M33,44.8c-0.3-0.1-0.6-0.1-0.9,0c-0.3,0.1-0.5,0.3-0.6,0.6c-0.1,0.3-0.1,0.6,0,0.9
				c0.1,0.3,0.3,0.5,0.6,0.6c0.3,0.1,0.6,0.1,0.9,0c0.3-0.1,0.5-0.3,0.6-0.6c0.1-0.3,0.1-0.6,0-0.9C33.5,45.1,33.3,44.9,33,44.8"/>
			<path id="Fill-1023" class="st0" d="M49.2,36.7c-0.3-0.1-0.5-0.1-0.8,0c-0.2,0.1-0.4,0.3-0.5,0.6c-0.1,0.3-0.1,0.6,0,0.8
				c0.1,0.2,0.3,0.4,0.6,0.6c0.3,0.1,0.5,0.1,0.8,0c0.2-0.1,0.4-0.3,0.6-0.6c0.1-0.3,0.1-0.6,0-0.8C49.7,37,49.5,36.8,49.2,36.7"/>
			<path id="Fill-1024" class="st0" d="M22.4,19.4c-0.3-0.1-0.7-0.1-0.9,0c-0.3,0.1-0.5,0.4-0.7,0.7c-0.1,0.3-0.1,0.7,0,1
				c0.1,0.3,0.4,0.5,0.7,0.7c0.3,0.1,0.7,0.1,0.9,0c0.3-0.1,0.5-0.4,0.7-0.7c0.1-0.3,0.1-0.7,0-1C22.9,19.8,22.7,19.5,22.4,19.4"/>
			<path id="Fill-1025" class="st0" d="M26.8,12.9c-0.4-0.2-0.8-0.1-1.2,0c-0.4,0.2-0.7,0.5-0.8,0.9s-0.1,0.8,0,1.2
				c0.2,0.4,0.4,0.7,0.8,0.8c0.4,0.2,0.8,0.1,1.2,0c0.4-0.2,0.7-0.5,0.8-0.9c0.2-0.4,0.1-0.8,0-1.2C27.5,13.3,27.2,13,26.8,12.9"/>
			<path id="Fill-1026" class="st0" d="M25.5,32.6c-0.7-0.3-1.5-0.2-2.2,0.1c-0.7,0.3-1.2,0.9-1.5,1.6c-0.3,0.7-0.3,1.5,0,2.2
				c0.3,0.7,0.8,1.2,1.5,1.5c0.7,0.3,1.5,0.2,2.2-0.1c0.7-0.3,1.2-0.9,1.5-1.6c0.3-0.7,0.3-1.5,0-2.2C26.7,33.5,26.2,32.9,25.5,32.6
				"/>
			<path id="Fill-1027" class="st0" d="M34.6,52c-0.7-0.3-1.4-0.2-2,0.1c-0.6,0.3-1.1,0.8-1.4,1.5c-0.3,0.7-0.2,1.4,0,2.1
				c0.3,0.6,0.8,1.2,1.4,1.4c0.7,0.3,1.4,0.2,2-0.1c0.6-0.3,1.1-0.8,1.4-1.5c0.3-0.7,0.3-1.4,0-2.1C35.8,52.8,35.3,52.3,34.6,52"/>
			<path id="Fill-1028" class="st0" d="M19.2,15.4c-0.7-0.3-1.4-0.2-2,0.1c-0.6,0.3-1.1,0.8-1.4,1.5c-0.3,0.7-0.2,1.4,0,2.1
				c0.3,0.6,0.8,1.1,1.4,1.4c0.7,0.3,1.4,0.2,2-0.1c0.6-0.3,1.1-0.8,1.4-1.5c0.3-0.7,0.2-1.4,0-2.1C20.4,16.2,19.9,15.7,19.2,15.4"
				/>
			<path id="Fill-1029" class="st0" d="M36.1,25.4c-0.5-0.2-1-0.2-1.5,0c-0.5,0.2-0.9,0.6-1.1,1.1c-0.2,0.5-0.2,1.1,0,1.5
				c0.2,0.5,0.6,0.9,1.1,1.1c0.5,0.2,1,0.2,1.5,0c0.5-0.2,0.9-0.6,1.1-1.1c0.2-0.5,0.2-1.1,0-1.5C37,26,36.6,25.6,36.1,25.4"/>
			<path id="Fill-1030" class="st0" d="M23.9,5.8c-0.6-0.2-1.3-0.2-1.9,0.1c-0.6,0.3-1.1,0.7-1.3,1.4c-0.3,0.6-0.2,1.3,0,1.9
				c0.2,0.6,0.7,1.1,1.3,1.3c0.6,0.2,1.3,0.2,1.9-0.1c0.6-0.3,1.1-0.7,1.3-1.4c0.3-0.7,0.2-1.3,0-1.9C25,6.5,24.6,6,23.9,5.8"/>
			<path id="Fill-1031" class="st0" d="M44.9,26.7c-0.4-0.1-0.8-0.1-1.1,0c-0.3,0.2-0.6,0.4-0.8,0.8c-0.2,0.4-0.1,0.8,0,1.2
				c0.1,0.4,0.4,0.6,0.8,0.8c0.4,0.1,0.8,0.1,1.1,0c0.3-0.2,0.6-0.4,0.8-0.8c0.2-0.4,0.1-0.8,0-1.2C45.6,27.1,45.3,26.8,44.9,26.7"
				/>
			<path id="Fill-1032" class="st0" d="M58.5,24.1c-0.7-0.3-1.4-0.2-2,0.1c-0.6,0.3-1.1,0.8-1.4,1.5c-0.3,0.7-0.2,1.4,0,2.1
				c0.3,0.6,0.8,1.2,1.4,1.4c0.7,0.3,1.4,0.2,2-0.1c0.6-0.3,1.1-0.8,1.4-1.5c0.3-0.7,0.2-1.4,0-2.1C59.7,24.9,59.2,24.4,58.5,24.1"
				/>
			<path id="Fill-1033" class="st0" d="M48.2,29.8c-0.9-0.3-1.8-0.3-2.6,0.1c-0.8,0.4-1.5,1-1.8,1.9c-0.4,0.9-0.3,1.8,0,2.7
				c0.3,0.8,1,1.5,1.8,1.8c0.9,0.3,1.8,0.3,2.6-0.1c0.8-0.4,1.5-1,1.8-1.9c0.4-0.9,0.3-1.8,0-2.7C49.7,30.8,49.1,30.1,48.2,29.8"/>
			<path id="Fill-1034" class="st0" d="M54.9,44.4c-0.8-0.3-1.6-0.3-2.3,0.1c-0.7,0.3-1.3,0.9-1.6,1.7c-0.3,0.8-0.3,1.6,0,2.3
				c0.3,0.7,0.9,1.3,1.6,1.6c0.8,0.3,1.6,0.3,2.3-0.1c0.7-0.3,1.3-0.9,1.6-1.7c0.3-0.8,0.3-1.6,0-2.3C56.3,45.3,55.7,44.7,54.9,44.4
				"/>
			<path id="Fill-1035" class="st0" d="M7.7,49.7c-0.5-0.2-1.1-0.2-1.6,0c-0.5,0.2-0.9,0.6-1.1,1.2c-0.2,0.5-0.2,1.1,0,1.6
				c0.2,0.5,0.6,0.9,1.1,1.1c0.5,0.2,1.1,0.2,1.6,0c0.5-0.2,0.9-0.6,1.1-1.2c0.2-0.5,0.2-1.1,0-1.6C8.6,50.3,8.2,49.9,7.7,49.7"/>
			<path id="Fill-1036" class="st0" d="M31.5,18.6c-0.4-0.1-0.8-0.1-1.1,0c-0.3,0.2-0.6,0.4-0.8,0.8c-0.2,0.4-0.1,0.8,0,1.2
				c0.1,0.4,0.4,0.6,0.8,0.8c0.4,0.1,0.8,0.1,1.1,0c0.3-0.2,0.6-0.4,0.8-0.8c0.2-0.4,0.1-0.8,0-1.2C32.2,19.1,31.9,18.8,31.5,18.6"
				/>
			<path id="Fill-1037" class="st0" d="M26.3,59.7c-0.4-0.1-0.8-0.1-1.1,0c-0.3,0.2-0.6,0.4-0.8,0.8c-0.2,0.4-0.1,0.8,0,1.2
				c0.1,0.4,0.4,0.6,0.8,0.8c0.4,0.1,0.8,0.1,1.1,0c0.3-0.2,0.6-0.4,0.8-0.8c0.2-0.4,0.1-0.8,0-1.2C27,60.2,26.7,59.9,26.3,59.7"/>
			<path id="Fill-1038" class="st0" d="M6.8,41.7c-1-0.4-2-0.3-2.8,0.1c-0.9,0.4-1.6,1.1-2,2.1c-0.4,1-0.4,2,0,2.9
				c0.4,0.9,1.1,1.6,2,2c1,0.4,2,0.3,2.8-0.1c0.9-0.4,1.6-1.1,2-2.1c0.4-1,0.4-2,0-2.9C8.4,42.8,7.7,42.1,6.8,41.7"/>
			<path id="Fill-1039" class="st0" d="M49.3,45.4c-0.4-0.2-0.9-0.1-1.3,0c-0.4,0.2-0.7,0.5-0.9,1c-0.2,0.4-0.2,0.9,0,1.3
				c0.2,0.4,0.5,0.7,0.9,0.9c0.4,0.2,0.9,0.1,1.3,0c0.4-0.2,0.7-0.5,0.9-1c0.2-0.4,0.2-0.9,0-1.3C50.1,45.9,49.7,45.6,49.3,45.4"/>
			<path id="Fill-1040" class="st0" d="M19.5,21.8c-0.8-0.3-1.5-0.2-2.2,0.1c-0.7,0.3-1.3,0.9-1.6,1.7c-0.3,0.8-0.3,1.6,0,2.3
				c0.3,0.7,0.8,1.3,1.6,1.6c0.8,0.3,1.5,0.2,2.2-0.1c0.7-0.3,1.3-0.9,1.6-1.7c0.3-0.8,0.3-1.6,0-2.3C20.8,22.7,20.2,22.1,19.5,21.8
				"/>
			<path id="Fill-1041" class="st0" d="M44.9,16.9c-0.3-0.1-0.5-0.1-0.8,0c-0.2,0.1-0.4,0.3-0.5,0.6c-0.1,0.3-0.1,0.5,0,0.8
				c0.1,0.2,0.3,0.4,0.5,0.5c0.3,0.1,0.5,0.1,0.8,0c0.2-0.1,0.4-0.3,0.5-0.6c0.1-0.3,0.1-0.5,0-0.8C45.4,17.2,45.2,17,44.9,16.9"/>
			<path id="Fill-1042" class="st0" d="M19.2,47c-0.3-0.1-0.5-0.1-0.8,0c-0.2,0.1-0.4,0.3-0.5,0.6c-0.1,0.3-0.1,0.5,0,0.8
				c0.1,0.2,0.3,0.4,0.5,0.5c0.3,0.1,0.5,0.1,0.8,0c0.2-0.1,0.4-0.3,0.5-0.6c0.1-0.3,0.1-0.5,0-0.8C19.6,47.3,19.4,47.1,19.2,47"/>
			<path id="Fill-1043" class="st0" d="M34.5,47.6c-0.3-0.1-0.5-0.1-0.8,0c-0.2,0.1-0.4,0.3-0.5,0.6c-0.1,0.3-0.1,0.5,0,0.8
				c0.1,0.2,0.3,0.4,0.6,0.5c0.3,0.1,0.5,0.1,0.8,0c0.2-0.1,0.4-0.3,0.5-0.6c0.1-0.3,0.1-0.5,0-0.8C35,47.9,34.8,47.7,34.5,47.6"/>
			<path id="Fill-1044" class="st0" d="M18.4,40.2c-0.7-0.3-1.4-0.2-2,0.1c-0.6,0.3-1.2,0.8-1.4,1.5c-0.3,0.7-0.2,1.5,0,2.1
				c0.3,0.6,0.8,1.2,1.5,1.4c0.7,0.3,1.4,0.2,2-0.1c0.6-0.3,1.2-0.8,1.4-1.5c0.3-0.7,0.3-1.5,0-2.1C19.6,41,19.1,40.5,18.4,40.2"/>
			<path id="Fill-1045" class="st0" d="M20.4,5.1C20.2,5,20,5,19.8,5.1c-0.2,0.1-0.3,0.2-0.4,0.4c-0.1,0.2-0.1,0.4,0,0.5
				c0.1,0.2,0.2,0.3,0.4,0.4c0.2,0.1,0.4,0.1,0.5,0c0.2-0.1,0.3-0.2,0.4-0.4c0.1-0.2,0.1-0.4,0-0.5C20.7,5.3,20.5,5.1,20.4,5.1"/>
			<path id="Fill-1046" class="st0" d="M57.2,21.5c-0.2-0.1-0.4-0.1-0.6,0c-0.2,0.1-0.3,0.2-0.4,0.4c-0.1,0.2-0.1,0.4,0,0.6
				c0.1,0.2,0.2,0.3,0.4,0.4c0.2,0.1,0.4,0.1,0.6,0c0.2-0.1,0.3-0.2,0.4-0.4c0.1-0.2,0.1-0.4,0-0.6C57.6,21.7,57.4,21.5,57.2,21.5"
				/>
			<path id="Fill-1047" class="st0" d="M37.5,55.9c-0.2-0.1-0.4-0.1-0.5,0c-0.2,0.1-0.3,0.2-0.4,0.4c-0.1,0.2-0.1,0.4,0,0.5
				c0.1,0.2,0.2,0.3,0.4,0.4c0.2,0.1,0.4,0.1,0.5,0c0.2-0.1,0.3-0.2,0.4-0.4c0.1-0.2,0.1-0.4,0-0.5C37.8,56.1,37.6,56,37.5,55.9"/>
			<path id="Fill-1048" class="st0" d="M32.5,11.1c-0.3-0.1-0.7-0.1-1,0s-0.5,0.4-0.7,0.7c-0.1,0.3-0.1,0.7,0,1
				c0.1,0.3,0.4,0.5,0.7,0.7c0.3,0.1,0.7,0.1,1,0c0.3-0.1,0.5-0.4,0.7-0.7c0.1-0.3,0.1-0.7,0-1C33,11.5,32.8,11.3,32.5,11.1"/>
			<path id="Fill-1049" class="st0" d="M54.3,29.3c-0.6-0.2-1.3-0.2-1.8,0.1c-0.6,0.3-1,0.7-1.3,1.4c-0.2,0.6-0.2,1.3,0,1.9
				c0.2,0.6,0.7,1,1.3,1.3c0.6,0.2,1.3,0.2,1.8-0.1c0.6-0.3,1-0.7,1.3-1.4c0.2-0.6,0.2-1.3,0-1.9C55.3,30,54.9,29.6,54.3,29.3"/>
			<path id="Fill-1050" class="st0" d="M16,53c-0.4-0.2-0.8-0.1-1.2,0c-0.4,0.2-0.7,0.5-0.8,0.9c-0.2,0.4-0.1,0.8,0,1.2
				c0.2,0.4,0.4,0.7,0.8,0.8c0.4,0.2,0.8,0.1,1.2,0c0.4-0.2,0.7-0.5,0.8-0.9c0.2-0.4,0.1-0.8,0-1.2C16.7,53.5,16.4,53.2,16,53"/>
			<path id="Fill-1051" class="st0" d="M30.1,56.2c-0.5-0.2-0.9-0.2-1.4,0c-0.4,0.2-0.8,0.5-1,1c-0.2,0.5-0.2,1,0,1.4
				c0.2,0.4,0.5,0.8,1,1c0.5,0.2,0.9,0.2,1.4,0c0.4-0.2,0.8-0.5,1-1c0.2-0.5,0.2-1,0-1.4C30.9,56.8,30.5,56.4,30.1,56.2"/>
			<path id="Fill-1052" class="st0" d="M30.3,47c-0.8-0.3-1.7-0.3-2.4,0.1c-0.8,0.3-1.4,1-1.7,1.8c-0.3,0.8-0.3,1.7,0,2.5
				c0.3,0.8,0.9,1.4,1.7,1.7c0.8,0.3,1.7,0.3,2.4-0.1c0.8-0.3,1.4-1,1.7-1.8c0.3-0.8,0.3-1.7,0-2.5C31.7,47.9,31.1,47.3,30.3,47"/>
			<path id="Fill-1053" class="st0" d="M17.3,5.6C16.2,5.1,15,5.2,14,5.7c-1,0.5-1.9,1.3-2.4,2.5c-0.5,1.2-0.4,2.4,0,3.4
				c0.4,1.1,1.3,1.9,2.4,2.4c1.1,0.4,2.3,0.4,3.4-0.1c1-0.5,1.9-1.3,2.4-2.5c0.5-1.2,0.4-2.4,0-3.4C19.3,6.9,18.5,6,17.3,5.6"/>
			<path id="Fill-1054" class="st0" d="M42.2,19.3c-1-0.4-2.1-0.3-3.1,0.1c-1,0.4-1.7,1.2-2.2,2.3c-0.4,1.1-0.4,2.2,0,3.2
				c0.4,1,1.2,1.8,2.2,2.2c1,0.4,2.1,0.3,3.1-0.1c1-0.4,1.8-1.2,2.2-2.3c0.4-1.1,0.4-2.2,0-3.2C44,20.5,43.2,19.7,42.2,19.3"/>
			<path id="Fill-1055" class="st0" d="M42.5,51.6c-0.8-0.3-1.7-0.3-2.4,0.1c-0.7,0.3-1.4,1-1.7,1.8c-0.3,0.8-0.3,1.7,0,2.5
				c0.3,0.8,0.9,1.4,1.7,1.7c0.8,0.3,1.7,0.3,2.4-0.1c0.7-0.3,1.4-1,1.7-1.8c0.3-0.8,0.3-1.7,0-2.5C43.9,52.5,43.3,51.9,42.5,51.6"
				/>
			<path id="Fill-1056" class="st0" d="M53.6,19.3c-0.8-0.3-1.7-0.3-2.4,0.1c-0.7,0.3-1.4,1-1.7,1.8c-0.3,0.8-0.3,1.7,0,2.5
				c0.3,0.8,0.9,1.4,1.7,1.7c0.8,0.3,1.7,0.3,2.4-0.1c0.7-0.3,1.4-1,1.7-1.8c0.3-0.8,0.3-1.7,0-2.5C55,20.3,54.4,19.6,53.6,19.3"/>
			<path id="Fill-1057" class="st0" d="M11.7,52.9c-0.6-0.3-1.3-0.2-1.9,0.1c-0.6,0.3-1.1,0.8-1.3,1.4c-0.3,0.7-0.2,1.4,0,2
				c0.3,0.6,0.7,1.1,1.4,1.3c0.6,0.3,1.3,0.2,1.9-0.1c0.6-0.3,1.1-0.8,1.3-1.4c0.3-0.7,0.2-1.4,0-2C12.8,53.6,12.3,53.1,11.7,52.9"
				/>
			<path id="Fill-1058" class="st0" d="M41.6,58.9c-0.5-0.2-1-0.2-1.5,0c-0.5,0.2-0.9,0.6-1.1,1.1c-0.2,0.5-0.2,1.1,0,1.5
				c0.2,0.5,0.6,0.9,1.1,1.1c0.5,0.2,1,0.2,1.5,0c0.5-0.2,0.9-0.6,1.1-1.1c0.2-0.5,0.2-1.1,0-1.5C42.5,59.5,42.1,59.1,41.6,58.9"/>
			<path id="Fill-1059" class="st0" d="M28.3,30c-0.4-0.2-0.8-0.1-1.2,0c-0.4,0.2-0.7,0.5-0.8,0.9c-0.2,0.4-0.1,0.8,0,1.2
				c0.2,0.4,0.4,0.7,0.8,0.8c0.4,0.2,0.8,0.1,1.2,0c0.4-0.2,0.7-0.5,0.8-0.9c0.2-0.4,0.1-0.8,0-1.2C29,30.4,28.7,30.1,28.3,30"/>
			<path id="Fill-1060" class="st0" d="M43.1,35.6c-0.7-0.3-1.4-0.2-2.1,0.1c-0.6,0.3-1.2,0.8-1.5,1.6c-0.3,0.7-0.3,1.5,0,2.1
				c0.3,0.7,0.8,1.2,1.5,1.5c0.7,0.3,1.4,0.2,2.1-0.1c0.6-0.3,1.2-0.8,1.5-1.6c0.3-0.7,0.3-1.5,0-2.1C44.3,36.4,43.8,35.9,43.1,35.6
				"/>
			<path id="Fill-1061" class="st0" d="M28.7,7.6c-0.6-0.2-1.3-0.2-1.8,0.1c-0.6,0.3-1,0.7-1.3,1.4c-0.2,0.6-0.2,1.3,0,1.9
				c0.2,0.6,0.7,1,1.3,1.3c0.6,0.2,1.3,0.2,1.8-0.1c0.6-0.3,1-0.7,1.3-1.4c0.2-0.6,0.2-1.3,0-1.9C29.7,8.3,29.3,7.9,28.7,7.6"/>
			<path id="Fill-1062" class="st0" d="M24.3,46.7c-0.5-0.2-1-0.2-1.5,0c-0.5,0.2-0.9,0.6-1.1,1.1c-0.2,0.5-0.2,1.1,0,1.5
				c0.2,0.5,0.6,0.9,1.1,1.1c0.5,0.2,1,0.2,1.5,0c0.5-0.2,0.9-0.6,1.1-1.1c0.2-0.5,0.2-1.1,0-1.5C25.2,47.3,24.8,46.9,24.3,46.7"/>
			<path id="Fill-1063" class="st0" d="M30.9,60.5c-0.7-0.3-1.3-0.2-1.9,0.1c-0.6,0.3-1.1,0.8-1.4,1.4c-0.3,0.7-0.2,1.4,0,2
				c0.3,0.6,0.7,1.1,1.4,1.4c0.6,0.3,1.3,0.2,1.9-0.1c0.6-0.3,1.1-0.8,1.4-1.4c0.3-0.7,0.2-1.4,0-2C32,61.3,31.5,60.8,30.9,60.5"/>
			<path id="Fill-1064" class="st0" d="M44.4,44.9c-0.8-0.3-1.6-0.3-2.3,0.1c-0.7,0.3-1.3,0.9-1.6,1.7c-0.3,0.8-0.3,1.7,0,2.4
				c0.3,0.7,0.9,1.3,1.7,1.6c0.8,0.3,1.6,0.3,2.3-0.1c0.7-0.3,1.3-0.9,1.6-1.7c0.3-0.8,0.3-1.6,0-2.4C45.8,45.8,45.2,45.2,44.4,44.9
				"/>
			<path id="Fill-1065" class="st0" d="M16.7,34c-0.7-0.3-1.4-0.2-2,0.1c-0.6,0.3-1.1,0.8-1.4,1.5c-0.3,0.7-0.2,1.4,0,2.1
				c0.3,0.6,0.8,1.1,1.4,1.4c0.7,0.3,1.4,0.2,2-0.1c0.6-0.3,1.1-0.8,1.4-1.5c0.3-0.7,0.2-1.4,0-2.1C17.8,34.8,17.3,34.3,16.7,34"/>
			<path id="Fill-1066" class="st0" d="M24.7,22c-0.5-0.2-1-0.2-1.5,0s-0.9,0.6-1.1,1.1c-0.2,0.5-0.2,1.1,0,1.5
				c0.2,0.5,0.6,0.9,1.1,1.1c0.5,0.2,1,0.2,1.5,0c0.5-0.2,0.9-0.6,1.1-1.1c0.2-0.5,0.2-1.1,0-1.5C25.6,22.6,25.2,22.2,24.7,22"/>
			<path id="Fill-1067" class="st0" d="M27.2,16.9c-0.6-0.2-1.3-0.2-1.8,0.1c-0.6,0.3-1,0.7-1.3,1.4c-0.2,0.6-0.2,1.3,0,1.9
				c0.2,0.6,0.7,1,1.3,1.3c0.6,0.2,1.3,0.2,1.8-0.1c0.6-0.3,1-0.7,1.3-1.4c0.2-0.6,0.2-1.3,0-1.9C28.2,17.6,27.8,17.1,27.2,16.9"/>
			<path id="Fill-1068" class="st0" d="M48.2,39.1c-0.7-0.3-1.4-0.2-2,0.1c-0.6,0.3-1.1,0.8-1.4,1.5c-0.3,0.7-0.2,1.4,0,2
				c0.3,0.6,0.7,1.1,1.4,1.4c0.7,0.3,1.4,0.2,2-0.1c0.6-0.3,1.1-0.8,1.4-1.5c0.3-0.7,0.2-1.4,0-2C49.3,39.9,48.8,39.4,48.2,39.1"/>
			<path id="Fill-1069" class="st0" d="M47.6,22c-0.4-0.2-0.9-0.1-1.3,0c-0.4,0.2-0.7,0.5-0.9,1c-0.2,0.5-0.2,0.9,0,1.3
				c0.2,0.4,0.5,0.7,0.9,0.9c0.4,0.2,0.9,0.1,1.3,0c0.4-0.2,0.7-0.5,0.9-1c0.2-0.5,0.2-0.9,0-1.3C48.4,22.5,48.1,22.2,47.6,22"/>
			<path id="Fill-1070" class="st0" d="M46,20c-0.2-0.1-0.4-0.1-0.5,0c-0.2,0.1-0.3,0.2-0.4,0.4c-0.1,0.2-0.1,0.4,0,0.5
				c0.1,0.2,0.2,0.3,0.4,0.4c0.2,0.1,0.4,0.1,0.5,0c0.2-0.1,0.3-0.2,0.4-0.4c0.1-0.2,0.1-0.4,0-0.5C46.3,20.2,46.2,20.1,46,20"/>
			<path id="Fill-1071" class="st0" d="M39.5,15.8c-0.3-0.1-0.7-0.1-1,0c-0.3,0.1-0.6,0.4-0.7,0.7c-0.1,0.3-0.1,0.7,0,1
				c0.1,0.3,0.4,0.6,0.7,0.7c0.3,0.1,0.7,0.1,1,0c0.3-0.1,0.6-0.4,0.7-0.7c0.1-0.3,0.1-0.7,0-1C40.1,16.2,39.8,16,39.5,15.8"/>
			<path id="Fill-1072" class="st0" d="M33.8,14.4c-0.3-0.1-0.5-0.1-0.8,0c-0.2,0.1-0.4,0.3-0.5,0.6c-0.1,0.3-0.1,0.5,0,0.8
				c0.1,0.2,0.3,0.4,0.5,0.5c0.3,0.1,0.5,0.1,0.8,0c0.2-0.1,0.4-0.3,0.5-0.6c0.1-0.3,0.1-0.5,0-0.8C34.3,14.7,34.1,14.5,33.8,14.4"
				/>
			<path id="Fill-1073" class="st0" d="M33.7,29.7c-0.6-0.2-1.2-0.2-1.8,0.1c-0.6,0.3-1,0.7-1.3,1.3c-0.2,0.6-0.2,1.3,0,1.8
				c0.2,0.6,0.7,1,1.3,1.3c0.6,0.2,1.2,0.2,1.8-0.1c0.6-0.3,1-0.7,1.3-1.3s0.2-1.3,0-1.8C34.7,30.4,34.3,29.9,33.7,29.7"/>
			<path id="Fill-1074" class="st0" d="M22.6,11.5c-0.5-0.2-1.1-0.2-1.6,0c-0.5,0.2-0.9,0.6-1.1,1.2c-0.2,0.6-0.2,1.1,0,1.6
				c0.2,0.5,0.6,0.9,1.1,1.1c0.5,0.2,1.1,0.2,1.6,0c0.5-0.2,0.9-0.6,1.1-1.2c0.2-0.6,0.2-1.1,0-1.6C23.5,12.1,23.1,11.7,22.6,11.5"
				/>
			<path id="Fill-1075" class="st0" d="M57.1,35c-1.1-0.4-2.3-0.4-3.4,0.1c-1,0.5-1.9,1.3-2.4,2.5c-0.5,1.2-0.4,2.4,0,3.4
				c0.4,1.1,1.3,1.9,2.4,2.4c1.1,0.4,2.3,0.4,3.4-0.1c1-0.5,1.9-1.3,2.4-2.5c0.5-1.2,0.4-2.4,0-3.4C59.1,36.3,58.3,35.5,57.1,35"/>
			<path id="Fill-1076" class="st0" d="M24.8,39.3c-0.8-0.3-1.7-0.3-2.4,0.1c-0.7,0.3-1.4,1-1.7,1.8c-0.3,0.8-0.3,1.7,0,2.5
				c0.3,0.8,0.9,1.4,1.7,1.7c0.8,0.3,1.7,0.3,2.4-0.1c0.7-0.3,1.4-1,1.7-1.8c0.3-0.8,0.3-1.7,0-2.5C26.2,40.3,25.6,39.6,24.8,39.3"
				/>
			<path id="Fill-1077" class="st0" d="M59.5,30.2C59,30,58.3,30,57.8,30.2c-0.5,0.2-1,0.7-1.2,1.3c-0.2,0.6-0.2,1.2,0,1.8
				c0.2,0.5,0.7,1,1.2,1.2c0.6,0.2,1.2,0.2,1.7-0.1c0.5-0.2,1-0.7,1.2-1.3c0.2-0.6,0.2-1.2,0-1.8C60.6,30.9,60.1,30.4,59.5,30.2"/>
			<path id="Fill-1078" class="st0" d="M13.6,15.2c-0.5-0.2-1.1-0.2-1.6,0c-0.5,0.2-0.9,0.6-1.1,1.2c-0.2,0.5-0.2,1.1,0,1.6
				c0.2,0.5,0.6,0.9,1.1,1.1c0.5,0.2,1.1,0.2,1.6,0c0.5-0.2,0.9-0.6,1.1-1.2c0.2-0.5,0.2-1.1,0-1.6C14.5,15.8,14.1,15.4,13.6,15.2"
				/>
			<path id="Fill-1079" class="st0" d="M46.1,57.5c-0.4-0.1-0.8-0.1-1.1,0c-0.3,0.2-0.6,0.4-0.8,0.8c-0.2,0.4-0.1,0.8,0,1.2
				c0.1,0.4,0.4,0.6,0.8,0.8c0.4,0.1,0.8,0.1,1.1,0c0.3-0.2,0.6-0.5,0.8-0.8c0.2-0.4,0.1-0.8,0-1.2C46.8,57.9,46.5,57.6,46.1,57.5"
				/>
			<path id="Fill-1080" class="st0" d="M20.7,49.9c-0.5-0.2-1-0.2-1.5,0c-0.5,0.2-0.9,0.6-1.1,1.1c-0.2,0.5-0.2,1.1,0,1.5
				c0.2,0.5,0.6,0.9,1.1,1.1c0.5,0.2,1,0.2,1.5,0c0.5-0.2,0.9-0.6,1.1-1.1c0.2-0.5,0.2-1.1,0-1.5C21.6,50.5,21.2,50.1,20.7,49.9"/>
			<path id="Fill-1081" class="st0" d="M9.3,9.9C8.4,9.6,7.5,9.6,6.6,10c-0.8,0.4-1.5,1.1-1.9,2c-0.4,0.9-0.3,1.9,0,2.7
				c0.4,0.8,1,1.5,1.9,1.9c0.9,0.4,1.8,0.3,2.7-0.1c0.8-0.4,1.5-1.1,1.9-2c0.4-0.9,0.3-1.9,0-2.7C10.9,11,10.2,10.3,9.3,9.9"/>
			<path id="Fill-1082" class="st0" d="M36.7,58c-0.7-0.3-1.4-0.2-2,0.1c-0.6,0.3-1.1,0.8-1.4,1.5c-0.3,0.7-0.2,1.4,0,2
				c0.3,0.6,0.7,1.1,1.4,1.4c0.7,0.3,1.4,0.2,2-0.1c0.6-0.3,1.1-0.8,1.4-1.5c0.3-0.7,0.2-1.4,0-2C37.9,58.8,37.4,58.3,36.7,58"/>
			<path id="Fill-1083" class="st0" d="M21.1,45.2c-0.2-0.1-0.5-0.1-0.7,0c-0.2,0.1-0.4,0.3-0.5,0.5c-0.1,0.2-0.1,0.5,0,0.7
				c0.1,0.2,0.3,0.4,0.5,0.5c0.2,0.1,0.5,0.1,0.7,0c0.2-0.1,0.4-0.3,0.5-0.5c0.1-0.2,0.1-0.5,0-0.7C21.5,45.5,21.4,45.3,21.1,45.2"
				/>
			<path id="Fill-1084" class="st0" d="M28.4,38.3c-0.3-0.1-0.7-0.1-1,0c-0.3,0.1-0.6,0.4-0.7,0.7c-0.1,0.4-0.1,0.7,0,1
				c0.1,0.3,0.4,0.6,0.7,0.7c0.3,0.1,0.7,0.1,1,0c0.3-0.1,0.6-0.4,0.7-0.7c0.1-0.3,0.1-0.7,0-1C29,38.7,28.8,38.4,28.4,38.3"/>
			<path id="Fill-1085" class="st0" d="M12.6,39.5c-0.6-0.3-1.3-0.2-1.9,0.1c-0.6,0.3-1.1,0.8-1.3,1.4c-0.3,0.7-0.2,1.4,0,2
				c0.3,0.6,0.7,1.1,1.4,1.4c0.6,0.3,1.3,0.2,1.9-0.1c0.6-0.3,1.1-0.8,1.4-1.4c0.3-0.7,0.2-1.4,0-2C13.7,40.2,13.3,39.7,12.6,39.5"
				/>
			<path id="Fill-1086" class="st0" d="M37.7,35.1c-0.5-0.2-1.1-0.2-1.6,0c-0.5,0.2-0.9,0.6-1.1,1.2c-0.2,0.5-0.2,1.1,0,1.6
				c0.2,0.5,0.6,0.9,1.1,1.1c0.5,0.2,1.1,0.2,1.6,0c0.5-0.2,0.9-0.6,1.1-1.2c0.2-0.5,0.2-1.1,0-1.6C38.6,35.7,38.3,35.3,37.7,35.1"
				/>
			<path id="Fill-1087" class="st0" d="M53.7,26.4c-0.2-0.1-0.5-0.1-0.7,0c-0.2,0.1-0.4,0.3-0.5,0.5c-0.1,0.2-0.1,0.5,0,0.7
				c0.1,0.2,0.3,0.4,0.5,0.5c0.2,0.1,0.5,0.1,0.7,0c0.2-0.1,0.4-0.3,0.5-0.5c0.1-0.2,0.1-0.5,0-0.7C54,26.6,53.9,26.4,53.7,26.4"/>
			<path id="Fill-1088" class="st0" d="M38.8,40.8c-0.9-0.3-1.8-0.3-2.6,0.1c-0.8,0.4-1.5,1-1.8,1.9c-0.4,0.9-0.3,1.8,0,2.6
				c0.3,0.8,1,1.5,1.8,1.8c0.9,0.3,1.8,0.3,2.6-0.1c0.8-0.4,1.5-1,1.8-1.9c0.3-0.9,0.3-1.8,0-2.6C40.3,41.8,39.7,41.2,38.8,40.8"/>
			<path id="Fill-1089" class="st0" d="M43.1,41.9c-0.3-0.1-0.5-0.1-0.8,0c-0.2,0.1-0.4,0.3-0.5,0.6c-0.1,0.3-0.1,0.5,0,0.8
				c0.1,0.2,0.3,0.4,0.6,0.5c0.3,0.1,0.5,0.1,0.8,0c0.2-0.1,0.4-0.3,0.5-0.6c0.1-0.3,0.1-0.5,0-0.8C43.6,42.2,43.4,42,43.1,41.9"/>
			<path id="Fill-1090" class="st0" d="M51.4,35.1c-0.2-0.1-0.4-0.1-0.5,0c-0.2,0.1-0.3,0.2-0.4,0.4c-0.1,0.2-0.1,0.4,0,0.5
				c0.1,0.2,0.2,0.3,0.4,0.4c0.2,0.1,0.4,0.1,0.5,0c0.2-0.1,0.3-0.2,0.4-0.4c0.1-0.2,0.1-0.4,0-0.5C51.7,35.3,51.5,35.2,51.4,35.1"
				/>
			<path id="Fill-1091" class="st0" d="M32.6,57.9c-0.2-0.1-0.4-0.1-0.6,0c-0.2,0.1-0.4,0.3-0.4,0.5c-0.1,0.2-0.1,0.5,0,0.7
				c0.1,0.2,0.2,0.4,0.5,0.4c0.2,0.1,0.4,0.1,0.6,0c0.2-0.1,0.4-0.3,0.4-0.5c0.1-0.2,0.1-0.5,0-0.7C33,58.1,32.8,58,32.6,57.9"/>
			<path id="Fill-1092" class="st0" d="M35,22c-0.3-0.1-0.7-0.1-1,0c-0.3,0.1-0.5,0.4-0.7,0.7c-0.1,0.3-0.1,0.7,0,1
				c0.1,0.3,0.4,0.5,0.7,0.7c0.3,0.1,0.7,0.1,1,0c0.3-0.1,0.5-0.4,0.7-0.7c0.1-0.3,0.1-0.7,0-1C35.6,22.4,35.3,22.1,35,22"/>
			<path id="Fill-1093" class="st0" d="M51,43.1c-0.3-0.1-0.5-0.1-0.8,0c-0.2,0.1-0.5,0.3-0.6,0.6c-0.1,0.3-0.1,0.6,0,0.8
				c0.1,0.2,0.3,0.5,0.6,0.6c0.3,0.1,0.5,0.1,0.8,0c0.2-0.1,0.5-0.3,0.6-0.6c0.1-0.3,0.1-0.6,0-0.8C51.5,43.4,51.3,43.2,51,43.1"/>
			<path id="Fill-1094" class="st0" d="M10.4,7.6c-0.2-0.1-0.4-0.1-0.5,0C9.7,7.6,9.6,7.8,9.5,8c-0.1,0.2-0.1,0.4,0,0.5
				c0.1,0.2,0.2,0.3,0.4,0.4c0.2,0.1,0.4,0.1,0.5,0c0.2-0.1,0.3-0.2,0.4-0.4c0.1-0.2,0.1-0.4,0-0.5C10.7,7.8,10.6,7.6,10.4,7.6"/>
			<path id="Fill-1095" class="st0" d="M20.8,37c-0.4-0.2-0.8-0.1-1.2,0c-0.4,0.2-0.7,0.5-0.8,0.9c-0.2,0.4-0.1,0.8,0,1.2
				c0.2,0.4,0.4,0.7,0.8,0.8c0.4,0.2,0.8,0.1,1.2,0c0.4-0.2,0.7-0.5,0.8-0.9c0.2-0.4,0.1-0.8,0-1.2C21.5,37.4,21.2,37.1,20.8,37"/>
			<path id="Fill-1096" class="st0" d="M42.4,16.5c-0.2-0.1-0.4-0.1-0.6,0c-0.2,0.1-0.3,0.2-0.4,0.5c-0.1,0.2-0.1,0.4,0,0.6
				c0.1,0.2,0.2,0.4,0.4,0.4c0.2,0.1,0.4,0.1,0.6,0c0.2-0.1,0.3-0.2,0.4-0.5c0.1-0.2,0.1-0.4,0-0.6C42.8,16.8,42.6,16.6,42.4,16.5"
				/>
			<path id="Fill-1097" class="st0" d="M41.4,11.4c-0.4-0.1-0.7-0.1-1.1,0.1c-0.3,0.2-0.6,0.5-0.7,0.8c-0.1,0.4-0.1,0.8,0.1,1.1
				c0.2,0.3,0.4,0.6,0.8,0.7c0.4,0.1,0.7,0.1,1.1-0.1c0.3-0.2,0.6-0.5,0.7-0.8c0.1-0.4,0.1-0.8-0.1-1.1C42,11.8,41.7,11.5,41.4,11.4
				"/>
			<path id="Fill-1098" class="st0" d="M59.1,6c-0.4-0.1-0.7-0.1-1.1,0.1c-0.3,0.2-0.6,0.5-0.7,0.8c-0.1,0.4-0.1,0.8,0.1,1.1
				c0.2,0.3,0.4,0.6,0.8,0.7c0.4,0.1,0.7,0.1,1.1-0.1c0.3-0.2,0.6-0.5,0.7-0.8C60.1,7.4,60,7,59.9,6.7C59.7,6.4,59.4,6.1,59.1,6"/>
			<path id="Fill-1099" class="st0" d="M61.5,5.1c-0.2-0.1-0.4,0-0.6,0.1c-0.2,0.1-0.3,0.3-0.4,0.5c-0.1,0.2,0,0.4,0,0.6
				c0.1,0.2,0.2,0.3,0.4,0.4c0.2,0.1,0.4,0,0.6-0.1C61.8,6.5,62,6.3,62,6.1c0.1-0.2,0-0.4,0-0.6C61.9,5.3,61.7,5.2,61.5,5.1"/>
			<path id="Fill-1100" class="st0" d="M44.4,6.8c-0.6-0.2-1.2-0.1-1.8,0.2c-0.5,0.3-0.9,0.8-1.1,1.4c-0.2,0.6-0.1,1.3,0.1,1.8
				c0.3,0.5,0.7,1,1.3,1.1c0.6,0.2,1.2,0.1,1.7-0.2c0.5-0.3,0.9-0.8,1.2-1.4C46,9.1,46,8.5,45.7,8C45.4,7.4,45,7,44.4,6.8"/>
			<path id="Fill-1101" class="st0" d="M56,2.5c-0.6-0.2-1.2-0.1-1.7,0.2c-0.5,0.3-0.9,0.8-1.2,1.4c-0.2,0.6-0.1,1.3,0.1,1.8
				c0.3,0.5,0.7,1,1.3,1.1c0.6,0.2,1.2,0.1,1.7-0.2c0.5-0.3,0.9-0.8,1.1-1.4c0.2-0.6,0.1-1.3-0.1-1.8C57.1,3.1,56.6,2.7,56,2.5"/>
			<path id="Fill-1102" class="st0" d="M46.7,11.6c-0.5-0.1-0.9-0.1-1.3,0.1c-0.4,0.2-0.7,0.6-0.9,1.1c-0.2,0.5-0.1,1,0.1,1.4
				c0.2,0.4,0.5,0.7,1,0.9c0.5,0.1,0.9,0.1,1.3-0.1c0.4-0.2,0.7-0.6,0.9-1.1c0.2-0.5,0.1-1-0.1-1.4C47.5,12.1,47.1,11.7,46.7,11.6"
				/>
			<path id="Fill-1103" class="st0" d="M52.1,6.6c-0.3-0.1-0.7-0.1-1,0.1c-0.3,0.2-0.5,0.4-0.7,0.8c-0.1,0.4-0.1,0.7,0.1,1
				c0.2,0.3,0.4,0.6,0.8,0.7c0.3,0.1,0.7,0.1,1-0.1c0.3-0.2,0.6-0.4,0.7-0.8C53,8,53,7.6,52.9,7.3C52.7,7,52.4,6.7,52.1,6.6"/>
			<path id="Fill-1104" class="st0" d="M52,1.7c-0.3-0.1-0.7-0.1-1,0.1c-0.3,0.2-0.5,0.4-0.7,0.8c-0.1,0.4-0.1,0.7,0.1,1
				c0.2,0.3,0.4,0.6,0.8,0.7c0.3,0.1,0.7,0.1,1-0.1c0.3-0.2,0.5-0.4,0.7-0.8C53,3,53,2.6,52.8,2.3C52.7,2,52.4,1.8,52,1.7"/>
			<path id="Fill-1105" class="st0" d="M55.8,7.9c-0.5-0.2-1-0.1-1.4,0.1c-0.4,0.2-0.7,0.6-0.9,1.1c-0.2,0.5-0.1,1,0.1,1.4
				c0.2,0.4,0.6,0.7,1,0.9c0.5,0.2,1,0.1,1.4-0.1c0.4-0.2,0.7-0.6,0.9-1.1c0.2-0.5,0.1-1-0.1-1.4C56.6,8.3,56.2,8,55.8,7.9"/>
			<path id="Fill-1106" class="st0" d="M43.5,13.8c-0.2-0.1-0.4,0-0.6,0.1c-0.2,0.1-0.3,0.3-0.4,0.5c-0.1,0.2,0,0.4,0,0.6
				c0.1,0.2,0.2,0.3,0.4,0.4c0.2,0.1,0.4,0,0.6-0.1c0.2-0.1,0.3-0.2,0.4-0.5c0.1-0.2,0-0.4,0-0.6C43.8,14,43.7,13.8,43.5,13.8"/>
			<path id="Fill-1107" class="st0" d="M47.4,3.8c-0.4-0.1-0.9-0.1-1.2,0.1c-0.4,0.2-0.7,0.5-0.8,1c-0.1,0.4-0.1,0.9,0.1,1.3
				c0.2,0.4,0.5,0.7,0.9,0.8c0.4,0.1,0.9,0.1,1.2-0.1c0.4-0.2,0.7-0.5,0.8-1c0.1-0.4,0.1-0.9-0.1-1.3C48.1,4.3,47.8,4,47.4,3.8"/>
			<path id="Fill-1108" class="st0" d="M59.5,3c-0.3-0.1-0.5-0.1-0.8,0.1c-0.2,0.1-0.4,0.3-0.5,0.6c-0.1,0.3-0.1,0.6,0.1,0.8
				c0.1,0.2,0.3,0.4,0.6,0.5c0.3,0.1,0.5,0.1,0.8-0.1c0.2-0.1,0.4-0.3,0.5-0.6c0.1-0.3,0.1-0.6-0.1-0.8C59.9,3.3,59.7,3.1,59.5,3"/>
			<path id="Fill-1109" class="st0" d="M52.2,10.1C51.8,10,51.4,10,51,10.2c-0.4,0.2-0.6,0.5-0.8,0.9c-0.1,0.4-0.1,0.9,0.1,1.2
				c0.2,0.4,0.5,0.6,0.9,0.8c0.4,0.1,0.8,0.1,1.2-0.1c0.4-0.2,0.6-0.5,0.8-0.9c0.1-0.4,0.1-0.9-0.1-1.2
				C52.9,10.5,52.6,10.3,52.2,10.1"/>
			<path id="Fill-1110" class="st0" d="M48.8,7.7c-0.5-0.1-0.9-0.1-1.3,0.1C47,8,46.7,8.4,46.6,8.9c-0.2,0.5-0.1,1,0.1,1.4
				c0.2,0.4,0.5,0.7,1,0.9c0.5,0.1,0.9,0.1,1.3-0.1c0.4-0.2,0.7-0.6,0.9-1.1C50,9.5,50,9,49.8,8.6C49.6,8.2,49.2,7.9,48.8,7.7"/>
			<path id="Fill-1111" class="st0" d="M50.8,4.7c-0.2-0.1-0.4,0-0.6,0.1C50,4.8,49.9,5,49.8,5.2c-0.1,0.2,0,0.4,0,0.6
				c0.1,0.2,0.2,0.3,0.4,0.4c0.2,0.1,0.4,0,0.6-0.1C51,6,51.2,5.9,51.3,5.7c0.1-0.2,0-0.4,0-0.6C51.1,4.9,51,4.8,50.8,4.7"/>
			<path id="Fill-1112" class="st0" d="M49.3,2.5c-0.2-0.1-0.4,0-0.6,0.1c-0.2,0.1-0.3,0.3-0.4,0.5c-0.1,0.2,0,0.4,0,0.6
				c0.1,0.2,0.2,0.3,0.4,0.4C49,4,49.2,4,49.4,3.9c0.2-0.1,0.3-0.3,0.4-0.5c0.1-0.2,0-0.4,0-0.6C49.6,2.7,49.5,2.6,49.3,2.5"/>
			<path id="Fill-1113" class="st0" d="M49.2,12.3c-0.2-0.1-0.4,0-0.6,0.1c-0.2,0.1-0.3,0.2-0.4,0.4c-0.1,0.2,0,0.4,0,0.6
				c0.1,0.2,0.2,0.3,0.4,0.4c0.2,0.1,0.4,0,0.6-0.1c0.2-0.1,0.3-0.2,0.4-0.4c0.1-0.2,0-0.4,0-0.6C49.6,12.5,49.4,12.3,49.2,12.3"/>
			<path id="Fill-1114" class="st0" d="M35.4,17.9c-0.4-0.2-0.9-0.1-1.3,0c-0.4,0.2-0.7,0.5-0.9,1c-0.2,0.5-0.2,0.9,0,1.3
				c0.2,0.4,0.5,0.7,0.9,0.9c0.4,0.2,0.9,0.1,1.3,0c0.4-0.2,0.7-0.5,0.9-1c0.2-0.5,0.2-0.9,0-1.3C36.2,18.4,35.9,18.1,35.4,17.9"/>
			<path id="Fill-1115" class="st0" d="M33.7,37.7c-0.6-0.2-1.2-0.2-1.7,0.1c-0.5,0.2-1,0.7-1.2,1.3c-0.2,0.6-0.2,1.2,0,1.8
				c0.2,0.5,0.7,1,1.2,1.2c0.6,0.2,1.2,0.2,1.7-0.1c0.5-0.2,1-0.7,1.2-1.3c0.2-0.6,0.2-1.2,0-1.8C34.7,38.4,34.3,37.9,33.7,37.7"/>
			<path id="Fill-1116" class="st0" d="M30.5,34.3c-0.5-0.2-0.9-0.2-1.4,0c-0.4,0.2-0.8,0.5-1,1c-0.2,0.5-0.2,1,0,1.4
				c0.2,0.4,0.5,0.8,1,1c0.5,0.2,0.9,0.2,1.4,0c0.4-0.2,0.8-0.5,1-1c0.2-0.5,0.2-1,0-1.4C31.3,34.8,31,34.5,30.5,34.3"/>
			<path id="Fill-1117" class="st0" d="M33.9,35.1c-0.2-0.1-0.5-0.1-0.7,0c-0.2,0.1-0.4,0.3-0.5,0.5s-0.1,0.5,0,0.7
				c0.1,0.2,0.3,0.4,0.5,0.5c0.2,0.1,0.5,0.1,0.7,0c0.2-0.1,0.4-0.3,0.5-0.5c0.1-0.2,0.1-0.5,0-0.7C34.3,35.3,34.1,35.1,33.9,35.1"
				/>
			<path id="Fill-1118" class="st0" d="M51.7,17.3c-0.2-0.1-0.4-0.1-0.5,0c-0.2,0.1-0.3,0.2-0.4,0.4c-0.1,0.2-0.1,0.4,0,0.5
				c0.1,0.2,0.2,0.3,0.4,0.4c0.2,0.1,0.4,0.1,0.5,0c0.2-0.1,0.3-0.2,0.4-0.4c0.1-0.2,0.1-0.4,0-0.5C52,17.6,51.9,17.4,51.7,17.3"/>
			<path id="Fill-1119" class="st0" d="M14.3,56.9c-0.2-0.1-0.5-0.1-0.7,0c-0.2,0.1-0.4,0.3-0.5,0.5c-0.1,0.2-0.1,0.5,0,0.7
				c0.1,0.2,0.3,0.4,0.5,0.5c0.2,0.1,0.5,0.1,0.7,0c0.2-0.1,0.4-0.3,0.5-0.5c0.1-0.2,0.1-0.5,0-0.7C14.7,57.2,14.5,57,14.3,56.9"/>
			<path id="Fill-1120" class="st0" d="M19.5,54.6c-0.4-0.2-0.9-0.1-1.3,0c-0.4,0.2-0.8,0.5-0.9,1c-0.2,0.5-0.2,0.9,0,1.4
				c0.2,0.4,0.5,0.8,0.9,0.9c0.4,0.2,0.9,0.1,1.3,0c0.4-0.2,0.7-0.5,0.9-1c0.2-0.5,0.2-0.9,0-1.4C20.3,55.1,19.9,54.8,19.5,54.6"/>
			<path id="Fill-1121" class="st0" d="M23,16.4c-0.3-0.1-0.6-0.1-0.8,0c-0.3,0.1-0.5,0.3-0.6,0.6c-0.1,0.3-0.1,0.6,0,0.8
				c0.1,0.3,0.3,0.5,0.6,0.6c0.3,0.1,0.6,0.1,0.8,0c0.3-0.1,0.5-0.3,0.6-0.6c0.1-0.3,0.1-0.6,0-0.8C23.5,16.7,23.3,16.5,23,16.4"/>
			<path id="Fill-1122" class="st0" d="M8.8,47.7c-0.2-0.1-0.4-0.1-0.5,0C8.2,47.8,8,47.9,8,48.1c-0.1,0.2-0.1,0.4,0,0.5
				C8,48.8,8.2,48.9,8.3,49c0.2,0.1,0.4,0.1,0.5,0c0.2-0.1,0.3-0.2,0.4-0.4c0.1-0.2,0.1-0.4,0-0.5C9.1,47.9,9,47.8,8.8,47.7"/>
			<path id="Fill-1123" class="st0" d="M15.5,19.6c-0.3-0.1-0.7-0.1-1,0c-0.3,0.1-0.6,0.4-0.7,0.7c-0.1,0.3-0.1,0.7,0,1
				c0.1,0.3,0.4,0.6,0.7,0.7c0.3,0.1,0.7,0.1,1,0c0.3-0.1,0.6-0.4,0.7-0.7c0.1-0.3,0.1-0.7,0-1C16.1,20,15.9,19.7,15.5,19.6"/>
			<path id="Fill-1124" class="st0" d="M16.5,28.2c-0.2-0.1-0.4-0.1-0.5,0c-0.2,0.1-0.3,0.2-0.4,0.4c-0.1,0.2-0.1,0.4,0,0.5
				c0.1,0.2,0.2,0.3,0.4,0.4c0.2,0.1,0.4,0.1,0.5,0c0.2-0.1,0.3-0.2,0.4-0.4c0.1-0.2,0.1-0.4,0-0.5C16.8,28.4,16.7,28.3,16.5,28.2"
				/>
			<path id="Fill-1125" class="st0" d="M16.8,31.3c-0.3-0.1-0.6-0.1-0.8,0c-0.3,0.1-0.5,0.3-0.6,0.6c-0.1,0.3-0.1,0.6,0,0.9
				c0.1,0.3,0.3,0.5,0.6,0.6c0.3,0.1,0.6,0.1,0.8,0c0.3-0.1,0.5-0.3,0.6-0.6c0.1-0.3,0.1-0.6,0-0.9C17.3,31.6,17.1,31.4,16.8,31.3"
				/>
			<path id="Fill-1126" class="st0" d="M2.7,37.7c-0.5-0.2-1-0.2-1.5,0c-0.5,0.2-0.9,0.6-1.1,1.1c-0.2,0.5-0.2,1.1,0,1.5
				c0.2,0.5,0.6,0.9,1.1,1.1c0.5,0.2,1,0.2,1.5,0c0.5-0.2,0.9-0.6,1.1-1.1c0.2-0.5,0.2-1.1,0-1.5C3.6,38.2,3.2,37.9,2.7,37.7"/>
			<path id="Fill-1127" class="st0" d="M7.7,37.1c-0.5-0.2-1.1-0.2-1.5,0c-0.5,0.2-0.9,0.6-1.1,1.1c-0.2,0.5-0.2,1.1,0,1.6
				c0.2,0.5,0.6,0.9,1.1,1.1c0.5,0.2,1.1,0.2,1.5,0c0.5-0.2,0.9-0.6,1.1-1.1c0.2-0.5,0.2-1.1,0-1.6C8.6,37.7,8.2,37.3,7.7,37.1"/>
			<path id="Fill-1128" class="st0" d="M11.6,35.9c-0.3-0.1-0.7-0.1-1,0c-0.3,0.1-0.5,0.4-0.7,0.7c-0.1,0.3-0.1,0.7,0,1
				c0.1,0.3,0.4,0.6,0.7,0.7c0.3,0.1,0.7,0.1,1,0c0.3-0.1,0.5-0.4,0.7-0.7c0.1-0.3,0.1-0.7,0-1C12.1,36.3,11.9,36,11.6,35.9"/>
			<path id="Fill-1129" class="st0" d="M20.2,32.8c-0.3-0.1-0.7-0.1-1,0c-0.3,0.1-0.6,0.4-0.7,0.8c-0.1,0.4-0.1,0.7,0,1
				c0.1,0.3,0.4,0.6,0.7,0.7c0.3,0.1,0.7,0.1,1,0c0.3-0.1,0.6-0.4,0.7-0.8c0.1-0.4,0.1-0.7,0-1C20.8,33.2,20.6,32.9,20.2,32.8"/>
		</g>
	</g>
</g>
</svg>
