<svg version="1.1" id="Layer_1" xmlns="http://www.w3.org/2000/svg" x="0" y="0" viewBox="0 0 63 67" xml:space="preserve"><style>.st0{fill-rule:evenodd;clip-rule:evenodd;fill:#55ad55}</style><g id="Page-1"><g id="SeedProd-logos" transform="translate(-88 -133)"><g id="Group" transform="translate(88.13 133.617)"><path id="Fill-1005" class="st0" d="M35.7.2c-.7-.3-1.4-.2-2 .1-.6.3-1.1.8-1.4 1.5-.3.7-.2 1.4 0 2 .3.6.7 1.1 1.4 1.4.7.3 1.4.2 2-.1.6-.3 1.1-.8 1.4-1.5.3-.7.2-1.4 0-2-.2-.7-.7-1.2-1.4-1.4"/><path id="Fill-1006" class="st0" d="M36.9 6.2c-.4-.2-.9-.1-1.3 0-.4.2-.7.5-.9 1-.2.5-.2.9 0 1.3s.5.7.9.9c.4.2.9.1 1.3 0 .4-.2.7-.5.9-1s.2-.9 0-1.3c-.1-.4-.4-.7-.9-.9"/><path id="Fill-1007" class="st0" d="M37.1 10.7c-.4-.1-.8-.1-1.1 0-.3.2-.6.4-.8.8-.2.4-.1.8 0 1.1.1.3.4.6.8.8.4.1.8.1 1.1 0 .3-.2.6-.4.8-.8.2-.4.1-.8 0-1.1-.2-.3-.5-.6-.8-.8"/><path id="Fill-1008" class="st0" d="M36.6 14.9c-.3-.1-.6-.1-.8 0-.3.1-.5.3-.6.6-.1.3-.1.6 0 .9.1.3.3.5.6.6.3.1.6.1.8 0 .3-.1.5-.3.6-.6.1-.3.1-.6 0-.9-.1-.3-.3-.5-.6-.6"/><path id="Fill-1009" class="st0" d="M14.6 45.4c-.9-.4-1.9-.3-2.7.1-.8.4-1.5 1.1-1.9 2-.4.9-.3 1.9 0 2.8.4.9 1 1.5 1.9 1.9.9.4 1.9.3 2.7-.1.8-.4 1.5-1.1 1.9-2 .4-.9.3-1.9 0-2.8-.3-.9-.9-1.6-1.9-1.9"/><path id="Fill-1010" class="st0" d="M41 28.3c-.8-.3-1.7-.3-2.5.1s-1.4 1-1.7 1.8c-.3.9-.3 1.8 0 2.5.3.8.9 1.4 1.8 1.7.8.3 1.7.3 2.5-.1.8-.3 1.4-1 1.7-1.8.3-.9.3-1.8 0-2.5s-.9-1.4-1.8-1.7"/><path id="Fill-1011" class="st0" d="M24.7 26.7c-.6-.2-1.3-.2-1.9.1-.6.3-1.1.7-1.3 1.4-.3.6-.2 1.3 0 1.9.2.6.7 1.1 1.3 1.3s1.3.2 1.9-.1c.6-.3 1.1-.7 1.3-1.4.3-.6.2-1.3 0-1.9-.3-.6-.7-1.1-1.3-1.3"/><path id="Fill-1012" class="st0" d="M38.2 48.6c-.5-.2-1-.2-1.5 0s-.9.6-1.1 1.1c-.2.5-.2 1.1 0 1.5.2.5.6.9 1.1 1.1.5.2 1 .2 1.5 0s.9-.6 1.1-1.1c.2-.5.2-1.1 0-1.5-.2-.5-.6-.9-1.1-1.1"/><path id="Fill-1013" class="st0" d="M30.9 22.3c-.9-.3-1.8-.3-2.6.1s-1.5 1-1.8 1.9c-.4.9-.3 1.8 0 2.7.3.8 1 1.5 1.8 1.8.9.3 1.8.3 2.6-.1s1.5-1 1.8-1.9c.4-.9.3-1.8 0-2.7-.3-.8-.9-1.4-1.8-1.8"/><path id="Fill-1014" class="st0" d="M25.6 52.8c-.8-.3-1.7-.3-2.4.1-.7.3-1.4 1-1.7 1.8-.3.8-.3 1.7 0 2.5s.9 1.4 1.7 1.7c.8.3 1.7.3 2.4-.1.7-.3 1.4-1 1.7-1.8.3-.8.3-1.7 0-2.5s-.9-1.4-1.7-1.7"/><path id="Fill-1015" class="st0" d="M50.3 49.8c-.9-.4-1.9-.3-2.8.1-.9.4-1.6 1.1-2 2.1-.4 1-.3 2 0 2.9.4.9 1.1 1.6 2 2 .9.4 1.9.3 2.8-.1.9-.4 1.6-1.1 2-2.1.4-1 .3-2 0-2.9-.4-.9-1-1.6-2-2"/><path id="Fill-1016" class="st0" d="M30.6 14c-.5-.2-1-.2-1.4 0-.4.2-.8.6-1 1.1-.2.5-.2 1 0 1.5.2.4.5.8 1 1 .5.2 1 .2 1.4 0 .4-.2.8-.6 1-1.1.2-.5.2-1 0-1.5s-.6-.8-1-1"/><path id="Fill-1017" class="st0" d="M34.1 63.3c-.2-.1-.5-.1-.7 0-.2.1-.4.3-.5.5-.1.2-.1.5 0 .7.1.2.3.4.5.5.2.1.5.1.7 0 .2-.1.4-.3.5-.5.1-.2.1-.5 0-.7-.1-.2-.3-.4-.5-.5"/><path id="Fill-1018" class="st0" d="M48.8 16.4c-.5-.2-1-.2-1.5 0s-.9.6-1.1 1.1-.2 1.1 0 1.5c.2.5.6.9 1.1 1.1.5.2 1 .2 1.5 0s.9-.6 1.1-1.1c.2-.5.2-1.1 0-1.5-.2-.5-.5-.9-1.1-1.1"/><path id="Fill-1019" class="st0" d="M30.2 41.9c-.5-.2-1.1-.2-1.6 0s-.9.6-1.1 1.2c-.2.5-.2 1.1 0 1.6s.6.9 1.1 1.1c.5.2 1.1.2 1.6 0s.9-.6 1.1-1.2c.2-.5.2-1.1 0-1.6s-.6-.9-1.1-1.1"/><path id="Fill-1020" class="st0" d="M50.2 25.4c-.5-.2-1-.2-1.5 0s-.9.6-1.1 1.1c-.2.5-.2 1.1 0 1.5.2.5.6.9 1.1 1.1.5.2 1 .2 1.5 0s.9-.6 1.1-1.1c.2-.5.2-1.1 0-1.5-.2-.5-.6-.9-1.1-1.1"/><path id="Fill-1021" class="st0" d="M19.8 28.4c-.4-.2-.9-.1-1.3 0-.4.2-.7.5-.9 1-.2.4-.2.9 0 1.3s.5.7.9.9c.4.2.9.1 1.3 0 .4-.2.7-.5.9-1 .2-.4.2-.9 0-1.3s-.5-.8-.9-.9"/><path id="Fill-1022" class="st0" d="M33 44.8c-.3-.1-.6-.1-.9 0-.3.1-.5.3-.6.6-.1.3-.1.6 0 .9.1.3.3.5.6.6.3.1.6.1.9 0 .3-.1.5-.3.6-.6.1-.3.1-.6 0-.9-.1-.3-.3-.5-.6-.6"/><path id="Fill-1023" class="st0" d="M49.2 36.7c-.3-.1-.5-.1-.8 0-.2.1-.4.3-.5.6-.1.3-.1.6 0 .8.1.2.3.4.6.6.3.1.5.1.8 0 .2-.1.4-.3.6-.6.1-.3.1-.6 0-.8-.2-.3-.4-.5-.7-.6"/><path id="Fill-1024" class="st0" d="M22.4 19.4c-.3-.1-.7-.1-.9 0-.3.1-.5.4-.7.7-.1.3-.1.7 0 1 .1.3.4.5.7.7.3.1.7.1.9 0 .3-.1.5-.4.7-.7.1-.3.1-.7 0-1-.2-.3-.4-.6-.7-.7"/><path id="Fill-1025" class="st0" d="M26.8 12.9c-.4-.2-.8-.1-1.2 0-.4.2-.7.5-.8.9s-.1.8 0 1.2c.2.4.4.7.8.8.4.2.8.1 1.2 0 .4-.2.7-.5.8-.9.2-.4.1-.8 0-1.2-.1-.4-.4-.7-.8-.8"/><path id="Fill-1026" class="st0" d="M25.5 32.6c-.7-.3-1.5-.2-2.2.1-.7.3-1.2.9-1.5 1.6-.3.7-.3 1.5 0 2.2.3.7.8 1.2 1.5 1.5.7.3 1.5.2 2.2-.1.7-.3 1.2-.9 1.5-1.6.3-.7.3-1.5 0-2.2-.3-.6-.8-1.2-1.5-1.5"/><path id="Fill-1027" class="st0" d="M34.6 52c-.7-.3-1.4-.2-2 .1-.6.3-1.1.8-1.4 1.5-.3.7-.2 1.4 0 2.1.3.6.8 1.2 1.4 1.4.7.3 1.4.2 2-.1.6-.3 1.1-.8 1.4-1.5.3-.7.3-1.4 0-2.1-.2-.6-.7-1.1-1.4-1.4"/><path id="Fill-1028" class="st0" d="M19.2 15.4c-.7-.3-1.4-.2-2 .1-.6.3-1.1.8-1.4 1.5-.3.7-.2 1.4 0 2.1.3.6.8 1.1 1.4 1.4.7.3 1.4.2 2-.1.6-.3 1.1-.8 1.4-1.5.3-.7.2-1.4 0-2.1-.2-.6-.7-1.1-1.4-1.4"/><path id="Fill-1029" class="st0" d="M36.1 25.4c-.5-.2-1-.2-1.5 0s-.9.6-1.1 1.1c-.2.5-.2 1.1 0 1.5.2.5.6.9 1.1 1.1.5.2 1 .2 1.5 0s.9-.6 1.1-1.1c.2-.5.2-1.1 0-1.5-.2-.5-.6-.9-1.1-1.1"/><path id="Fill-1030" class="st0" d="M23.9 5.8c-.6-.2-1.3-.2-1.9.1-.6.3-1.1.7-1.3 1.4-.3.6-.2 1.3 0 1.9.2.6.7 1.1 1.3 1.3.6.2 1.3.2 1.9-.1.6-.3 1.1-.7 1.3-1.4.3-.7.2-1.3 0-1.9-.2-.6-.6-1.1-1.3-1.3"/><path id="Fill-1031" class="st0" d="M44.9 26.7c-.4-.1-.8-.1-1.1 0-.3.2-.6.4-.8.8-.2.4-.1.8 0 1.2.1.4.4.6.8.8.4.1.8.1 1.1 0 .3-.2.6-.4.8-.8.2-.4.1-.8 0-1.2-.1-.4-.4-.7-.8-.8"/><path id="Fill-1032" class="st0" d="M58.5 24.1c-.7-.3-1.4-.2-2 .1-.6.3-1.1.8-1.4 1.5-.3.7-.2 1.4 0 2.1.3.6.8 1.2 1.4 1.4.7.3 1.4.2 2-.1.6-.3 1.1-.8 1.4-1.5.3-.7.2-1.4 0-2.1-.2-.6-.7-1.1-1.4-1.4"/><path id="Fill-1033" class="st0" d="M48.2 29.8c-.9-.3-1.8-.3-2.6.1s-1.5 1-1.8 1.9c-.4.9-.3 1.8 0 2.7.3.8 1 1.5 1.8 1.8.9.3 1.8.3 2.6-.1s1.5-1 1.8-1.9c.4-.9.3-1.8 0-2.7-.3-.8-.9-1.5-1.8-1.8"/><path id="Fill-1034" class="st0" d="M54.9 44.4c-.8-.3-1.6-.3-2.3.1-.7.3-1.3.9-1.6 1.7-.3.8-.3 1.6 0 2.3.3.7.9 1.3 1.6 1.6.8.3 1.6.3 2.3-.1.7-.3 1.3-.9 1.6-1.7.3-.8.3-1.6 0-2.3-.2-.7-.8-1.3-1.6-1.6"/><path id="Fill-1035" class="st0" d="M7.7 49.7c-.5-.2-1.1-.2-1.6 0s-.9.6-1.1 1.2c-.2.5-.2 1.1 0 1.6s.6.9 1.1 1.1c.5.2 1.1.2 1.6 0s.9-.6 1.1-1.2c.2-.5.2-1.1 0-1.6s-.6-.9-1.1-1.1"/><path id="Fill-1036" class="st0" d="M31.5 18.6c-.4-.1-.8-.1-1.1 0-.3.2-.6.4-.8.8-.2.4-.1.8 0 1.2.1.4.4.6.8.8.4.1.8.1 1.1 0 .3-.2.6-.4.8-.8.2-.4.1-.8 0-1.2-.1-.3-.4-.6-.8-.8"/><path id="Fill-1037" class="st0" d="M26.3 59.7c-.4-.1-.8-.1-1.1 0-.3.2-.6.4-.8.8-.2.4-.1.8 0 1.2.1.4.4.6.8.8.4.1.8.1 1.1 0 .3-.2.6-.4.8-.8.2-.4.1-.8 0-1.2-.1-.3-.4-.6-.8-.8"/><path id="Fill-1038" class="st0" d="M6.8 41.7c-1-.4-2-.3-2.8.1-.9.4-1.6 1.1-2 2.1-.4 1-.4 2 0 2.9.4.9 1.1 1.6 2 2 1 .4 2 .3 2.8-.1.9-.4 1.6-1.1 2-2.1.4-1 .4-2 0-2.9-.4-.9-1.1-1.6-2-2"/><path id="Fill-1039" class="st0" d="M49.3 45.4c-.4-.2-.9-.1-1.3 0-.4.2-.7.5-.9 1-.2.4-.2.9 0 1.3s.5.7.9.9c.4.2.9.1 1.3 0 .4-.2.7-.5.9-1 .2-.4.2-.9 0-1.3-.1-.4-.5-.7-.9-.9"/><path id="Fill-1040" class="st0" d="M19.5 21.8c-.8-.3-1.5-.2-2.2.1-.7.3-1.3.9-1.6 1.7-.3.8-.3 1.6 0 2.3.3.7.8 1.3 1.6 1.6.8.3 1.5.2 2.2-.1.7-.3 1.3-.9 1.6-1.7.3-.8.3-1.6 0-2.3-.3-.7-.9-1.3-1.6-1.6"/><path id="Fill-1041" class="st0" d="M44.9 16.9c-.3-.1-.5-.1-.8 0-.2.1-.4.3-.5.6-.1.3-.1.5 0 .8.1.2.3.4.5.5.3.1.5.1.8 0 .2-.1.4-.3.5-.6.1-.3.1-.5 0-.8 0-.2-.2-.4-.5-.5"/><path id="Fill-1042" class="st0" d="M19.2 47c-.3-.1-.5-.1-.8 0-.2.1-.4.3-.5.6-.1.3-.1.5 0 .8.1.2.3.4.5.5.3.1.5.1.8 0 .2-.1.4-.3.5-.6.1-.3.1-.5 0-.8-.1-.2-.3-.4-.5-.5"/><path id="Fill-1043" class="st0" d="M34.5 47.6c-.3-.1-.5-.1-.8 0-.2.1-.4.3-.5.6-.1.3-.1.5 0 .8.1.2.3.4.6.5.3.1.5.1.8 0 .2-.1.4-.3.5-.6.1-.3.1-.5 0-.8-.1-.2-.3-.4-.6-.5"/><path id="Fill-1044" class="st0" d="M18.4 40.2c-.7-.3-1.4-.2-2 .1-.6.3-1.2.8-1.4 1.5-.3.7-.2 1.5 0 2.1.3.6.8 1.2 1.5 1.4.7.3 1.4.2 2-.1.6-.3 1.2-.8 1.4-1.5.3-.7.3-1.5 0-2.1-.3-.6-.8-1.1-1.5-1.4"/><path id="Fill-1045" class="st0" d="M20.4 5.1c-.2-.1-.4-.1-.6 0-.2.1-.3.2-.4.4-.1.2-.1.4 0 .5.1.2.2.3.4.4.2.1.4.1.5 0 .2-.1.3-.2.4-.4.1-.2.1-.4 0-.5 0-.2-.2-.4-.3-.4"/><path id="Fill-1046" class="st0" d="M57.2 21.5c-.2-.1-.4-.1-.6 0-.2.1-.3.2-.4.4-.1.2-.1.4 0 .6.1.2.2.3.4.4.2.1.4.1.6 0 .2-.1.3-.2.4-.4.1-.2.1-.4 0-.6 0-.2-.2-.4-.4-.4"/><path id="Fill-1047" class="st0" d="M37.5 55.9c-.2-.1-.4-.1-.5 0-.2.1-.3.2-.4.4-.1.2-.1.4 0 .5.1.2.2.3.4.4.2.1.4.1.5 0 .2-.1.3-.2.4-.4.1-.2.1-.4 0-.5-.1-.2-.3-.3-.4-.4"/><path id="Fill-1048" class="st0" d="M32.5 11.1c-.3-.1-.7-.1-1 0s-.5.4-.7.7c-.1.3-.1.7 0 1 .1.3.4.5.7.7.3.1.7.1 1 0 .3-.1.5-.4.7-.7.1-.3.1-.7 0-1-.2-.3-.4-.5-.7-.7"/><path id="Fill-1049" class="st0" d="M54.3 29.3c-.6-.2-1.3-.2-1.8.1-.6.3-1 .7-1.3 1.4-.2.6-.2 1.3 0 1.9.2.6.7 1 1.3 1.3.6.2 1.3.2 1.8-.1.6-.3 1-.7 1.3-1.4.2-.6.2-1.3 0-1.9-.3-.6-.7-1-1.3-1.3"/><path id="Fill-1050" class="st0" d="M16 53c-.4-.2-.8-.1-1.2 0-.4.2-.7.5-.8.9-.2.4-.1.8 0 1.2.2.4.4.7.8.8.4.2.8.1 1.2 0 .4-.2.7-.5.8-.9.2-.4.1-.8 0-1.2-.1-.3-.4-.6-.8-.8"/><path id="Fill-1051" class="st0" d="M30.1 56.2c-.5-.2-.9-.2-1.4 0-.4.2-.8.5-1 1-.2.5-.2 1 0 1.4.2.4.5.8 1 1 .5.2.9.2 1.4 0 .4-.2.8-.5 1-1 .2-.5.2-1 0-1.4-.2-.4-.6-.8-1-1"/><path id="Fill-1052" class="st0" d="M30.3 47c-.8-.3-1.7-.3-2.4.1-.8.3-1.4 1-1.7 1.8-.3.8-.3 1.7 0 2.5s.9 1.4 1.7 1.7c.8.3 1.7.3 2.4-.1.8-.3 1.4-1 1.7-1.8.3-.8.3-1.7 0-2.5s-.9-1.4-1.7-1.7"/><path id="Fill-1053" class="st0" d="M17.3 5.6c-1.1-.5-2.3-.4-3.3.1S12.1 7 11.6 8.2s-.4 2.4 0 3.4c.4 1.1 1.3 1.9 2.4 2.4 1.1.4 2.3.4 3.4-.1 1-.5 1.9-1.3 2.4-2.5s.4-2.4 0-3.4c-.5-1.1-1.3-2-2.5-2.4"/><path id="Fill-1054" class="st0" d="M42.2 19.3c-1-.4-2.1-.3-3.1.1s-1.7 1.2-2.2 2.3c-.4 1.1-.4 2.2 0 3.2s1.2 1.8 2.2 2.2c1 .4 2.1.3 3.1-.1s1.8-1.2 2.2-2.3c.4-1.1.4-2.2 0-3.2s-1.2-1.8-2.2-2.2"/><path id="Fill-1055" class="st0" d="M42.5 51.6c-.8-.3-1.7-.3-2.4.1-.7.3-1.4 1-1.7 1.8-.3.8-.3 1.7 0 2.5s.9 1.4 1.7 1.7c.8.3 1.7.3 2.4-.1.7-.3 1.4-1 1.7-1.8.3-.8.3-1.7 0-2.5s-.9-1.4-1.7-1.7"/><path id="Fill-1056" class="st0" d="M53.6 19.3c-.8-.3-1.7-.3-2.4.1-.7.3-1.4 1-1.7 1.8-.3.8-.3 1.7 0 2.5s.9 1.4 1.7 1.7c.8.3 1.7.3 2.4-.1.7-.3 1.4-1 1.7-1.8.3-.8.3-1.7 0-2.5-.3-.7-.9-1.4-1.7-1.7"/><path id="Fill-1057" class="st0" d="M11.7 52.9c-.6-.3-1.3-.2-1.9.1-.6.3-1.1.8-1.3 1.4-.3.7-.2 1.4 0 2 .3.6.7 1.1 1.4 1.3.6.3 1.3.2 1.9-.1.6-.3 1.1-.8 1.3-1.4.3-.7.2-1.4 0-2-.3-.6-.8-1.1-1.4-1.3"/><path id="Fill-1058" class="st0" d="M41.6 58.9c-.5-.2-1-.2-1.5 0s-.9.6-1.1 1.1c-.2.5-.2 1.1 0 1.5.2.5.6.9 1.1 1.1.5.2 1 .2 1.5 0s.9-.6 1.1-1.1c.2-.5.2-1.1 0-1.5-.2-.5-.6-.9-1.1-1.1"/><path id="Fill-1059" class="st0" d="M28.3 30c-.4-.2-.8-.1-1.2 0-.4.2-.7.5-.8.9-.2.4-.1.8 0 1.2.2.4.4.7.8.8.4.2.8.1 1.2 0 .4-.2.7-.5.8-.9.2-.4.1-.8 0-1.2-.1-.4-.4-.7-.8-.8"/><path id="Fill-1060" class="st0" d="M43.1 35.6c-.7-.3-1.4-.2-2.1.1-.6.3-1.2.8-1.5 1.6-.3.7-.3 1.5 0 2.1.3.7.8 1.2 1.5 1.5.7.3 1.4.2 2.1-.1.6-.3 1.2-.8 1.5-1.6.3-.7.3-1.5 0-2.1-.3-.7-.8-1.2-1.5-1.5"/><path id="Fill-1061" class="st0" d="M28.7 7.6c-.6-.2-1.3-.2-1.8.1-.6.3-1 .7-1.3 1.4-.2.6-.2 1.3 0 1.9.2.6.7 1 1.3 1.3.6.2 1.3.2 1.8-.1.6-.3 1-.7 1.3-1.4.2-.6.2-1.3 0-1.9-.3-.6-.7-1-1.3-1.3"/><path id="Fill-1062" class="st0" d="M24.3 46.7c-.5-.2-1-.2-1.5 0s-.9.6-1.1 1.1c-.2.5-.2 1.1 0 1.5.2.5.6.9 1.1 1.1.5.2 1 .2 1.5 0s.9-.6 1.1-1.1c.2-.5.2-1.1 0-1.5-.2-.5-.6-.9-1.1-1.1"/><path id="Fill-1063" class="st0" d="M30.9 60.5c-.7-.3-1.3-.2-1.9.1-.6.3-1.1.8-1.4 1.4-.3.7-.2 1.4 0 2 .3.6.7 1.1 1.4 1.4.6.3 1.3.2 1.9-.1.6-.3 1.1-.8 1.4-1.4.3-.7.2-1.4 0-2-.3-.6-.8-1.1-1.4-1.4"/><path id="Fill-1064" class="st0" d="M44.4 44.9c-.8-.3-1.6-.3-2.3.1-.7.3-1.3.9-1.6 1.7-.3.8-.3 1.7 0 2.4s.9 1.3 1.7 1.6c.8.3 1.6.3 2.3-.1.7-.3 1.3-.9 1.6-1.7.3-.8.3-1.6 0-2.4-.3-.7-.9-1.3-1.7-1.6"/><path id="Fill-1065" class="st0" d="M16.7 34c-.7-.3-1.4-.2-2 .1-.6.3-1.1.8-1.4 1.5-.3.7-.2 1.4 0 2.1.3.6.8 1.1 1.4 1.4.7.3 1.4.2 2-.1.6-.3 1.1-.8 1.4-1.5.3-.7.2-1.4 0-2.1-.3-.6-.8-1.1-1.4-1.4"/><path id="Fill-1066" class="st0" d="M24.7 22c-.5-.2-1-.2-1.5 0s-.9.6-1.1 1.1c-.2.5-.2 1.1 0 1.5.2.5.6.9 1.1 1.1.5.2 1 .2 1.5 0s.9-.6 1.1-1.1c.2-.5.2-1.1 0-1.5-.2-.5-.6-.9-1.1-1.1"/><path id="Fill-1067" class="st0" d="M27.2 16.9c-.6-.2-1.3-.2-1.8.1-.6.3-1 .7-1.3 1.4-.2.6-.2 1.3 0 1.9.2.6.7 1 1.3 1.3.6.2 1.3.2 1.8-.1.6-.3 1-.7 1.3-1.4.2-.6.2-1.3 0-1.9-.3-.6-.7-1.1-1.3-1.3"/><path id="Fill-1068" class="st0" d="M48.2 39.1c-.7-.3-1.4-.2-2 .1-.6.3-1.1.8-1.4 1.5-.3.7-.2 1.4 0 2 .3.6.7 1.1 1.4 1.4.7.3 1.4.2 2-.1.6-.3 1.1-.8 1.4-1.5.3-.7.2-1.4 0-2-.3-.6-.8-1.1-1.4-1.4"/><path id="Fill-1069" class="st0" d="M47.6 22c-.4-.2-.9-.1-1.3 0-.4.2-.7.5-.9 1-.2.5-.2.9 0 1.3s.5.7.9.9c.4.2.9.1 1.3 0 .4-.2.7-.5.9-1 .2-.5.2-.9 0-1.3-.1-.4-.4-.7-.9-.9"/><path id="Fill-1070" class="st0" d="M46 20c-.2-.1-.4-.1-.5 0-.2.1-.3.2-.4.4-.1.2-.1.4 0 .5.1.2.2.3.4.4.2.1.4.1.5 0 .2-.1.3-.2.4-.4.1-.2.1-.4 0-.5-.1-.2-.2-.3-.4-.4"/><path id="Fill-1071" class="st0" d="M39.5 15.8c-.3-.1-.7-.1-1 0-.3.1-.6.4-.7.7-.1.3-.1.7 0 1 .1.3.4.6.7.7.3.1.7.1 1 0 .3-.1.6-.4.7-.7.1-.3.1-.7 0-1-.1-.3-.4-.5-.7-.7"/><path id="Fill-1072" class="st0" d="M33.8 14.4c-.3-.1-.5-.1-.8 0-.2.1-.4.3-.5.6-.1.3-.1.5 0 .8.1.2.3.4.5.5.3.1.5.1.8 0 .2-.1.4-.3.5-.6.1-.3.1-.5 0-.8 0-.2-.2-.4-.5-.5"/><path id="Fill-1073" class="st0" d="M33.7 29.7c-.6-.2-1.2-.2-1.8.1-.6.3-1 .7-1.3 1.3-.2.6-.2 1.3 0 1.8.2.6.7 1 1.3 1.3.6.2 1.2.2 1.8-.1.6-.3 1-.7 1.3-1.3s.2-1.3 0-1.8c-.3-.6-.7-1.1-1.3-1.3"/><path id="Fill-1074" class="st0" d="M22.6 11.5c-.5-.2-1.1-.2-1.6 0s-.9.6-1.1 1.2c-.2.6-.2 1.1 0 1.6s.6.9 1.1 1.1c.5.2 1.1.2 1.6 0s.9-.6 1.1-1.2c.2-.6.2-1.1 0-1.6s-.6-.9-1.1-1.1"/><path id="Fill-1075" class="st0" d="M57.1 35c-1.1-.4-2.3-.4-3.4.1-1 .5-1.9 1.3-2.4 2.5s-.4 2.4 0 3.4c.4 1.1 1.3 1.9 2.4 2.4 1.1.4 2.3.4 3.4-.1 1-.5 1.9-1.3 2.4-2.5s.4-2.4 0-3.4c-.4-1.1-1.2-1.9-2.4-2.4"/><path id="Fill-1076" class="st0" d="M24.8 39.3c-.8-.3-1.7-.3-2.4.1-.7.3-1.4 1-1.7 1.8-.3.8-.3 1.7 0 2.5s.9 1.4 1.7 1.7c.8.3 1.7.3 2.4-.1.7-.3 1.4-1 1.7-1.8.3-.8.3-1.7 0-2.5-.3-.7-.9-1.4-1.7-1.7"/><path id="Fill-1077" class="st0" d="M59.5 30.2c-.5-.2-1.2-.2-1.7 0s-1 .7-1.2 1.3c-.2.6-.2 1.2 0 1.8.2.5.7 1 1.2 1.2.6.2 1.2.2 1.7-.1.5-.2 1-.7 1.2-1.3.2-.6.2-1.2 0-1.8-.1-.4-.6-.9-1.2-1.1"/><path id="Fill-1078" class="st0" d="M13.6 15.2c-.5-.2-1.1-.2-1.6 0s-.9.6-1.1 1.2c-.2.5-.2 1.1 0 1.6s.6.9 1.1 1.1c.5.2 1.1.2 1.6 0s.9-.6 1.1-1.2c.2-.5.2-1.1 0-1.6s-.6-.9-1.1-1.1"/><path id="Fill-1079" class="st0" d="M46.1 57.5c-.4-.1-.8-.1-1.1 0-.3.2-.6.4-.8.8-.2.4-.1.8 0 1.2.1.4.4.6.8.8.4.1.8.1 1.1 0 .3-.2.6-.5.8-.8.2-.4.1-.8 0-1.2-.1-.4-.4-.7-.8-.8"/><path id="Fill-1080" class="st0" d="M20.7 49.9c-.5-.2-1-.2-1.5 0s-.9.6-1.1 1.1c-.2.5-.2 1.1 0 1.5.2.5.6.9 1.1 1.1.5.2 1 .2 1.5 0s.9-.6 1.1-1.1c.2-.5.2-1.1 0-1.5-.2-.5-.6-.9-1.1-1.1"/><path id="Fill-1081" class="st0" d="M9.3 9.9c-.9-.3-1.8-.3-2.7.1-.8.4-1.5 1.1-1.9 2-.4.9-.3 1.9 0 2.7.4.8 1 1.5 1.9 1.9.9.4 1.8.3 2.7-.1.8-.4 1.5-1.1 1.9-2 .4-.9.3-1.9 0-2.7-.3-.8-1-1.5-1.9-1.9"/><path id="Fill-1082" class="st0" d="M36.7 58c-.7-.3-1.4-.2-2 .1-.6.3-1.1.8-1.4 1.5-.3.7-.2 1.4 0 2 .3.6.7 1.1 1.4 1.4.7.3 1.4.2 2-.1.6-.3 1.1-.8 1.4-1.5.3-.7.2-1.4 0-2-.2-.6-.7-1.1-1.4-1.4"/><path id="Fill-1083" class="st0" d="M21.1 45.2c-.2-.1-.5-.1-.7 0-.2.1-.4.3-.5.5-.1.2-.1.5 0 .7.1.2.3.4.5.5.2.1.5.1.7 0 .2-.1.4-.3.5-.5.1-.2.1-.5 0-.7-.1-.2-.2-.4-.5-.5"/><path id="Fill-1084" class="st0" d="M28.4 38.3c-.3-.1-.7-.1-1 0-.3.1-.6.4-.7.7-.1.4-.1.7 0 1 .1.3.4.6.7.7.3.1.7.1 1 0 .3-.1.6-.4.7-.7.1-.3.1-.7 0-1-.1-.3-.3-.6-.7-.7"/><path id="Fill-1085" class="st0" d="M12.6 39.5c-.6-.3-1.3-.2-1.9.1-.6.3-1.1.8-1.3 1.4-.3.7-.2 1.4 0 2 .3.6.7 1.1 1.4 1.4.6.3 1.3.2 1.9-.1.6-.3 1.1-.8 1.4-1.4.3-.7.2-1.4 0-2-.4-.7-.8-1.2-1.5-1.4"/><path id="Fill-1086" class="st0" d="M37.7 35.1c-.5-.2-1.1-.2-1.6 0s-.9.6-1.1 1.2c-.2.5-.2 1.1 0 1.6s.6.9 1.1 1.1c.5.2 1.1.2 1.6 0s.9-.6 1.1-1.2c.2-.5.2-1.1 0-1.6s-.5-.9-1.1-1.1"/><path id="Fill-1087" class="st0" d="M53.7 26.4c-.2-.1-.5-.1-.7 0-.2.1-.4.3-.5.5-.1.2-.1.5 0 .7.1.2.3.4.5.5.2.1.5.1.7 0 .2-.1.4-.3.5-.5.1-.2.1-.5 0-.7-.2-.3-.3-.5-.5-.5"/><path id="Fill-1088" class="st0" d="M38.8 40.8c-.9-.3-1.8-.3-2.6.1s-1.5 1-1.8 1.9c-.4.9-.3 1.8 0 2.6s1 1.5 1.8 1.8c.9.3 1.8.3 2.6-.1s1.5-1 1.8-1.9c.3-.9.3-1.8 0-2.6s-.9-1.4-1.8-1.8"/><path id="Fill-1089" class="st0" d="M43.1 41.9c-.3-.1-.5-.1-.8 0-.2.1-.4.3-.5.6-.1.3-.1.5 0 .8.1.2.3.4.6.5.3.1.5.1.8 0 .2-.1.4-.3.5-.6.1-.3.1-.5 0-.8-.1-.2-.3-.4-.6-.5"/><path id="Fill-1090" class="st0" d="M51.4 35.1c-.2-.1-.4-.1-.5 0-.2.1-.3.2-.4.4-.1.2-.1.4 0 .5.1.2.2.3.4.4.2.1.4.1.5 0 .2-.1.3-.2.4-.4.1-.2.1-.4 0-.5-.1-.2-.3-.3-.4-.4"/><path id="Fill-1091" class="st0" d="M32.6 57.9c-.2-.1-.4-.1-.6 0-.2.1-.4.3-.4.5-.1.2-.1.5 0 .7.1.2.2.4.5.4.2.1.4.1.6 0 .2-.1.4-.3.4-.5.1-.2.1-.5 0-.7-.1-.2-.3-.3-.5-.4"/><path id="Fill-1092" class="st0" d="M35 22c-.3-.1-.7-.1-1 0-.3.1-.5.4-.7.7-.1.3-.1.7 0 1 .1.3.4.5.7.7.3.1.7.1 1 0 .3-.1.5-.4.7-.7.1-.3.1-.7 0-1-.1-.3-.4-.6-.7-.7"/><path id="Fill-1093" class="st0" d="M51 43.1c-.3-.1-.5-.1-.8 0-.2.1-.5.3-.6.6-.1.3-.1.6 0 .8.1.2.3.5.6.6.3.1.5.1.8 0 .2-.1.5-.3.6-.6.1-.3.1-.6 0-.8-.1-.3-.3-.5-.6-.6"/><path id="Fill-1094" class="st0" d="M10.4 7.6c-.2-.1-.4-.1-.5 0-.2 0-.3.2-.4.4-.1.2-.1.4 0 .5.1.2.2.3.4.4.2.1.4.1.5 0 .2-.1.3-.2.4-.4.1-.2.1-.4 0-.5-.1-.2-.2-.4-.4-.4"/><path id="Fill-1095" class="st0" d="M20.8 37c-.4-.2-.8-.1-1.2 0-.4.2-.7.5-.8.9-.2.4-.1.8 0 1.2.2.4.4.7.8.8.4.2.8.1 1.2 0 .4-.2.7-.5.8-.9.2-.4.1-.8 0-1.2-.1-.4-.4-.7-.8-.8"/><path id="Fill-1096" class="st0" d="M42.4 16.5c-.2-.1-.4-.1-.6 0-.2.1-.3.2-.4.5-.1.2-.1.4 0 .6.1.2.2.4.4.4.2.1.4.1.6 0 .2-.1.3-.2.4-.5.1-.2.1-.4 0-.6 0-.1-.2-.3-.4-.4"/><path id="Fill-1097" class="st0" d="M41.4 11.4c-.4-.1-.7-.1-1.1.1-.3.2-.6.5-.7.8-.1.4-.1.8.1 1.1.2.3.4.6.8.7.4.1.7.1 1.1-.1.3-.2.6-.5.7-.8.1-.4.1-.8-.1-1.1-.2-.3-.5-.6-.8-.7"/><path id="Fill-1098" class="st0" d="M59.1 6c-.4-.1-.7-.1-1.1.1-.3.2-.6.5-.7.8-.1.4-.1.8.1 1.1.2.3.4.6.8.7.4.1.7.1 1.1-.1.3-.2.6-.5.7-.8.1-.4 0-.8-.1-1.1-.2-.3-.5-.6-.8-.7"/><path id="Fill-1099" class="st0" d="M61.5 5.1c-.2-.1-.4 0-.6.1-.2.1-.3.3-.4.5-.1.2 0 .4 0 .6.1.2.2.3.4.4.2.1.4 0 .6-.1.3-.1.5-.3.5-.5.1-.2 0-.4 0-.6-.1-.2-.3-.3-.5-.4"/><path id="Fill-1100" class="st0" d="M44.4 6.8c-.6-.2-1.2-.1-1.8.2-.5.3-.9.8-1.1 1.4-.2.6-.1 1.3.1 1.8.3.5.7 1 1.3 1.1.6.2 1.2.1 1.7-.2.5-.3.9-.8 1.2-1.4.2-.6.2-1.2-.1-1.7-.3-.6-.7-1-1.3-1.2"/><path id="Fill-1101" class="st0" d="M56 2.5c-.6-.2-1.2-.1-1.7.2-.5.3-.9.8-1.2 1.4-.2.6-.1 1.3.1 1.8.3.5.7 1 1.3 1.1.6.2 1.2.1 1.7-.2.5-.3.9-.8 1.1-1.4.2-.6.1-1.3-.1-1.8-.1-.5-.6-.9-1.2-1.1"/><path id="Fill-1102" class="st0" d="M46.7 11.6c-.5-.1-.9-.1-1.3.1s-.7.6-.9 1.1c-.2.5-.1 1 .1 1.4.2.4.5.7 1 .9.5.1.9.1 1.3-.1s.7-.6.9-1.1c.2-.5.1-1-.1-1.4-.2-.4-.6-.8-1-.9"/><path id="Fill-1103" class="st0" d="M52.1 6.6c-.3-.1-.7-.1-1 .1-.3.2-.5.4-.7.8-.1.4-.1.7.1 1 .2.3.4.6.8.7.3.1.7.1 1-.1.3-.2.6-.4.7-.8 0-.3 0-.7-.1-1-.2-.3-.5-.6-.8-.7"/><path id="Fill-1104" class="st0" d="M52 1.7c-.3-.1-.7-.1-1 .1-.3.2-.5.4-.7.8-.1.4-.1.7.1 1 .2.3.4.6.8.7.3.1.7.1 1-.1.3-.2.5-.4.7-.8.1-.4.1-.8-.1-1.1-.1-.3-.4-.5-.8-.6"/><path id="Fill-1105" class="st0" d="M55.8 7.9c-.5-.2-1-.1-1.4.1-.4.2-.7.6-.9 1.1-.2.5-.1 1 .1 1.4.2.4.6.7 1 .9.5.2 1 .1 1.4-.1.4-.2.7-.6.9-1.1.2-.5.1-1-.1-1.4-.2-.5-.6-.8-1-.9"/><path id="Fill-1106" class="st0" d="M43.5 13.8c-.2-.1-.4 0-.6.1-.2.1-.3.3-.4.5-.1.2 0 .4 0 .6.1.2.2.3.4.4.2.1.4 0 .6-.1.2-.1.3-.2.4-.5.1-.2 0-.4 0-.6-.1-.2-.2-.4-.4-.4"/><path id="Fill-1107" class="st0" d="M47.4 3.8c-.4-.1-.9-.1-1.2.1-.4.2-.7.5-.8 1-.1.4-.1.9.1 1.3s.5.7.9.8c.4.1.9.1 1.2-.1.4-.2.7-.5.8-1 .1-.4.1-.9-.1-1.3-.2-.3-.5-.6-.9-.8"/><path id="Fill-1108" class="st0" d="M59.5 3c-.3-.1-.5-.1-.8.1-.2.1-.4.3-.5.6-.1.3-.1.6.1.8.1.2.3.4.6.5.3.1.5.1.8-.1.2-.1.4-.3.5-.6.1-.3.1-.6-.1-.8-.2-.2-.4-.4-.6-.5"/><path id="Fill-1109" class="st0" d="M52.2 10.1c-.4-.1-.8-.1-1.2.1-.4.2-.6.5-.8.9-.1.4-.1.9.1 1.2.2.4.5.6.9.8.4.1.8.1 1.2-.1.4-.2.6-.5.8-.9.1-.4.1-.9-.1-1.2-.2-.4-.5-.6-.9-.8"/><path id="Fill-1110" class="st0" d="M48.8 7.7c-.5-.1-.9-.1-1.3.1-.5.2-.8.6-.9 1.1-.2.5-.1 1 .1 1.4.2.4.5.7 1 .9.5.1.9.1 1.3-.1s.7-.6.9-1.1c.1-.5.1-1-.1-1.4-.2-.4-.6-.7-1-.9"/><path id="Fill-1111" class="st0" d="M50.8 4.7c-.2-.1-.4 0-.6.1-.2 0-.3.2-.4.4-.1.2 0 .4 0 .6.1.2.2.3.4.4.2.1.4 0 .6-.1.2-.1.4-.2.5-.4.1-.2 0-.4 0-.6-.2-.2-.3-.3-.5-.4"/><path id="Fill-1112" class="st0" d="M49.3 2.5c-.2-.1-.4 0-.6.1-.2.1-.3.3-.4.5-.1.2 0 .4 0 .6.1.2.2.3.4.4.3-.1.5-.1.7-.2.2-.1.3-.3.4-.5.1-.2 0-.4 0-.6-.2-.1-.3-.2-.5-.3"/><path id="Fill-1113" class="st0" d="M49.2 12.3c-.2-.1-.4 0-.6.1-.2.1-.3.2-.4.4-.1.2 0 .4 0 .6.1.2.2.3.4.4.2.1.4 0 .6-.1.2-.1.3-.2.4-.4.1-.2 0-.4 0-.6 0-.2-.2-.4-.4-.4"/><path id="Fill-1114" class="st0" d="M35.4 17.9c-.4-.2-.9-.1-1.3 0-.4.2-.7.5-.9 1-.2.5-.2.9 0 1.3s.5.7.9.9c.4.2.9.1 1.3 0 .4-.2.7-.5.9-1 .2-.5.2-.9 0-1.3-.1-.4-.4-.7-.9-.9"/><path id="Fill-1115" class="st0" d="M33.7 37.7c-.6-.2-1.2-.2-1.7.1-.5.2-1 .7-1.2 1.3-.2.6-.2 1.2 0 1.8.2.5.7 1 1.2 1.2.6.2 1.2.2 1.7-.1.5-.2 1-.7 1.2-1.3.2-.6.2-1.2 0-1.8-.2-.5-.6-1-1.2-1.2"/><path id="Fill-1116" class="st0" d="M30.5 34.3c-.5-.2-.9-.2-1.4 0-.4.2-.8.5-1 1-.2.5-.2 1 0 1.4.2.4.5.8 1 1 .5.2.9.2 1.4 0 .4-.2.8-.5 1-1 .2-.5.2-1 0-1.4-.2-.5-.5-.8-1-1"/><path id="Fill-1117" class="st0" d="M33.9 35.1c-.2-.1-.5-.1-.7 0-.2.1-.4.3-.5.5s-.1.5 0 .7c.1.2.3.4.5.5.2.1.5.1.7 0 .2-.1.4-.3.5-.5.1-.2.1-.5 0-.7-.1-.3-.3-.5-.5-.5"/><path id="Fill-1118" class="st0" d="M51.7 17.3c-.2-.1-.4-.1-.5 0-.2.1-.3.2-.4.4-.1.2-.1.4 0 .5.1.2.2.3.4.4.2.1.4.1.5 0 .2-.1.3-.2.4-.4.1-.2.1-.4 0-.5-.1-.1-.2-.3-.4-.4"/><path id="Fill-1119" class="st0" d="M14.3 56.9c-.2-.1-.5-.1-.7 0-.2.1-.4.3-.5.5-.1.2-.1.5 0 .7.1.2.3.4.5.5.2.1.5.1.7 0 .2-.1.4-.3.5-.5.1-.2.1-.5 0-.7-.1-.2-.3-.4-.5-.5"/><path id="Fill-1120" class="st0" d="M19.5 54.6c-.4-.2-.9-.1-1.3 0-.4.2-.8.5-.9 1-.2.5-.2.9 0 1.4.2.4.5.8.9.9.4.2.9.1 1.3 0 .4-.2.7-.5.9-1 .2-.5.2-.9 0-1.4-.1-.4-.5-.7-.9-.9"/><path id="Fill-1121" class="st0" d="M23 16.4c-.3-.1-.6-.1-.8 0-.3.1-.5.3-.6.6-.1.3-.1.6 0 .8.1.3.3.5.6.6.3.1.6.1.8 0 .3-.1.5-.3.6-.6.1-.3.1-.6 0-.8-.1-.3-.3-.5-.6-.6"/><path id="Fill-1122" class="st0" d="M8.8 47.7c-.2-.1-.4-.1-.5 0-.1.1-.3.2-.3.4-.1.2-.1.4 0 .5 0 .2.2.3.3.4.2.1.4.1.5 0 .2-.1.3-.2.4-.4.1-.2.1-.4 0-.5-.1-.2-.2-.3-.4-.4"/><path id="Fill-1123" class="st0" d="M15.5 19.6c-.3-.1-.7-.1-1 0-.3.1-.6.4-.7.7-.1.3-.1.7 0 1 .1.3.4.6.7.7.3.1.7.1 1 0 .3-.1.6-.4.7-.7.1-.3.1-.7 0-1-.1-.3-.3-.6-.7-.7"/><path id="Fill-1124" class="st0" d="M16.5 28.2c-.2-.1-.4-.1-.5 0-.2.1-.3.2-.4.4-.1.2-.1.4 0 .5.1.2.2.3.4.4.2.1.4.1.5 0 .2-.1.3-.2.4-.4.1-.2.1-.4 0-.5-.1-.2-.2-.3-.4-.4"/><path id="Fill-1125" class="st0" d="M16.8 31.3c-.3-.1-.6-.1-.8 0-.3.1-.5.3-.6.6-.1.3-.1.6 0 .9.1.3.3.5.6.6.3.1.6.1.8 0 .3-.1.5-.3.6-.6.1-.3.1-.6 0-.9-.1-.3-.3-.5-.6-.6"/><path id="Fill-1126" class="st0" d="M2.7 37.7c-.5-.2-1-.2-1.5 0s-.9.6-1.1 1.1c-.2.5-.2 1.1 0 1.5.2.5.6.9 1.1 1.1.5.2 1 .2 1.5 0s.9-.6 1.1-1.1c.2-.5.2-1.1 0-1.5-.2-.6-.6-.9-1.1-1.1"/><path id="Fill-1127" class="st0" d="M7.7 37.1c-.5-.2-1.1-.2-1.5 0-.5.2-.9.6-1.1 1.1-.2.5-.2 1.1 0 1.6s.6.9 1.1 1.1c.5.2 1.1.2 1.5 0 .5-.2.9-.6 1.1-1.1.2-.5.2-1.1 0-1.6s-.6-.9-1.1-1.1"/><path id="Fill-1128" class="st0" d="M11.6 35.9c-.3-.1-.7-.1-1 0-.3.1-.5.4-.7.7-.1.3-.1.7 0 1 .1.3.4.6.7.7.3.1.7.1 1 0 .3-.1.5-.4.7-.7.1-.3.1-.7 0-1-.2-.3-.4-.6-.7-.7"/><path id="Fill-1129" class="st0" d="M20.2 32.8c-.3-.1-.7-.1-1 0-.3.1-.6.4-.7.8-.1.4-.1.7 0 1 .1.3.4.6.7.7.3.1.7.1 1 0 .3-.1.6-.4.7-.8.1-.4.1-.7 0-1-.1-.3-.3-.6-.7-.7"/></g></g></g></svg>