<svg width="88" height="89" fill="none" xmlns="http://www.w3.org/2000/svg"><g filter="url(#a)"><rect x="4" y="2.5" width="80" height="80" rx="4" fill="#fff"/><path d="M60.955 18.207a5.59 5.59 0 0 1 2.895 4.894v38.798a5.59 5.59 0 0 1-2.895 4.894l-9.072 5c-3.738 2.061-8.322-.634-8.322-4.893V18.1c0-4.259 4.584-6.954 8.322-4.894l9.072 5.001Zm-22.061 4.567c.214.396.326.838.326 1.287v36.845a2.7 2.7 0 0 1-.326 1.287c-1.34 2.48-5.115 1.53-5.115-1.287V24.061c0-2.817 3.775-3.767 5.115-1.287Zm-9.629 7.334c.214.396.326.838.326 1.287v22.239c0 .449-.112.89-.326 1.286-1.34 2.48-5.115 1.531-5.115-1.286V31.395c0-2.817 3.775-3.767 5.115-1.287Z" fill="#211F9A"/></g><defs><filter id="a" x="0" y=".5" width="88" height="88" filterUnits="userSpaceOnUse" color-interpolation-filters="sRGB"><feFlood flood-opacity="0" result="BackgroundImageFix"/><feColorMatrix in="SourceAlpha" values="0 0 0 0 0 0 0 0 0 0 0 0 0 0 0 0 0 0 127 0" result="hardAlpha"/><feOffset dy="2"/><feGaussianBlur stdDeviation="2"/><feComposite in2="hardAlpha" operator="out"/><feColorMatrix values="0 0 0 0 0 0 0 0 0 0 0 0 0 0 0 0 0 0 0.07 0"/><feBlend in2="BackgroundImageFix" result="effect1_dropShadow_14_215"/><feBlend in="SourceGraphic" in2="effect1_dropShadow_14_215" result="shape"/></filter></defs></svg>