<svg width="23" height="16" fill="none" xmlns="http://www.w3.org/2000/svg"><path opacity=".4" d="m17.342 11.584-.87-.497a.497.497 0 0 1-.216-.6 5.75 5.75 0 1 1-4.64-8.211l-.07-.007a.503.503 0 0 1-.476-.494v-1a.5.5 0 0 1 .48-.5c-.16-.01-.318-.025-.48-.025A7.749 7.749 0 0 0 3.32 8a7.749 7.749 0 0 0 7.75 7.75c3.063 0 5.7-1.78 6.96-4.357a.499.499 0 0 1-.688.191z" fill="#50575E"/><path d="M11.546 2.27a.503.503 0 0 1-.476-.495V.773c0-.285.24-.525.524-.505A7.75 7.75 0 0 1 18.82 8a7.687 7.687 0 0 1-.781 3.383.498.498 0 0 1-.696.201l-.87-.497a.502.502 0 0 1-.194-.658A5.7 5.7 0 0 0 16.82 8a5.75 5.75 0 0 0-5.274-5.73z" fill="#32373C"/></svg>