<svg width="88" height="89" fill="none" xmlns="http://www.w3.org/2000/svg"><g filter="url(#a)"><rect x="4" y="2.5" width="80" height="80" rx="4" fill="#fff"/><path d="M36.86 20.414a15.49 15.49 0 0 0-7.947 10.26 23.635 23.635 0 1 0 30.174 0 15.49 15.49 0 0 0-9.454-10.863 3.419 3.419 0 0 0-2.112-2.715 4.626 4.626 0 0 0-8.952-1.61 24.037 24.037 0 0 0-1.71 4.93v-.002Z" fill="#395360"/><path d="M50.336 38.418H38.267v14.08h12.069v-14.08Z" fill="#FBAA6F"/><path d="M46.112 45.66h-.101a1.438 1.438 0 0 1 1.71-2.314 1.91 1.91 0 0 0-1.207.805 1.81 1.81 0 0 0-.405 1.509h.003Zm-4.525 0a1.81 1.81 0 0 0-.405-1.509 1.911 1.911 0 0 0-1.206-.805 1.438 1.438 0 1 1 1.71 2.314h-.099Zm7.34-3.218h.504l-1.106 4.827-2.112 6.437H41.89l-3.222-5.43 1.106-3.22 2.112 2.717c.503.503 2.716.503 3.822-.503a26.856 26.856 0 0 0 3.218-4.829Z" fill="#DC7F3C"/><path d="M29.919 41.435h5.33v-9.052h-4.123a13.075 13.075 0 0 1 7.543-10.057c.737-3.352 1.643-5.599 2.716-6.738l.202-.203h.101a2.313 2.313 0 0 1 3.217 3.318l-.302.302-1.408 1.407a5.13 5.13 0 0 1 3.017-1.507l.704.203a1.307 1.307 0 0 1-.1 2.313 13.075 13.075 0 0 1 10.158 11.063v.905h-3.62v8.046h4.827l1.81 13.478c-4.291 2.682-9.622 4.023-15.992 4.023-6.37 0-11.666-1.341-15.89-4.023l1.81-13.478Zm15.187 9.454c2.615-4.291 3.923-6.84 3.923-7.644 0-2.213-3.219-4.124-4.93-4.124-1.71 0-4.93 1.81-4.93 4.124 0 2.313 1.308 3.42 3.823 7.644a1.206 1.206 0 0 0 1.106.603 1.107 1.107 0 0 0 1.005-.603h.003Z" fill="#BDCFC8"/><path d="M60.192 61.35a20.114 20.114 0 0 1-32.285 0l.805-6.136 1.006.202a2.816 2.816 0 0 0 2.815-2.414v1.207a2.866 2.866 0 0 0 5.733 0v1.608a2.866 2.866 0 1 0 5.733 0 2.866 2.866 0 1 0 5.733 0v-1.609a2.867 2.867 0 0 0 5.733 0v-1.206a2.816 2.816 0 0 0 2.816 2.514l1.005-.202.805 6.135.101-.1Z" fill="#809EB0"/><path d="m28.511 57.226.302-1.91 1.005.202a2.816 2.816 0 0 0 2.816-2.414v1.206a2.866 2.866 0 0 0 5.733 0v1.61a2.866 2.866 0 0 0 5.733 0 2.866 2.866 0 0 0 5.733 0v-1.712a2.866 2.866 0 0 0 5.733 0v-1.206a2.816 2.816 0 0 0 2.716 2.514l1.005-.202.302 1.91a2.815 2.815 0 0 1-4.124-2.111v1.206a2.866 2.866 0 0 1-5.733 0v1.612a2.866 2.866 0 0 1-5.733 0 2.867 2.867 0 0 1-5.733 0V56.22a2.866 2.866 0 0 1-5.733 0v-1.207a2.815 2.815 0 0 1-4.123 2.113l.101.1Z" fill="#738E9E"/><path d="M58.08 34.797c-1.005-2.916-3.017-4.726-4.726-4.524-1.71.203-2.716 3.822-2.314 8.047.403 4.224 1.71 7.644 3.923 7.342 2.213-.302 4.023-3.923 3.721-8.047-.1 1.207-.503 2.314-1.408 2.414-.905.101-1.408-1.206-1.609-2.816-.201-1.609-.1-3.017 1.006-3.117a1.508 1.508 0 0 1 1.408.702Z" fill="#86A196"/><path d="M57.276 34.194c-.604-1.207-1.509-1.911-2.414-1.911-.906 0-1.911 2.615-1.61 5.532.302 2.916 1.207 5.23 2.716 5.028 1.51-.2 1.911-1.508 2.213-3.42a1.206 1.206 0 0 1-.905.605c-1.107.1-1.408-1.207-1.61-2.816-.2-1.61-.1-3.017 1.006-3.118l.604.1Z" fill="#fff"/><path d="M29.718 34.797c1.006-2.916 3.017-4.726 4.727-4.524 1.71.203 2.716 3.822 2.314 8.047-.403 4.224-1.713 7.642-3.923 7.342-2.21-.299-4.023-3.922-3.721-8.046.1 1.207.503 2.313 1.408 2.414.904.1 1.407-1.207 1.609-2.816.2-1.609.1-3.017-1.006-3.117a1.509 1.509 0 0 0-1.408.7Z" fill="#86A196"/><path d="M30.523 34.194c.603-1.207 1.508-1.911 2.414-1.911.905 0 1.91 2.615 1.609 5.532-.302 2.916-1.207 5.23-2.716 5.028-1.51-.2-1.91-1.508-2.112-3.42a1.206 1.206 0 0 0 .905.605c1.106.1 1.408-1.207 1.61-2.816.2-1.61.1-3.017-1.006-3.118l-.704.1Z" fill="#fff"/><path d="M39.172 41.033a4.13 4.13 0 0 1-.1-.704c0-2.515 1.206-5.33 4.929-5.33 3.723 0 4.93 2.815 4.93 5.33.007.338-.027.676-.101 1.005-.805-1.307-2.314-2.212-4.828-2.212-2.514 0-3.925.806-4.83 1.911Z" fill="#F4F8FF"/><path d="M46.817 21.521h-3.22l3.923-1.204a1.408 1.408 0 0 1-.703 1.204Zm-3.62-1.005-1.31 1.005c.826-1.15 1.502-2.4 2.012-3.721a6.53 6.53 0 0 0 .302-2.615 2.414 2.414 0 0 1 1.308 2.112 2.414 2.414 0 0 1-.805 1.508l-1.508 1.71Z" fill="#86A196"/></g><defs><filter id="a" x="0" y=".5" width="88" height="88" filterUnits="userSpaceOnUse" color-interpolation-filters="sRGB"><feFlood flood-opacity="0" result="BackgroundImageFix"/><feColorMatrix in="SourceAlpha" values="0 0 0 0 0 0 0 0 0 0 0 0 0 0 0 0 0 0 127 0" result="hardAlpha"/><feOffset dy="2"/><feGaussianBlur stdDeviation="2"/><feComposite in2="hardAlpha" operator="out"/><feColorMatrix values="0 0 0 0 0 0 0 0 0 0 0 0 0 0 0 0 0 0 0.07 0"/><feBlend in2="BackgroundImageFix" result="effect1_dropShadow_14_191"/><feBlend in="SourceGraphic" in2="effect1_dropShadow_14_191" result="shape"/></filter></defs></svg>