<?xml version="1.0" encoding="utf-8"?>
<!-- Generator: Adobe Illustrator 24.0.1, SVG Export Plug-In . SVG Version: 6.00 Build 0)  -->
<svg version="1.1" id="Layer_1" xmlns="http://www.w3.org/2000/svg" xmlns:xlink="http://www.w3.org/1999/xlink" x="0px" y="0px"
	 viewBox="0 0 266.5 237.2" style="enable-background:new 0 0 266.5 237.2;" xml:space="preserve">
<style type="text/css">
	.st0{fill-opacity:0.2;}
	.st1{fill:#2E323D;}
	.st2{fill:#373B47;}
	.st3{fill:#7F3E13;}
	.st4{fill:#494E5F;}
	.st5{fill:#B85A1B;}
	.st6{fill:#7EAABA;}
	.st7{fill:#D3E8EF;}
	.st8{fill:#FFFFFF;}
	.st9{fill:#E1762F;}
	.st10{fill:#63300F;}
	.st11{fill:#4F2800;}
	.st12{fill:#E5895B;}
	.st13{fill:#FAD395;}
	.st14{fill:#AD6151;}
	.st15{fill:#1B1D23;}
	.st16{fill:#036AAB;}
	.st17{fill:#0399ED;}
</style>
<g id="Mascot_2_">
	<path class="st0" d="M148.5,224.3c50.5,0,91.5,2.8,91.5,6.5c0,3.5-41,6.5-91.5,6.5c-50.5,0-91.5-2.8-91.5-6.5
		C57,227.2,98,224.3,148.5,224.3z"/>
	<g>
		<g>
			<polygon class="st1" points="188.1,219.7 182.5,227 151.3,230.5 148.2,215.6 151.3,187 183.8,187 			"/>
			<polygon class="st2" points="185,224.7 168.7,224.7 168.2,192.8 178.7,192.8 182.6,222.8 			"/>
			<polygon class="st3" points="188.1,219.7 202,230.5 151.3,230.5 			"/>
		</g>
		<g>
			<polygon class="st2" points="114.4,219.7 122.1,226.5 151.3,230.5 151.3,187 118.7,187 			"/>
			<polygon class="st4" points="117.4,224.7 135.2,224.7 135.5,192.8 123.8,192.8 119.9,222.8 			"/>
			<polygon class="st5" points="114.4,219.7 100.5,230.5 151.3,230.5 			"/>
		</g>
	</g>
	<g>
		<g>
			<path class="st6" d="M30.1,128.3c14.8,2.1,27.7-1.4,38.3-10.8l17.7,1l-9.6,28.2c-10.7,17-26.1,20.5-42,19.5L30.1,128.3
				L30.1,128.3z"/>
			<path class="st7" d="M36.7,134.7l2.9,25.8c13.1-0.1,23.7-4.4,31.6-16.4l7-20.2l-7.8-0.4C60.5,131.6,49.2,135.1,36.7,134.7
				L36.7,134.7z"/>
			<path class="st8" d="M36.7,134.7l1.8,15.3c18.1-2.2,32.3-9.6,39.6-26.1l-7.8-0.4C60.4,131.6,49.1,135.1,36.7,134.7z"/>
		</g>
		<g>
			<path class="st6" d="M34.4,106.2c16.6,0,30,13.4,30,30s-13.4,30-30,30c-16.6,0-30-13.4-30-30S17.9,106.2,34.4,106.2z"/>
			<path class="st7" d="M34.4,112c-13.3,0-24,10.8-24,24c0,13.3,10.8,24,24,24c13.3,0,24-10.8,24-24C58.5,122.7,47.7,112,34.4,112z"
				/>
			<path class="st8" d="M34.4,112c-8.1,0-15.4,4-19.7,10.3c0.8,12.6,11.3,22.6,24,22.6c8.1,0,15.4-4,19.7-10.3
				C57.7,122,47.2,112,34.4,112z"/>
			<path class="st6" d="M31.3,110.5c12.4,0,22.4,10,22.4,22.4c0,12.4-10,22.4-22.4,22.4c-12.4,0-22.4-10-22.4-22.4
				C8.9,120.5,18.9,110.5,31.3,110.5z"/>
		</g>
		<g>
			<path class="st3" d="M29.7,104.5c12.4,0,22.5,10.1,22.5,22.5c0,12.4-10.1,22.5-22.5,22.5c-12.4,0-22.5-10.1-22.5-22.5
				C7.3,114.6,17.4,104.5,29.7,104.5z"/>
			<path class="st5" d="M31.9,113.1c-9.9,0-17.9,8-17.9,17.9c0,9.9,8,17.9,17.9,17.9c9.9,0,17.9-8,17.9-17.9
				C49.7,121.1,41.7,113.1,31.9,113.1z"/>
		</g>
		<g>
			<path class="st3" d="M18.5,86.3c0.4-12.6,19.1-13.3,19.6,0c5.5-9.2,22.7-4.1,17.3,10.3c0.3,1.2,0.5,2.3,0.7,3.4
				c9.3,0.5,12.4,15.1-0.4,19.6c-1.1,4-2.7,7.5-5,10.3c-11,9.4-14.5,1.7-20.4-4.7c-5.7,0.2-21.4-3.9-17,10.8
				c-10-6.3-16.5-19.2-11.6-38.3C-5.1,82.5,12.8,76.8,18.5,86.3L18.5,86.3z"/>
			<g>
				<path class="st5" d="M7.7,100c-2.4,9.2-2.5,19.6,4.1,27.1c9.2,10.5,27.9,10,35-3.2c3.8-7.2,3.6-16.1,2-23.9
					C35.1,96.9,21.2,97.4,7.7,100L7.7,100z"/>
				<path class="st9" d="M7.7,100c-2.4,9.2-2.5,19.6,4.1,27.1c4.2,4.8,10.3,7.3,16.5,7.4V97.8C21.4,97.9,14.5,98.7,7.7,100z"/>
				<path class="st3" d="M16.7,107c-1.3,5.1-1.4,11,2.4,15.1c5.1,5.9,15.5,5.6,19.5-1.9c2.2-4,2.1-8.9,1.1-13.3
					C32.1,105.3,24.2,105.6,16.7,107z"/>
			</g>
			<path class="st5" d="M47,86.3c2.8,0,5.2,2.4,5.2,5.2c0,2.8-2.4,5.2-5.2,5.2c-2.8,0-5.2-2.4-5.2-5.2C41.8,88.7,44.2,86.3,47,86.3z
				 M28.2,92.9c2.8,0,5.2-2.4,5.2-5.2c0-2.8-2.4-5.2-5.2-5.2V92.9L28.2,92.9z"/>
			<path class="st9" d="M28.2,92.9V82.6c-2.8,0-5.2,2.4-5.2,5.2C23,90.7,25.3,93,28.2,92.9L28.2,92.9z M10.4,86.9
				c2.8,0,5.2,2.4,5.2,5.2c0,2.8-2.4,5.2-5.2,5.2c-2.8,0-5.2-2.4-5.2-5.2C5.2,89.3,7.6,86.9,10.4,86.9z"/>
			<path class="st5" d="M52.8,105.2c2.8,0,5.2,2.4,5.2,5.2c0,2.8-2.4,5.2-5.2,5.2c-2.8,0-5.2-2.4-5.2-5.2
				C47.6,107.5,49.9,105.2,52.8,105.2z"/>
		</g>
	</g>
	<g>
		<g>
			<path class="st6" d="M231.2,166.6c-1.2-15.6-8.2-26.8-22.2-32.9l2.7-10.8l22.4-6c19.5,5.9,27.2,18.3,30.9,34L231.2,166.6
				L231.2,166.6z"/>
			<path class="st8" d="M235.9,158l22.3-10.4c-3.9-13-10.4-21.5-24.1-24.8l-17.5,4.7l-0.8,2.9C226.6,136.7,233.1,146.1,235.9,158
				L235.9,158z"/>
		</g>
		<g>
			<path class="st6" d="M209.7,169.2c-5-15.3,3.2-31.8,18.5-36.8c15.3-5,31.8,3.2,36.8,18.5c5,15.3-3.2,31.8-18.5,36.8
				C231.1,192.8,214.7,184.5,209.7,169.2z"/>
			<path class="st7" d="M214.5,167.6c4.1,12.7,17.8,19.5,30.4,15.3c12.7-4.1,19.5-17.8,15.3-30.4c-4.1-12.7-17.8-19.5-30.4-15.3
				C217.1,141.3,210.2,154.9,214.5,167.6z"/>
			<path class="st8" d="M261.2,156.8c-0.2-1.5-0.5-2.8-1-4.3c-4.1-12.7-17.8-19.5-30.4-15.3c-3.9,1.3-7.3,3.4-9.8,6.2
				c0.2,1.5,0.5,2.8,1,4.3c4.2,12.7,17.8,19.5,30.4,15.3C255.3,161.7,258.6,159.5,261.2,156.8z"/>
		</g>
		<g>
			<path class="st3" d="M204.2,176.7c-4.8-14.4,3-30,17.5-34.7c14.4-4.8,30,3,34.7,17.5c4.8,14.4-3,30-17.5,34.7
				C224.5,199,208.9,191.1,204.2,176.7z"/>
			<path class="st5" d="M209.8,174.9c-3.7-11.4,2.5-23.5,13.7-27.3c11.4-3.7,23.5,2.5,27.3,13.7c3.7,11.4-2.5,23.5-13.7,27.3
				C225.7,192.4,213.5,186.2,209.8,174.9z"/>
			<path class="st9" d="M208.9,164.7c1.3-7.8,6.7-14.5,14.6-17.2c11.4-3.7,23.5,2.5,27.3,13.7c0.6,1.8,1,3.6,1.1,5.4
				C237.9,175.5,219.7,173.5,208.9,164.7L208.9,164.7z"/>
		</g>
	</g>
	<g>
		<g>
			<path class="st3" d="M109.1,0c11,0,19.8,9.4,19.8,21s-8.8,21-19.8,21c-11,0-19.8-9.4-19.8-21S98.1,0,109.1,0z"/>
			<path class="st5" d="M109.1,5.8c-8.1,0-14,7.3-14,15.2c0,7.8,5.9,15.2,14,15.2c8.1,0,14-7.3,14-15.2
				C123.1,13.1,117.2,5.8,109.1,5.8z"/>
			<path class="st10" d="M109.1,11.6c-5,0-8.2,4.7-8.2,9.4c0,4.6,3.3,9.4,8.2,9.4c5,0,8.2-4.7,8.2-9.4
				C117.3,16.4,114,11.6,109.1,11.6z"/>
			<path class="st3" d="M193.4,0c11,0,19.8,9.4,19.8,21s-8.8,21-19.8,21c-11,0-19.8-9.4-19.8-21S182.4,0,193.4,0z"/>
			<path class="st5" d="M193.4,5.8c-8.1,0-14,7.3-14,15.2c0,7.8,5.9,15.2,14,15.2c8.1,0,14-7.3,14-15.2
				C207.4,13.1,201.5,5.8,193.4,5.8z"/>
			<path class="st11" d="M193.4,11.6c-5,0-8.2,4.7-8.2,9.4c0,4.6,3.3,9.4,8.2,9.4c5,0,8.2-4.7,8.2-9.4
				C201.6,16.4,198.3,11.6,193.4,11.6z"/>
		</g>
		<g>
			<path class="st3" d="M143.2,9.8c3.4,0,6.3,2.8,6.3,6.3c0,3.4-2.8,6.3-6.3,6.3c-3.4,0-6.3-2.8-6.3-6.3
				C137,12.7,139.8,9.8,143.2,9.8z M159.2,9.8c3.4,0,6.3,2.8,6.3,6.3c0,3.4-2.8,6.3-6.3,6.3c-3.4,0-6.3-2.8-6.3-6.3
				C153,12.7,155.8,9.8,159.2,9.8z"/>
			<g>
				<path class="st3" d="M224.5,36v39l0.4,0.1c5.7,2.3,9.3,7.5,9.3,13.6v28.1l-82.9,27.4l-82.9-26.7V88.8c0-6.2,3.6-11.4,9.3-13.6
					l0.4-0.1V35.9C78.1,8.9,224.5,8.9,224.5,36L224.5,36z"/>
				<path class="st5" d="M84.7,37.5v42.1l-3.4,1.4c-3.8,1.5-6.2,5-6.2,9.1v29.6l76.2,24.5l76.2-25.1v-29c0-4.1-2.4-7.6-6.2-9.1
					l-3.4-1.4V37.5C217.9,17.5,84.8,17.5,84.7,37.5L84.7,37.5z"/>
				<path class="st9" d="M84.7,37.5v42.1l-3.4,1.4c-3.8,1.5-6.2,5-6.2,9.1v29.6l76.2,24.5v-16.1c-26.4,0.1-52.8-17.2-45.8-51.4h45.8
					V22.6C118,22.6,84.7,27.6,84.7,37.5L84.7,37.5z"/>
			</g>
		</g>
		<g>
			<g>
				<path class="st12" d="M101.8,67.8h99.1C215,142.2,86.7,141.6,101.8,67.8z"/>
				<path class="st12" d="M106.7,73.6c-1.4,11.5,1.1,22.6,9.6,31.2c9,9,22.7,12.9,35.2,12.9c12.1-0.1,24.9-3.9,33.8-12.5
					c8.9-8.6,11.7-19.8,10.5-31.6H106.7z"/>
				<path class="st13" d="M167.9,108.3c6.7,8.6,26.1,5.1,20.3-13.1L167.9,108.3z"/>
				<path class="st11" d="M161.8,106.4c7.5,9.6,31.8,3.9,26.2-16.9L161.8,106.4z"/>
				<path class="st8" d="M168.3,101.4c1.5-0.4,2.9,0.6,3.4,2.2c0.4,1.6-0.4,3.2-1.9,3.6c-1.5,0.4-2.9-0.6-3.4-2.2
					C166,103.5,166.8,101.8,168.3,101.4z M184.2,90.5c1.5-0.4,3,0.6,3.4,2.2c0.4,1.6-0.4,3.2-1.9,3.6c-1.5,0.4-3-0.6-3.4-2.2
					C181.9,92.5,182.7,90.8,184.2,90.5z"/>
				<path class="st14" d="M178.1,110.1c5.3-1.8,9.9-6,10.7-12.8C184.4,96.7,177,103,178.1,110.1z"/>
				<path class="st13" d="M112,67.8h78.6C201.7,120.9,100.1,120.4,112,67.8z"/>
			</g>
			<g>
				<path class="st11" d="M151.3,98c0.5-3.2,1.7-6.2,3.7-8.8c9.4-1.5,17.6-8.6,15-21.5c-6.2-2.2-12.5-3.2-18.6-3.2l-3.8,12.2
					L151.3,98L151.3,98z"/>
				<path class="st10" d="M151.3,98c-0.5-3.2-1.7-6.2-3.7-8.8c-9.4-1.5-17.6-8.6-15-21.5c6.2-2.2,12.5-3.2,18.6-3.2L151.3,98
					L151.3,98z"/>
				<path class="st14" d="M137.4,69.6c9.3-2.5,18.5-2.5,27.9,0C169.1,79.3,133.1,79.2,137.4,69.6z"/>
			</g>
		</g>
		<g>
			<g>
				<g>
					<path class="st8" d="M136.3,42.6c5.8,0,10.5,4.7,10.5,10.5c0,5.8-4.7,10.5-10.5,10.5c-5.8,0-10.5-4.7-10.5-10.5
						C125.8,47.3,130.5,42.6,136.3,42.6z"/>
					<path class="st15" d="M137.1,46.2c4.3,0,7.8,3.5,7.8,7.8c0,4.3-3.5,7.8-7.8,7.8c-4.3,0-7.8-3.5-7.8-7.8
						C129.2,49.7,132.7,46.2,137.1,46.2z"/>
				</g>
				<g>
					<path class="st8" d="M166.5,42.6c-5.8,0-10.5,4.7-10.5,10.5c0,5.8,4.7,10.5,10.5,10.5c5.8,0,10.5-4.7,10.5-10.5
						C177,47.3,172.3,42.6,166.5,42.6z"/>
					<path class="st15" d="M165.7,46.2c-4.3,0-7.8,3.5-7.8,7.8c0,4.3,3.5,7.8,7.8,7.8c4.3,0,7.8-3.5,7.8-7.8
						C173.6,49.7,170,46.2,165.7,46.2z"/>
				</g>
			</g>
			<g>
				<path class="st10" d="M143.9,39.1c-8.3-1.6-15.5-0.1-21.8,3.8C119.9,30.1,141.6,26.3,143.9,39.1z"/>
				<path class="st11" d="M156.7,32.7c8.3-1.6,15.5-0.1,21.8,3.8C180.7,23.6,159,19.8,156.7,32.7z"/>
			</g>
		</g>
	</g>
	<g>
		<g>
			<path class="st6" d="M234.1,116.9v80.7c0,5.4-4.4,9.8-9.8,9.8H78.1c-5.4,0-9.8-4.4-9.8-9.8v-80.1l82.9,19.8L234.1,116.9z"/>
			<path class="st7" d="M227.5,125.4l-76.2,18.8L75,126v70c0,2.7,2.2,4.9,4.9,4.9h142.7c2.7,0,4.9-2.2,4.9-4.9V125.4z"/>
			<path class="st8" d="M151.3,144.2L75.1,126v70c0,2.7,2.2,4.9,4.9,4.9h71.3V144.2z"/>
		</g>
		<g>
			<g>
				<path class="st16" d="M151.3,164h64.1v4.3v4.3h-64.1V164z M151.3,181.8h64.1v4.3v4.3h-64.1V181.8z"/>
				<path class="st17" d="M87.2,164h64.1v8.6H87.2v-4.3V164z M151.3,190.4v-8.6H87.2v4.3v4.3H151.3z"/>
			</g>
			<polygon class="st8" points="113.2,158.4 121.3,158.4 121.3,197.6 113.2,197.6 			"/>
		</g>
		<g>
			<g>
				<path class="st6" d="M90.7,122.9c20.2,4.8,40.4,9.7,60.5,14.5l-21.6,20.4C115.6,149.6,101.7,140.5,90.7,122.9z"/>
				<path class="st8" d="M107.8,133.8c6.2,6.1,13,11,20.9,15.8l9.1-8.6C127.8,138.6,117.8,136.2,107.8,133.8z"/>
			</g>
			<g>
				<path class="st6" d="M211.8,122.9c-20.2,4.8-40.4,9.7-60.5,14.5l21.6,20.4C186.9,149.6,200.7,140.5,211.8,122.9z"/>
				<path class="st8" d="M194.6,133.8c-6.2,6.1-13,11-20.9,15.8l-9.1-8.6C174.6,138.6,184.6,136.2,194.6,133.8z"/>
			</g>
		</g>
	</g>
</g>
</svg>
