<?xml version="1.0" encoding="utf-8"?>
<!-- Generator: Adobe Illustrator 23.0.6, SVG Export Plug-In . SVG Version: 6.00 Build 0)  -->
<svg version="1.1" id="Layer_1" xmlns="http://www.w3.org/2000/svg" xmlns:xlink="http://www.w3.org/1999/xlink" x="0px" y="0px"
	 viewBox="0 0 196.5 153" style="enable-background:new 0 0 196.5 153;" xml:space="preserve">
<style type="text/css">
	.st0{fill:#7EAABA;}
	.st1{fill:#D3E8EF;}
	.st2{fill:#FFFFFF;}
	.st3{fill:#7F3E13;}
	.st4{fill:#B85A1B;}
	.st5{fill:#E1762F;}
	.st6{fill:#63300F;}
	.st7{fill:#4F2800;}
	.st8{fill:#E5895B;}
	.st9{fill:#FAD395;}
	.st10{fill:#AD6151;}
	.st11{fill:#1B1D23;}
	.st12{fill:#036AAB;}
	.st13{fill:#0399ED;}
</style>
<g id="Mascot" transform="matrix(1,0,0,1,-59.7593,-27.8633)">
	<path class="st0" d="M82,122.5c10.9,1.5,20.4-1,28.2-8l13,0.7l-7.1,20.8c-7.9,12.5-19.2,15.1-31,14.4L82,122.5L82,122.5z"/>
	<path class="st1" d="M86.8,127.2l2.2,19c9.7-0.1,17.5-3.3,23.3-12.1l5.1-14.9l-5.7-0.3C104.4,124.9,96,127.5,86.8,127.2L86.8,127.2
		z"/>
	<path class="st2" d="M86.8,127.2l1.3,11.3c13.4-1.6,23.8-7.1,29.2-19.2l-5.7-0.3C104.3,124.9,95.9,127.5,86.8,127.2"/>
	<path class="st0" d="M85.2,106.1c12.2,0,22.1,9.9,22.1,22.1c0,12.2-9.9,22.1-22.1,22.1S63,140.5,63,128.3
		C63,116.1,72.9,106.1,85.2,106.1"/>
	<path class="st1" d="M85.2,110.5c-9.8,0-17.7,8-17.7,17.7c0,9.8,8,17.7,17.7,17.7c9.8,0,17.7-8,17.7-17.7
		C102.9,118.4,94.9,110.5,85.2,110.5"/>
	<path class="st2" d="M85.2,110.5c-6,0-11.4,3-14.5,7.6c0.6,9.3,8.3,16.6,17.7,16.6c6,0,11.4-3,14.5-7.6
		C102.3,117.9,94.6,110.5,85.2,110.5"/>
	<path class="st0" d="M82.8,109.3c9.1,0,16.5,7.4,16.5,16.5c0,9.1-7.4,16.5-16.5,16.5c-9.1,0-16.5-7.4-16.5-16.5
		C66.3,116.7,73.7,109.3,82.8,109.3"/>
	<path class="st3" d="M81.7,104.9c9.1,0,16.6,7.5,16.6,16.6c0,9.1-7.5,16.6-16.6,16.6s-16.6-7.5-16.6-16.6
		C65.1,112.4,72.6,104.9,81.7,104.9"/>
	<path class="st4" d="M83.3,111.3c-7.3,0-13.2,5.9-13.2,13.2c0,7.3,5.9,13.2,13.2,13.2c7.3,0,13.2-5.9,13.2-13.2
		C96.4,117.1,90.5,111.3,83.3,111.3"/>
	<path class="st3" d="M73.4,91.5c0.3-9.3,14.1-9.8,14.5,0c4.1-6.8,16.7-3,12.7,7.6c0.2,0.9,0.4,1.7,0.5,2.5
		c6.9,0.4,9.1,11.1-0.3,14.5c-0.8,3-2,5.5-3.7,7.6c-8.1,6.9-10.7,1.2-15-3.5c-4.2,0.1-15.8-2.9-12.5,8C62.2,123.6,57.4,114,61,100
		C56,88.7,69.2,84.5,73.4,91.5L73.4,91.5z"/>
	<path class="st4" d="M65.4,101.6c-1.7,6.8-1.8,14.5,3,20c6.8,7.7,20.5,7.4,25.8-2.4c2.8-5.3,2.7-11.9,1.4-17.7
		C85.7,99.3,75.4,99.7,65.4,101.6L65.4,101.6z"/>
	<path class="st5" d="M65.4,101.6c-1.7,6.8-1.8,14.5,3,20c3.1,3.5,7.6,5.4,12.2,5.4v-27C75.5,100.1,70.5,100.6,65.4,101.6"/>
	<path class="st3" d="M72.1,106.8c-0.9,3.8-1,8.1,1.7,11.1c3.8,4.3,11.4,4.1,14.4-1.4c1.6-3,1.5-6.6,0.8-9.8
		C83.4,105.5,77.6,105.7,72.1,106.8"/>
	<path class="st4" d="M80.5,96.4c2.1,0,3.8-1.7,3.8-3.8s-1.7-3.8-3.8-3.8V96.4z M94.4,91.5c2.1,0,3.8,1.7,3.8,3.8
		c0,2.1-1.7,3.8-3.8,3.8c-2.1,0-3.8-1.7-3.8-3.8C90.6,93.3,92.3,91.5,94.4,91.5"/>
	<path class="st5" d="M67.4,92c2.1,0,3.8,1.7,3.8,3.8c0,2.1-1.7,3.8-3.8,3.8c-2.1,0-3.8-1.7-3.8-3.8C63.6,93.7,65.3,92,67.4,92
		 M80.5,96.4v-7.6c-2.1,0-3.8,1.7-3.8,3.8C76.7,94.7,78.4,96.5,80.5,96.4L80.5,96.4z"/>
	<path class="st4" d="M98.7,105.4c2.1,0,3.8,1.7,3.8,3.8s-1.7,3.8-3.8,3.8c-2.1,0-3.8-1.7-3.8-3.8S96.6,105.4,98.7,105.4"/>
	<path class="st0" d="M230.3,150.7c-0.9-11.5-6.1-19.8-16.4-24.2l2-8l16.5-4.4c14.4,4.3,20,13.5,22.8,25.1L230.3,150.7L230.3,150.7z
		"/>
	<path class="st2" d="M233.7,144.4l16.4-7.7c-2.9-9.6-7.7-15.8-17.8-18.3l-12.9,3.5l-0.6,2.2C226.9,128.6,231.7,135.6,233.7,144.4
		L233.7,144.4z"/>
	<path class="st0" d="M214.4,152.7c-3.7-11.3,2.4-23.4,13.7-27.1c11.3-3.7,23.4,2.4,27.1,13.7c3.7,11.3-2.4,23.4-13.7,27.1
		C230.2,170,218.1,164,214.4,152.7"/>
	<path class="st1" d="M217.9,151.4c3,9.3,13.1,14.4,22.4,11.3c9.3-3,14.4-13.1,11.3-22.4c-3-9.3-13.1-14.4-22.4-11.3
		C219.9,132,214.8,142.1,217.9,151.4"/>
	<path class="st2" d="M252.4,143.5c-0.1-1.1-0.4-2.1-0.7-3.2c-3-9.3-13.1-14.4-22.4-11.3c-2.9,0.9-5.4,2.5-7.2,4.6
		c0.1,1.1,0.4,2.1,0.7,3.2c3.1,9.3,13.1,14.4,22.4,11.3C248,147.1,250.5,145.5,252.4,143.5"/>
	<path class="st3" d="M210.3,158.2c-3.5-10.6,2.2-22.1,12.9-25.6c10.6-3.5,22.1,2.2,25.6,12.9c3.5,10.6-2.2,22.1-12.9,25.6
		C225.3,174.6,213.8,168.8,210.3,158.2"/>
	<path class="st4" d="M214.4,156.9c-2.7-8.4,1.8-17.4,10.1-20.1c8.4-2.8,17.4,1.8,20.1,10.1c2.7,8.4-1.8,17.4-10.1,20.1
		C226.2,169.7,217.2,165.2,214.4,156.9"/>
	<path class="st5" d="M213.8,149.3c0.9-5.7,4.9-10.7,10.8-12.7c8.4-2.7,17.4,1.8,20.1,10.1c0.4,1.3,0.7,2.7,0.8,4
		C235.2,157.3,221.8,155.9,213.8,149.3L213.8,149.3z"/>
	<path class="st3" d="M140.2,27.9c8.1,0,14.6,6.9,14.6,15.5s-6.5,15.5-14.6,15.5c-8.1,0-14.6-6.9-14.6-15.5S132.1,27.9,140.2,27.9"
		/>
	<path class="st4" d="M140.2,32.1c-6,0-10.3,5.4-10.3,11.2c0,5.8,4.3,11.2,10.3,11.2c6,0,10.3-5.4,10.3-11.2
		C150.6,37.6,146.2,32.1,140.2,32.1"/>
	<path class="st6" d="M140.2,36.4c-3.7,0-6.1,3.5-6.1,6.9c0,3.4,2.5,6.9,6.1,6.9c3.7,0,6.1-3.5,6.1-6.9
		C146.3,39.9,143.8,36.4,140.2,36.4"/>
	<path class="st3" d="M202.4,27.9c8.1,0,14.6,6.9,14.6,15.5s-6.5,15.5-14.6,15.5c-8.1,0-14.6-6.9-14.6-15.5S194.3,27.9,202.4,27.9"
		/>
	<path class="st4" d="M202.4,32.1c-6,0-10.3,5.4-10.3,11.2c0,5.8,4.3,11.2,10.3,11.2c6,0,10.3-5.4,10.3-11.2
		C212.7,37.6,208.4,32.1,202.4,32.1"/>
	<path class="st7" d="M202.4,36.4c-3.7,0-6.1,3.5-6.1,6.9c0,3.4,2.5,6.9,6.1,6.9c3.7,0,6.1-3.5,6.1-6.9
		C208.4,39.9,206,36.4,202.4,36.4"/>
	<path class="st3" d="M177.2,35.1c2.5,0,4.6,2.1,4.6,4.6c0,2.5-2.1,4.6-4.6,4.6c-2.5,0-4.6-2.1-4.6-4.6
		C172.6,37.2,174.7,35.1,177.2,35.1 M165.4,35.1c2.5,0,4.6,2.1,4.6,4.6c0,2.5-2.1,4.6-4.6,4.6c-2.5,0-4.6-2.1-4.6-4.6
		C160.8,37.2,162.9,35.1,165.4,35.1"/>
	<path class="st3" d="M225.3,54.4v28.8l0.3,0.1c4.2,1.7,6.9,5.5,6.9,10.1V114l-61.1,20.2l-61.1-19.7V93.3c0-4.6,2.7-8.4,6.9-10.1
		l0.3-0.1V54.3C117.4,34.4,225.3,34.4,225.3,54.4L225.3,54.4z"/>
	<path class="st4" d="M122.2,55.5v31l-2.5,1c-2.8,1.1-4.6,3.7-4.6,6.7v21.9l56.2,18.1l56.2-18.5V94.3c0-3-1.7-5.6-4.6-6.7l-2.5-1
		v-31C220.5,40.7,122.3,40.7,122.2,55.5L122.2,55.5z"/>
	<path class="st5" d="M122.2,55.5v31l-2.5,1c-2.8,1.1-4.6,3.7-4.6,6.7v21.9l56.2,18.1v-11.9c-19.5,0.1-38.9-12.7-33.8-37.9h33.8
		V44.5C146.8,44.5,122.2,48.2,122.2,55.5L122.2,55.5z"/>
	<path class="st8" d="M134.9,77.9h73.1C218.3,132.7,123.7,132.3,134.9,77.9"/>
	<path class="st8" d="M138.5,82.1c-1,8.5,0.8,16.6,7.1,23c6.7,6.7,16.7,9.6,26,9.5c8.9-0.1,18.4-2.9,25-9.2
		c6.6-6.4,8.6-14.6,7.7-23.3H138.5z"/>
	<path class="st9" d="M183.6,107.7c4.9,6.4,19.2,3.8,15-9.7L183.6,107.7z"/>
	<path class="st7" d="M179.1,106.4c5.5,7.1,23.4,2.9,19.3-12.4L179.1,106.4z"/>
	<path class="st2" d="M195.6,94.6c1.1-0.3,2.2,0.4,2.5,1.6c0.3,1.2-0.3,2.4-1.4,2.7c-1.1,0.3-2.2-0.4-2.5-1.6
		C193.9,96.1,194.5,94.9,195.6,94.6 M183.8,102.7c1.1-0.3,2.2,0.4,2.5,1.6c0.3,1.2-0.3,2.4-1.4,2.7c-1.1,0.3-2.2-0.4-2.5-1.6
		C182.2,104.2,182.8,103,183.8,102.7"/>
	<path class="st10" d="M191.1,109c3.9-1.3,7.3-4.4,7.9-9.4C195.8,99.2,190.3,103.8,191.1,109"/>
	<path class="st9" d="M142.4,77.9h58C208.5,117,133.6,116.6,142.4,77.9"/>
	<path class="st7" d="M171.3,100.1c0.4-2.4,1.2-4.6,2.7-6.5c6.9-1.1,12.9-6.4,11.1-15.8c-4.6-1.6-9.2-2.4-13.7-2.4l-2.8,9
		L171.3,100.1L171.3,100.1z"/>
	<path class="st6" d="M171.3,100.1c-0.4-2.4-1.2-4.6-2.7-6.5c-6.9-1.1-13-6.4-11.1-15.8c4.6-1.6,9.2-2.4,13.7-2.4L171.3,100.1
		L171.3,100.1z"/>
	<path class="st10" d="M161.1,79.2c6.9-1.8,13.7-1.8,20.5,0C184.5,86.3,157.9,86.2,161.1,79.2"/>
	<path class="st2" d="M160.3,59.3c4.3,0,7.7,3.5,7.7,7.7c0,4.3-3.5,7.7-7.7,7.7c-4.3,0-7.7-3.5-7.7-7.7
		C152.5,62.7,156,59.3,160.3,59.3"/>
	<path class="st11" d="M160.8,61.9c3.2,0,5.8,2.6,5.8,5.8c0,3.2-2.6,5.8-5.8,5.8c-3.2,0-5.8-2.6-5.8-5.8
		C155,64.5,157.7,61.9,160.8,61.9"/>
	<path class="st2" d="M182.5,59.3c-4.3,0-7.7,3.5-7.7,7.7c0,4.3,3.5,7.7,7.7,7.7c4.3,0,7.7-3.5,7.7-7.7
		C190.3,62.7,186.8,59.3,182.5,59.3"/>
	<path class="st11" d="M182,61.9c-3.2,0-5.8,2.6-5.8,5.8c0,3.2,2.6,5.8,5.8,5.8c3.2,0,5.8-2.6,5.8-5.8
		C187.8,64.5,185.1,61.9,182,61.9"/>
	<path class="st6" d="M165.9,56.7c-6.1-1.2-11.4-0.1-16.1,2.8C148.2,50.1,164.2,47.3,165.9,56.7"/>
	<path class="st7" d="M175.3,52c6.1-1.2,11.4-0.1,16.1,2.8C193,45.3,177,42.5,175.3,52"/>
	<path class="st0" d="M232.4,114.1v59.5c0,4-3.3,7.2-7.2,7.2H117.4c-4,0-7.2-3.3-7.2-7.2v-59l61.1,14.6L232.4,114.1z"/>
	<path class="st1" d="M227.5,120.3l-56.2,13.9L115,120.8v51.6c0,2,1.6,3.6,3.6,3.6h105.3c2,0,3.6-1.6,3.6-3.6V120.3z"/>
	<path class="st2" d="M171.3,134.2l-56.2-13.5v51.6c0,2,1.6,3.6,3.6,3.6h52.6V134.2z"/>
	<path class="st12" d="M171.3,161.9h47.2v6.4h-47.2V161.9z M171.3,148.8h47.2v6.4h-47.2V148.8z"/>
	<path class="st13" d="M171.3,168.3v-6.4h-47.2v6.4H171.3z M124.1,148.8h47.2v6.4h-47.2V152V148.8z"/>
	<rect x="143.3" y="144.7" class="st2" width="5.9" height="28.9"/>
	<path class="st0" d="M126.6,118.5c14.9,3.5,29.8,7.2,44.6,10.7l-15.9,15C145,138.2,134.8,131.5,126.6,118.5"/>
	<path class="st2" d="M139.3,126.5c4.6,4.5,9.6,8.1,15.4,11.6l6.7-6.4C154,130.1,146.7,128.3,139.3,126.5"/>
	<path class="st0" d="M216,118.5c-14.9,3.5-29.8,7.2-44.6,10.7l15.9,15C197.6,138.2,207.8,131.5,216,118.5"/>
	<path class="st2" d="M203.3,126.5c-4.6,4.5-9.6,8.1-15.4,11.6l-6.7-6.4C188.5,130.1,195.9,128.3,203.3,126.5"/>
</g>
</svg>
