<svg version="1.1" id="Layer_1" xmlns="http://www.w3.org/2000/svg" x="0" y="0" viewBox="0 0 266.5 237.2" xml:space="preserve"><style>.st2{fill:#373b47}.st3{fill:#7f3e13}.st5{fill:#b85a1b}.st6{fill:#7eaaba}.st7{fill:#d3e8ef}.st8{fill:#fff}.st9{fill:#e1762f}.st10{fill:#63300f}.st11{fill:#4f2800}.st12{fill:#e5895b}.st13{fill:#fad395}.st14{fill:#ad6151}.st15{fill:#1b1d23}</style><g id="Mascot_2_"><path d="M148.5 224.3c50.5 0 91.5 2.8 91.5 6.5 0 3.5-41 6.5-91.5 6.5S57 234.5 57 230.8c0-3.6 41-6.5 91.5-6.5z" fill-opacity=".2"/><path fill="#2e323d" d="M188.1 219.7l-5.6 7.3-31.2 3.5-3.1-14.9 3.1-28.6h32.5z"/><path class="st2" d="M185 224.7h-16.3l-.5-31.9h10.5l3.9 30z"/><path class="st3" d="M188.1 219.7l13.9 10.8h-50.7z"/><path class="st2" d="M114.4 219.7l7.7 6.8 29.2 4V187h-32.6z"/><path fill="#494e5f" d="M117.4 224.7h17.8l.3-31.9h-11.7l-3.9 30z"/><path class="st5" d="M114.4 219.7l-13.9 10.8h50.8z"/><path class="st6" d="M30.1 128.3c14.8 2.1 27.7-1.4 38.3-10.8l17.7 1-9.6 28.2c-10.7 17-26.1 20.5-42 19.5l-4.4-37.9z"/><path class="st7" d="M36.7 134.7l2.9 25.8c13.1-.1 23.7-4.4 31.6-16.4l7-20.2-7.8-.4c-9.9 8.1-21.2 11.6-33.7 11.2z"/><path class="st8" d="M36.7 134.7l1.8 15.3c18.1-2.2 32.3-9.6 39.6-26.1l-7.8-.4c-9.9 8.1-21.2 11.6-33.6 11.2z"/><path class="st6" d="M34.4 106.2c16.6 0 30 13.4 30 30s-13.4 30-30 30-30-13.4-30-30 13.5-30 30-30z"/><path class="st7" d="M34.4 112c-13.3 0-24 10.8-24 24 0 13.3 10.8 24 24 24 13.3 0 24-10.8 24-24 .1-13.3-10.7-24-24-24z"/><path class="st8" d="M34.4 112c-8.1 0-15.4 4-19.7 10.3.8 12.6 11.3 22.6 24 22.6 8.1 0 15.4-4 19.7-10.3-.7-12.6-11.2-22.6-24-22.6z"/><path class="st6" d="M31.3 110.5c12.4 0 22.4 10 22.4 22.4 0 12.4-10 22.4-22.4 22.4-12.4 0-22.4-10-22.4-22.4 0-12.4 10-22.4 22.4-22.4z"/><path class="st3" d="M29.7 104.5c12.4 0 22.5 10.1 22.5 22.5s-10.1 22.5-22.5 22.5S7.2 139.4 7.2 127c.1-12.4 10.2-22.5 22.5-22.5z"/><path class="st5" d="M31.9 113.1c-9.9 0-17.9 8-17.9 17.9 0 9.9 8 17.9 17.9 17.9 9.9 0 17.9-8 17.9-17.9-.1-9.9-8.1-17.9-17.9-17.9z"/><path class="st3" d="M18.5 86.3c.4-12.6 19.1-13.3 19.6 0 5.5-9.2 22.7-4.1 17.3 10.3.3 1.2.5 2.3.7 3.4 9.3.5 12.4 15.1-.4 19.6-1.1 4-2.7 7.5-5 10.3-11 9.4-14.5 1.7-20.4-4.7-5.7.2-21.4-3.9-17 10.8-10-6.3-16.5-19.2-11.6-38.3-6.8-15.2 11.1-20.9 16.8-11.4z"/><path class="st5" d="M7.7 100c-2.4 9.2-2.5 19.6 4.1 27.1 9.2 10.5 27.9 10 35-3.2 3.8-7.2 3.6-16.1 2-23.9-13.7-3.1-27.6-2.6-41.1 0z"/><path class="st9" d="M7.7 100c-2.4 9.2-2.5 19.6 4.1 27.1 4.2 4.8 10.3 7.3 16.5 7.4V97.8c-6.9.1-13.8.9-20.6 2.2z"/><path class="st3" d="M16.7 107c-1.3 5.1-1.4 11 2.4 15.1 5.1 5.9 15.5 5.6 19.5-1.9 2.2-4 2.1-8.9 1.1-13.3-7.6-1.6-15.5-1.3-23 .1z"/><path class="st5" d="M47 86.3c2.8 0 5.2 2.4 5.2 5.2 0 2.8-2.4 5.2-5.2 5.2-2.8 0-5.2-2.4-5.2-5.2 0-2.8 2.4-5.2 5.2-5.2zm-18.8 6.6c2.8 0 5.2-2.4 5.2-5.2 0-2.8-2.4-5.2-5.2-5.2v10.4z"/><path class="st9" d="M28.2 92.9V82.6c-2.8 0-5.2 2.4-5.2 5.2 0 2.9 2.3 5.2 5.2 5.1zm-17.8-6c2.8 0 5.2 2.4 5.2 5.2 0 2.8-2.4 5.2-5.2 5.2-2.8 0-5.2-2.4-5.2-5.2 0-2.8 2.4-5.2 5.2-5.2z"/><path class="st5" d="M52.8 105.2c2.8 0 5.2 2.4 5.2 5.2 0 2.8-2.4 5.2-5.2 5.2-2.8 0-5.2-2.4-5.2-5.2 0-2.9 2.3-5.2 5.2-5.2z"/><path class="st6" d="M231.2 166.6C230 151 223 139.8 209 133.7l2.7-10.8 22.4-6c19.5 5.9 27.2 18.3 30.9 34l-33.8 15.7z"/><path class="st8" d="M235.9 158l22.3-10.4c-3.9-13-10.4-21.5-24.1-24.8l-17.5 4.7-.8 2.9c10.8 6.3 17.3 15.7 20.1 27.6z"/><path class="st6" d="M209.7 169.2c-5-15.3 3.2-31.8 18.5-36.8 15.3-5 31.8 3.2 36.8 18.5 5 15.3-3.2 31.8-18.5 36.8-15.4 5.1-31.8-3.2-36.8-18.5z"/><path class="st7" d="M214.5 167.6c4.1 12.7 17.8 19.5 30.4 15.3 12.7-4.1 19.5-17.8 15.3-30.4-4.1-12.7-17.8-19.5-30.4-15.3-12.7 4.1-19.6 17.7-15.3 30.4z"/><path class="st8" d="M261.2 156.8c-.2-1.5-.5-2.8-1-4.3-4.1-12.7-17.8-19.5-30.4-15.3-3.9 1.3-7.3 3.4-9.8 6.2.2 1.5.5 2.8 1 4.3 4.2 12.7 17.8 19.5 30.4 15.3 3.9-1.3 7.2-3.5 9.8-6.2z"/><path class="st3" d="M204.2 176.7c-4.8-14.4 3-30 17.5-34.7 14.4-4.8 30 3 34.7 17.5 4.8 14.4-3 30-17.5 34.7-14.4 4.8-30-3.1-34.7-17.5z"/><path class="st5" d="M209.8 174.9c-3.7-11.4 2.5-23.5 13.7-27.3 11.4-3.7 23.5 2.5 27.3 13.7 3.7 11.4-2.5 23.5-13.7 27.3-11.4 3.8-23.6-2.4-27.3-13.7z"/><path class="st9" d="M208.9 164.7c1.3-7.8 6.7-14.5 14.6-17.2 11.4-3.7 23.5 2.5 27.3 13.7.6 1.8 1 3.6 1.1 5.4-14 8.9-32.2 6.9-43-1.9z"/><path class="st3" d="M109.1 0c11 0 19.8 9.4 19.8 21s-8.8 21-19.8 21-19.8-9.4-19.8-21 8.8-21 19.8-21z"/><path class="st5" d="M109.1 5.8c-8.1 0-14 7.3-14 15.2 0 7.8 5.9 15.2 14 15.2s14-7.3 14-15.2c0-7.9-5.9-15.2-14-15.2z"/><path class="st10" d="M109.1 11.6c-5 0-8.2 4.7-8.2 9.4 0 4.6 3.3 9.4 8.2 9.4 5 0 8.2-4.7 8.2-9.4 0-4.6-3.3-9.4-8.2-9.4z"/><path class="st3" d="M193.4 0c11 0 19.8 9.4 19.8 21s-8.8 21-19.8 21-19.8-9.4-19.8-21 8.8-21 19.8-21z"/><path class="st5" d="M193.4 5.8c-8.1 0-14 7.3-14 15.2 0 7.8 5.9 15.2 14 15.2s14-7.3 14-15.2c0-7.9-5.9-15.2-14-15.2z"/><path class="st11" d="M193.4 11.6c-5 0-8.2 4.7-8.2 9.4 0 4.6 3.3 9.4 8.2 9.4 5 0 8.2-4.7 8.2-9.4 0-4.6-3.3-9.4-8.2-9.4z"/><path class="st3" d="M143.2 9.8c3.4 0 6.3 2.8 6.3 6.3 0 3.4-2.8 6.3-6.3 6.3-3.4 0-6.3-2.8-6.3-6.3.1-3.4 2.9-6.3 6.3-6.3zm16 0c3.4 0 6.3 2.8 6.3 6.3 0 3.4-2.8 6.3-6.3 6.3-3.4 0-6.3-2.8-6.3-6.3.1-3.4 2.9-6.3 6.3-6.3z"/><path class="st3" d="M224.5 36v39l.4.1c5.7 2.3 9.3 7.5 9.3 13.6v28.1l-82.9 27.4-82.9-26.7V88.8c0-6.2 3.6-11.4 9.3-13.6l.4-.1V35.9c0-27 146.4-27 146.4.1z"/><path class="st5" d="M84.7 37.5v42.1L81.3 81c-3.8 1.5-6.2 5-6.2 9.1v29.6l76.2 24.5 76.2-25.1v-29c0-4.1-2.4-7.6-6.2-9.1l-3.4-1.4V37.5c0-20-133.1-20-133.2 0z"/><path class="st9" d="M84.7 37.5v42.1L81.3 81c-3.8 1.5-6.2 5-6.2 9.1v29.6l76.2 24.5v-16.1c-26.4.1-52.8-17.2-45.8-51.4h45.8V22.6c-33.3 0-66.6 5-66.6 14.9z"/><path class="st12" d="M101.8 67.8h99.1c14.1 74.4-114.2 73.8-99.1 0z"/><path class="st12" d="M106.7 73.6c-1.4 11.5 1.1 22.6 9.6 31.2 9 9 22.7 12.9 35.2 12.9 12.1-.1 24.9-3.9 33.8-12.5 8.9-8.6 11.7-19.8 10.5-31.6h-89.1z"/><path class="st13" d="M167.9 108.3c6.7 8.6 26.1 5.1 20.3-13.1l-20.3 13.1z"/><path class="st11" d="M161.8 106.4c7.5 9.6 31.8 3.9 26.2-16.9l-26.2 16.9z"/><path class="st8" d="M168.3 101.4c1.5-.4 2.9.6 3.4 2.2.4 1.6-.4 3.2-1.9 3.6-1.5.4-2.9-.6-3.4-2.2-.4-1.5.4-3.2 1.9-3.6zm15.9-10.9c1.5-.4 3 .6 3.4 2.2.4 1.6-.4 3.2-1.9 3.6-1.5.4-3-.6-3.4-2.2-.4-1.6.4-3.3 1.9-3.6z"/><path class="st14" d="M178.1 110.1c5.3-1.8 9.9-6 10.7-12.8-4.4-.6-11.8 5.7-10.7 12.8z"/><path class="st13" d="M112 67.8h78.6c11.1 53.1-90.5 52.6-78.6 0z"/><path class="st11" d="M151.3 98c.5-3.2 1.7-6.2 3.7-8.8 9.4-1.5 17.6-8.6 15-21.5-6.2-2.2-12.5-3.2-18.6-3.2l-3.8 12.2 3.7 21.3z"/><path class="st10" d="M151.3 98c-.5-3.2-1.7-6.2-3.7-8.8-9.4-1.5-17.6-8.6-15-21.5 6.2-2.2 12.5-3.2 18.6-3.2l.1 33.5z"/><path class="st14" d="M137.4 69.6c9.3-2.5 18.5-2.5 27.9 0 3.8 9.7-32.2 9.6-27.9 0z"/><path class="st8" d="M136.3 42.6c5.8 0 10.5 4.7 10.5 10.5s-4.7 10.5-10.5 10.5-10.5-4.7-10.5-10.5 4.7-10.5 10.5-10.5z"/><path class="st15" d="M137.1 46.2c4.3 0 7.8 3.5 7.8 7.8s-3.5 7.8-7.8 7.8-7.8-3.5-7.8-7.8c-.1-4.3 3.4-7.8 7.8-7.8z"/><path class="st8" d="M166.5 42.6c-5.8 0-10.5 4.7-10.5 10.5s4.7 10.5 10.5 10.5S177 58.9 177 53.1s-4.7-10.5-10.5-10.5z"/><path class="st15" d="M165.7 46.2c-4.3 0-7.8 3.5-7.8 7.8s3.5 7.8 7.8 7.8 7.8-3.5 7.8-7.8c.1-4.3-3.5-7.8-7.8-7.8z"/><path class="st10" d="M143.9 39.1c-8.3-1.6-15.5-.1-21.8 3.8-2.2-12.8 19.5-16.6 21.8-3.8z"/><path class="st11" d="M156.7 32.7c8.3-1.6 15.5-.1 21.8 3.8 2.2-12.9-19.5-16.7-21.8-3.8z"/><path class="st6" d="M234.1 116.9v80.7c0 5.4-4.4 9.8-9.8 9.8H78.1c-5.4 0-9.8-4.4-9.8-9.8v-80.1l82.9 19.8 82.9-20.4z"/><path class="st7" d="M227.5 125.4l-76.2 18.8L75 126v70c0 2.7 2.2 4.9 4.9 4.9h142.7c2.7 0 4.9-2.2 4.9-4.9v-70.6z"/><path class="st8" d="M151.3 144.2L75.1 126v70c0 2.7 2.2 4.9 4.9 4.9h71.3v-56.7z"/><path d="M151.3 164h64.1v8.6h-64.1V164zm0 17.8h64.1v8.6h-64.1v-8.6z" fill="#036aab"/><path d="M87.2 164h64.1v8.6H87.2V164zm64.1 26.4v-8.6H87.2v8.6h64.1z" fill="#0399ed"/><path class="st8" d="M113.2 158.4h8.1v39.2h-8.1z"/><path class="st6" d="M90.7 122.9c20.2 4.8 40.4 9.7 60.5 14.5l-21.6 20.4c-14-8.2-27.9-17.3-38.9-34.9z"/><path class="st8" d="M107.8 133.8c6.2 6.1 13 11 20.9 15.8l9.1-8.6-30-7.2z"/><path class="st6" d="M211.8 122.9c-20.2 4.8-40.4 9.7-60.5 14.5l21.6 20.4c14-8.2 27.8-17.3 38.9-34.9z"/><path class="st8" d="M194.6 133.8c-6.2 6.1-13 11-20.9 15.8l-9.1-8.6 30-7.2z"/></g></svg>