<svg width="88" height="89" viewBox="0 0 88 89" fill="none" xmlns="http://www.w3.org/2000/svg">
<g filter="url(#filter0_d_14_187)">
<rect x="4" y="2.5" width="80" height="80" rx="4" fill="white"/>
<path d="M20.7719 48.0406C22.3 48.3149 23.8705 48.2384 25.3648 47.8171C26.8591 47.3957 28.2381 46.6404 29.3978 45.6082L33.3841 45.8334L31.222 52.1847C28.8121 56.0113 25.3439 56.8018 21.7658 56.5765L20.7944 48.0598L20.7719 48.0406Z" fill="#7EAABA"/>
<path d="M22.2581 49.4816L22.9114 55.2921C25.862 55.2696 28.2495 54.2982 30.0286 51.5986L31.605 47.0491L29.8484 46.959C27.7184 48.7117 25.0134 49.6107 22.2581 49.4816Z" fill="#D3E8EF"/>
<path d="M22.2581 49.4816L22.6636 52.9272C26.74 52.4316 29.9385 50.7651 31.5824 47.0491L29.8252 46.959C27.7013 48.7062 25.0055 49.6049 22.2581 49.4816Z" fill="white"/>
<path d="M21.7426 43.0631C23.0793 43.0631 24.3861 43.4595 25.4975 44.2022C26.609 44.9448 27.4753 46.0004 27.9868 47.2354C28.4984 48.4704 28.6322 49.8293 28.3714 51.1404C28.1107 52.4515 27.467 53.6557 26.5217 54.601C25.5765 55.5462 24.3722 56.1899 23.0612 56.4507C21.7501 56.7115 20.3911 56.5776 19.1562 56.0661C17.9212 55.5545 16.8656 54.6882 16.1229 53.5768C15.3803 52.4653 14.9839 51.1586 14.9839 49.8218C14.9839 48.0293 15.696 46.3102 16.9635 45.0427C18.231 43.7752 19.9501 43.0631 21.7426 43.0631Z" fill="#7EAABA"/>
<path d="M21.7399 44.3693C20.6709 44.3693 19.6259 44.6863 18.7371 45.2802C17.8483 45.8741 17.1555 46.7182 16.7464 47.7059C16.3373 48.6935 16.2303 49.7802 16.4388 50.8287C16.6474 51.8772 17.1621 52.8402 17.918 53.5961C18.6739 54.352 19.637 54.8668 20.6855 55.0754C21.734 55.2839 22.8207 55.1769 23.8083 54.7678C24.796 54.3587 25.6401 53.6659 26.234 52.7771C26.8279 51.8883 27.1449 50.8432 27.1449 49.7742C27.1449 48.3408 26.5755 46.966 25.5618 45.9523C24.5482 44.9387 23.1734 44.3693 21.7399 44.3693Z" fill="#D3E8EF"/>
<path d="M21.7433 44.3693C20.8707 44.367 20.0107 44.577 19.2373 44.981C18.4639 45.385 17.8003 45.971 17.3037 46.6884C17.3705 47.8109 17.7854 48.8847 18.4907 49.7605C19.1959 50.6364 20.1565 51.2707 21.2389 51.5754C22.3213 51.8801 23.4718 51.84 24.5304 51.4607C25.5889 51.0814 26.503 50.3817 27.1456 49.4589C27.0598 48.0831 26.4537 46.7915 25.4504 45.8463C24.4471 44.9011 23.1217 44.373 21.7433 44.3693Z" fill="white"/>
<path d="M21.0423 44.0321C22.0411 44.032 23.0175 44.3283 23.8477 44.8836C24.678 45.4389 25.3247 46.2282 25.706 47.1514C26.0873 48.0745 26.186 49.0901 25.9895 50.0695C25.7931 51.0488 25.3104 51.9478 24.6026 52.6525C23.8948 53.3572 22.9937 53.836 22.0135 54.0282C21.0334 54.2204 20.0182 54.1173 19.0967 53.732C18.1752 53.3467 17.3888 52.6965 16.8371 51.8639C16.2854 51.0312 15.9933 50.0536 15.9977 49.0548C16.0037 47.7206 16.5379 46.4431 17.4834 45.5018C18.4289 44.5605 19.7087 44.0321 21.0429 44.0321H21.0423Z" fill="#7EAABA"/>
<path d="M20.681 42.68C21.6853 42.6754 22.6682 42.9693 23.5051 43.5243C24.342 44.0794 24.9952 44.8706 25.3816 45.7975C25.7681 46.7244 25.8704 47.7452 25.6757 48.7304C25.481 49.7156 24.9979 50.6207 24.2878 51.3308C23.5778 52.041 22.6727 52.5241 21.6876 52.719C20.7024 52.9139 19.6816 52.8117 18.7546 52.4253C17.8277 52.039 17.0364 51.386 16.4812 50.5491C15.9261 49.7123 15.6321 48.7294 15.6365 47.7252C15.6425 46.389 16.1758 45.1093 17.1205 44.1645C18.0653 43.2196 19.3449 42.6861 20.681 42.68Z" fill="#7F3E13"/>
<path d="M21.1774 44.617C20.3792 44.6125 19.5975 44.8452 18.9316 45.2854C18.2657 45.7257 17.7455 46.3537 17.4369 47.09C17.1283 47.8262 17.0453 48.6375 17.1983 49.421C17.3513 50.2045 17.7334 50.9249 18.2963 51.4909C18.8592 52.057 19.5775 52.4432 20.3601 52.6006C21.1427 52.758 21.9545 52.6794 22.6924 52.375C23.4304 52.0705 24.0613 51.5539 24.5053 50.8904C24.9493 50.227 25.1863 49.4467 25.1863 48.6484C25.1863 47.5831 24.7647 46.5611 24.0135 45.8057C23.2623 45.0503 22.2427 44.623 21.1774 44.617Z" fill="#B85A1B"/>
<path d="M18.1591 38.5813C18.1591 37.9959 18.3917 37.4345 18.8056 37.0206C19.2195 36.6067 19.7809 36.3741 20.3663 36.3741C20.9517 36.3741 21.5131 36.6067 21.927 37.0206C22.341 37.4345 22.5735 37.9959 22.5735 38.5813C23.8119 36.5093 27.6863 37.6576 26.4697 40.9005C26.536 41.1708 26.5824 41.4187 26.6274 41.6665C28.722 41.7791 29.4204 45.067 26.5373 46.0809C26.3255 46.9232 25.942 47.7128 25.4108 48.4C22.9333 50.5204 22.1455 48.783 20.8162 47.3398C19.5328 47.3849 15.9964 46.4612 16.9876 49.7723C14.7361 48.3556 13.2717 45.45 14.3762 41.1483C12.8449 37.7027 16.8763 36.4185 18.1598 38.5356L18.1591 38.5813Z" fill="#7F3E13"/>
<path d="M15.7267 41.6672C15.186 43.7393 15.1635 46.0816 16.6504 47.7706C18.7224 50.1355 22.934 50.0235 24.5356 47.0497C25.3917 45.4283 25.3466 43.4239 24.9861 41.6672C21.923 41.0518 18.7665 41.0672 15.7095 41.7123L15.7267 41.6672Z" fill="#B85A1B"/>
<path d="M15.7267 41.6673C15.186 43.7393 15.1635 46.0816 16.6504 47.7707C17.1191 48.2925 17.6919 48.7104 18.3319 48.9974C18.9719 49.2844 19.6649 49.4342 20.3664 49.4371V41.1716C18.809 41.2053 17.2573 41.3711 15.728 41.6673H15.7267Z" fill="#E1762F"/>
<path d="M17.7543 43.2435C17.4614 44.3918 17.4389 45.7211 18.295 46.6441C18.5788 46.9693 18.936 47.222 19.3371 47.3813C19.7382 47.5407 20.1715 47.6019 20.6011 47.5601C21.0306 47.5182 21.4439 47.3744 21.8067 47.1406C22.1695 46.9069 22.4712 46.5899 22.6868 46.216C23.1284 45.2801 23.2164 44.2161 22.9347 43.2203C21.2246 42.8727 19.4612 42.8806 17.7543 43.2435Z" fill="#7F3E13"/>
<path d="M24.5779 38.5814C24.8095 38.5814 25.0358 38.6501 25.2284 38.7788C25.4209 38.9074 25.571 39.0903 25.6596 39.3042C25.7482 39.5182 25.7714 39.7536 25.7262 39.9807C25.6811 40.2078 25.5695 40.4165 25.4058 40.5802C25.2421 40.744 25.0334 40.8555 24.8063 40.9006C24.5792 40.9458 24.3438 40.9226 24.1298 40.834C23.9159 40.7454 23.733 40.5953 23.6044 40.4028C23.4757 40.2102 23.407 39.9839 23.407 39.7523C23.407 39.4418 23.5304 39.144 23.75 38.9244C23.9695 38.7048 24.2674 38.5814 24.5779 38.5814ZM20.3438 40.0677C20.6544 40.0677 20.9523 39.9443 21.1719 39.7247C21.3915 39.505 21.5149 39.2071 21.5149 38.8965C21.5149 38.5859 21.3915 38.288 21.1719 38.0684C20.9523 37.8487 20.6544 37.7253 20.3438 37.7253V40.0445V40.0677Z" fill="#B85A1B"/>
<path d="M20.3444 40.0671V37.7479C20.0338 37.7479 19.7359 37.8713 19.5163 38.091C19.2966 38.3106 19.1732 38.6085 19.1732 38.9191C19.1732 39.2297 19.2966 39.5276 19.5163 39.7473C19.7359 39.9669 20.0338 40.0903 20.3444 40.0903V40.0671ZM16.3356 38.716C16.5671 38.7161 16.7934 38.7849 16.9858 38.9136C17.1783 39.0423 17.3282 39.2252 17.4168 39.4391C17.5053 39.653 17.5284 39.8884 17.4832 40.1154C17.438 40.3425 17.3265 40.5511 17.1628 40.7148C16.9991 40.8785 16.7906 40.99 16.5635 41.0352C16.3364 41.0804 16.1011 41.0572 15.8872 40.9687C15.6732 40.8802 15.4904 40.7302 15.3617 40.5378C15.233 40.3453 15.1642 40.119 15.1641 39.8875C15.1641 39.577 15.2874 39.2792 15.507 39.0596C15.7266 38.84 16.0244 38.7167 16.3349 38.7167L16.3356 38.716Z" fill="#E1762F"/>
<path d="M25.884 42.838C26.1156 42.838 26.3419 42.9067 26.5345 43.0353C26.727 43.164 26.8771 43.3469 26.9657 43.5608C27.0543 43.7747 27.0775 44.0102 27.0323 44.2373C26.9872 44.4644 26.8756 44.673 26.7119 44.8368C26.5482 45.0005 26.3395 45.112 26.1124 45.1572C25.8853 45.2024 25.6499 45.1792 25.4359 45.0906C25.222 45.002 25.0391 44.8519 24.9105 44.6594C24.7818 44.4668 24.7131 44.2404 24.7131 44.0089C24.7131 43.8551 24.7434 43.7029 24.8023 43.5608C24.8611 43.4187 24.9473 43.2897 25.0561 43.1809C25.1648 43.0722 25.2939 42.986 25.4359 42.9271C25.578 42.8683 25.7302 42.838 25.884 42.838Z" fill="#B85A1B"/>
<path d="M66.0645 56.6671C65.7941 53.1553 64.2177 50.6313 61.0643 49.2571L61.6726 46.8246L66.7178 45.4735C71.1096 46.8021 72.8437 49.595 73.6753 53.1307L66.0857 56.6665L66.0645 56.6671Z" fill="#7EAABA"/>
<path d="M67.1227 54.7296L72.1453 52.3872C71.2667 49.4591 69.803 47.5448 66.7178 46.802L62.7765 47.8622L62.5963 48.5155C63.7546 49.1556 64.7583 50.0419 65.5368 51.112C66.3153 52.1822 66.8497 53.41 67.1021 54.709L67.1227 54.7296Z" fill="white"/>
<path d="M61.2221 57.2523C60.7471 55.8126 60.7859 54.2527 61.3319 52.8384C61.8779 51.4241 62.8974 50.2428 64.2166 49.4958C65.5359 48.7488 67.0733 48.4822 68.567 48.7415C70.0607 49.0008 71.4183 49.7699 72.4086 50.9178C73.3989 52.0658 73.9606 53.5215 73.998 55.0371C74.0354 56.5527 73.5463 58.0344 72.6139 59.2298C71.6814 60.4252 70.3634 61.2604 68.8843 61.5931C67.4052 61.9258 65.8565 61.7354 64.502 61.0544C63.7322 60.6674 63.0463 60.1323 62.4835 59.4799C61.9207 58.8275 61.492 58.0705 61.2221 57.2523Z" fill="#7EAABA"/>
<path d="M62.3035 56.8913C62.6989 58.0771 63.493 59.0892 64.5507 59.7554C65.6084 60.4216 66.8643 60.7006 68.1045 60.545C69.3448 60.3894 70.4928 59.8088 71.3532 58.9019C72.2135 57.9951 72.733 56.8182 72.8232 55.5715C72.9134 54.3247 72.5687 53.0853 71.8478 52.064C71.127 51.0428 70.0745 50.303 68.8695 49.9705C67.6646 49.638 66.3816 49.7334 65.2391 50.2404C64.0965 50.7474 63.165 51.6347 62.603 52.7512C61.9586 54.0371 61.8509 55.5261 62.3035 56.8913Z" fill="#D3E8EF"/>
<path d="M72.8185 54.4601C72.7751 54.1306 72.6997 53.8062 72.5932 53.4914C72.3716 52.8144 72.0184 52.1879 71.5538 51.648C71.0892 51.108 70.5225 50.6652 69.8862 50.345C69.2499 50.0248 68.5566 49.8335 67.8462 49.7821C67.1357 49.7308 66.4221 49.8204 65.7464 50.0457C64.9045 50.3154 64.1455 50.796 63.5419 51.4419C63.5854 51.7713 63.6609 52.0958 63.7672 52.4106C63.9888 53.0876 64.342 53.7141 64.8066 54.254C65.2712 54.794 65.8379 55.2368 66.4742 55.557C67.1105 55.8772 67.8038 56.0685 68.5142 56.1199C69.2247 56.1712 69.9383 56.0816 70.614 55.8563C71.456 55.5866 72.2149 55.106 72.8185 54.4601Z" fill="white"/>
<path d="M59.983 58.9421C59.5405 57.5856 59.5817 56.1176 60.0997 54.788C60.6177 53.4585 61.5805 52.3495 62.8241 51.6499C64.0678 50.9503 65.5154 50.7033 66.9207 50.951C68.3259 51.1986 69.6019 51.9256 70.5315 53.0082C71.4611 54.0907 71.9867 55.462 72.0191 56.8885C72.0514 58.3151 71.5883 59.7087 70.7087 60.8323C69.8292 61.9558 68.5874 62.7399 67.1948 63.0509C65.8022 63.3619 64.3448 63.1807 63.0708 62.5382C61.6054 61.7963 60.4947 60.5028 59.983 58.9421Z" fill="#7F3E13"/>
<path d="M61.244 58.5369C60.9435 57.6222 60.9212 56.6388 61.1799 55.7114C61.4386 54.784 61.9667 53.9542 62.6973 53.3271C63.4279 52.7 64.3282 52.3038 65.2841 52.1886C66.24 52.0735 67.2086 52.2446 68.0673 52.6802C68.9259 53.1159 69.6359 53.7966 70.1075 54.636C70.579 55.4755 70.7909 56.436 70.7162 57.3959C70.6415 58.3559 70.2837 59.2721 69.688 60.0285C69.0923 60.785 68.2856 61.3476 67.3699 61.6453C66.1453 62.0433 64.8129 61.9397 63.6646 61.357C62.5163 60.7744 61.6458 59.7603 61.244 58.5369Z" fill="#B85A1B"/>
<path d="M61.0419 56.2403C61.2072 55.1575 61.7331 54.1622 62.5345 53.4155C63.3358 52.6688 64.3657 52.2143 65.4575 52.1257C66.5492 52.0371 67.639 52.3195 68.5503 52.9272C69.4615 53.5349 70.1411 54.4324 70.4789 55.4743C70.6143 55.8671 70.6976 56.2759 70.7267 56.6902C69.2564 57.6069 67.5412 58.0527 65.8106 57.9682C64.0801 57.8836 62.4165 57.2727 61.0425 56.2171L61.0419 56.2403Z" fill="#E1762F"/>
<path d="M38.5645 19.1447C39.1682 19.1616 39.7625 19.2975 40.3135 19.5446C40.8645 19.7916 41.3614 20.1449 41.7756 20.5843C42.1899 21.0236 42.5134 21.5404 42.7276 22.105C42.9418 22.6696 43.0425 23.2709 43.024 23.8744C43.0603 24.4824 42.9719 25.0915 42.7642 25.6641C42.5565 26.2367 42.2339 26.7608 41.8163 27.2041C41.3986 27.6475 40.8947 28.0007 40.3355 28.2422C39.7763 28.4837 39.1736 28.6082 38.5645 28.6082C37.9554 28.6082 37.3528 28.4837 36.7936 28.2422C36.2344 28.0007 35.7305 27.6475 35.3128 27.2041C34.8951 26.7608 34.5726 26.2367 34.3649 25.6641C34.1572 25.0915 34.0688 24.4824 34.1051 23.8744C34.0866 23.2709 34.1873 22.6696 34.4015 22.105C34.6157 21.5404 34.9392 21.0236 35.3535 20.5843C35.7677 20.1449 36.2646 19.7916 36.8156 19.5446C37.3666 19.2975 37.9609 19.1616 38.5645 19.1447V19.1447Z" fill="#7F3E13"/>
<path d="M38.5645 20.4501C37.6944 20.4915 36.8757 20.874 36.2855 21.5147C35.6953 22.1553 35.3812 23.0026 35.4111 23.8732C35.3747 24.3093 35.4293 24.7482 35.5712 25.1622C35.7132 25.5762 35.9395 25.9563 36.2358 26.2783C36.5321 26.6004 36.8921 26.8575 37.2928 27.0333C37.6936 27.2092 38.1265 27.3 38.5642 27.3C39.0018 27.3 39.4347 27.2092 39.8355 27.0333C40.2362 26.8575 40.5962 26.6004 40.8925 26.2783C41.1888 25.9563 41.4151 25.5762 41.5571 25.1622C41.6991 24.7482 41.7536 24.3093 41.7172 23.8732C41.7471 23.0027 41.4331 22.1555 40.8431 21.5149C40.253 20.8742 39.4344 20.4917 38.5645 20.4501Z" fill="#B85A1B"/>
<path d="M38.5646 21.7572C38.039 21.7946 37.5495 22.0387 37.2034 22.4361C36.8573 22.8335 36.6828 23.3518 36.7179 23.8776C36.6818 24.1413 36.7026 24.4096 36.7789 24.6646C36.8551 24.9196 36.9851 25.1552 37.1601 25.3558C37.335 25.5563 37.5509 25.7171 37.7932 25.8272C38.0354 25.9374 38.2985 25.9944 38.5646 25.9944C38.8308 25.9944 39.0938 25.9374 39.3361 25.8272C39.5784 25.7171 39.7942 25.5563 39.9692 25.3558C40.1441 25.1552 40.2741 24.9196 40.3504 24.6646C40.4267 24.4096 40.4474 24.1413 40.4113 23.8776C40.4423 23.3528 40.2662 22.8368 39.921 22.4403C39.5757 22.0439 39.0887 21.7986 38.5646 21.7572Z" fill="#63300F"/>
<path d="M57.5506 19.1443C58.1542 19.1613 58.7486 19.2972 59.2996 19.5442C59.8506 19.7912 60.3475 20.1445 60.7617 20.5839C61.176 21.0233 61.4995 21.54 61.7137 22.1046C61.9279 22.6692 62.0286 23.2705 62.0101 23.8741C62.0464 24.4821 61.958 25.0911 61.7503 25.6637C61.5426 26.2363 61.22 26.7604 60.8024 27.2038C60.3847 27.6471 59.8808 28.0004 59.3216 28.2418C58.7624 28.4833 58.1597 28.6079 57.5506 28.6079C56.9415 28.6079 56.3389 28.4833 55.7797 28.2418C55.2205 28.0004 54.7165 27.6471 54.2989 27.2038C53.8812 26.7604 53.5586 26.2363 53.3509 25.6637C53.1433 25.0911 53.0549 24.4821 53.0912 23.8741C53.0727 23.2705 53.1734 22.6692 53.3876 22.1046C53.6018 21.54 53.9253 21.0233 54.3395 20.5839C54.7538 20.1445 55.2507 19.7912 55.8017 19.5442C56.3527 19.2972 56.947 19.1613 57.5506 19.1443V19.1443Z" fill="#7F3E13"/>
<path d="M57.5513 20.4501C56.6812 20.4915 55.8625 20.874 55.2723 21.5147C54.6821 22.1553 54.368 23.0026 54.3979 23.8732C54.3615 24.3093 54.4161 24.7482 54.558 25.1622C54.7 25.5762 54.9263 25.9563 55.2226 26.2783C55.519 26.6004 55.8789 26.8575 56.2797 27.0333C56.6804 27.2092 57.1133 27.3 57.551 27.3C57.9886 27.3 58.4215 27.2092 58.8223 27.0333C59.2231 26.8575 59.583 26.6004 59.8793 26.2783C60.1757 25.9563 60.402 25.5762 60.5439 25.1622C60.6859 24.7482 60.7404 24.3093 60.7041 23.8732C60.734 23.0027 60.4199 22.1555 59.8299 21.5149C59.2398 20.8742 58.4213 20.4917 57.5513 20.4501Z" fill="#B85A1B"/>
<path d="M57.5506 21.7572C57.0249 21.7946 56.5355 22.0387 56.1894 22.4361C55.8433 22.8335 55.6687 23.3518 55.7039 23.8776C55.6678 24.1413 55.6886 24.4096 55.7648 24.6646C55.8411 24.9196 55.9711 25.1552 56.146 25.3558C56.321 25.5563 56.5369 25.7171 56.7791 25.8272C57.0214 25.9374 57.2845 25.9944 57.5506 25.9944C57.8167 25.9944 58.0798 25.9374 58.3221 25.8272C58.5643 25.7171 58.7802 25.5563 58.9552 25.3558C59.1301 25.1552 59.2601 24.9196 59.3364 24.6646C59.4126 24.4096 59.4334 24.1413 59.3973 23.8776C59.4283 23.3528 59.2522 22.8368 58.9069 22.4403C58.5616 22.0439 58.0747 21.7986 57.5506 21.7572Z" fill="#4F2800"/>
<path d="M46.2444 21.3518C46.5249 21.3518 46.7992 21.435 47.0325 21.5909C47.2658 21.7468 47.4477 21.9683 47.555 22.2276C47.6624 22.4868 47.6905 22.772 47.6358 23.0472C47.581 23.3224 47.4459 23.5752 47.2475 23.7736C47.0491 23.972 46.7963 24.1071 46.5211 24.1619C46.2459 24.2166 45.9607 24.1885 45.7015 24.0812C45.4422 23.9738 45.2207 23.7919 45.0648 23.5586C44.9089 23.3253 44.8257 23.0511 44.8257 22.7705C44.8257 22.3942 44.9752 22.0334 45.2412 21.7673C45.5073 21.5013 45.8681 21.3518 46.2444 21.3518ZM49.8477 21.3518C50.1283 21.3518 50.4025 21.435 50.6358 21.5909C50.8691 21.7468 51.051 21.9683 51.1584 22.2276C51.2657 22.4868 51.2938 22.772 51.2391 23.0472C51.1843 23.3224 51.0492 23.5752 50.8508 23.7736C50.6524 23.972 50.3996 24.1071 50.1244 24.1619C49.8492 24.2166 49.564 24.1885 49.3048 24.0812C49.0455 23.9738 48.824 23.7919 48.6681 23.5586C48.5122 23.3253 48.429 23.0511 48.429 22.7705C48.429 22.5841 48.4657 22.3996 48.5371 22.2274C48.6084 22.0553 48.713 21.8988 48.8448 21.7671C48.9766 21.6353 49.133 21.5309 49.3052 21.4596C49.4774 21.3884 49.662 21.3517 49.8483 21.3518H49.8477Z" fill="#7F3E13"/>
<path d="M64.5544 27.2525V36.0362H64.6446C65.2633 36.2738 65.7951 36.6942 66.1693 37.2414C66.5434 37.7885 66.7421 38.4366 66.7391 39.0994V45.4301L48.0685 51.5984L29.3979 45.6077V39.1438C29.3948 38.481 29.5936 37.8329 29.9677 37.2857C30.3418 36.7386 30.8736 36.3182 31.4924 36.0806H31.5845V27.23C31.5845 21.1491 64.5571 21.1491 64.5571 27.23L64.5544 27.2525Z" fill="#7F3E13"/>
<path d="M33.0689 27.5913V37.0733L32.3029 37.3888C31.8883 37.5459 31.5322 37.8267 31.2825 38.193C31.0329 38.5594 30.902 38.9936 30.9074 39.4369V46.1035L48.0692 51.6211L65.2311 45.9683V39.4369C65.2332 38.9941 65.1009 38.5611 64.8516 38.1951C64.6023 37.8292 64.2478 37.5475 63.8349 37.3874L63.0689 37.072V27.5913C63.0689 23.0855 33.092 23.0855 33.092 27.5913H33.0689Z" fill="#B85A1B"/>
<path d="M33.0687 27.5895V37.0716L32.3028 37.387C31.888 37.5442 31.5317 37.8252 31.2821 38.1918C31.0324 38.5585 30.9016 38.993 30.9073 39.4365V46.1004L48.0691 51.6207V47.9949C42.1234 48.0174 36.1778 44.1212 37.7541 36.4182H48.0691V24.234C40.5696 24.234 33.0694 25.3605 33.0694 27.6134L33.0687 27.5895Z" fill="#E1762F"/>
<path d="M36.9205 34.4147H59.2401C62.4154 51.171 33.5192 51.0358 36.9205 34.4147Z" fill="#E5895B"/>
<path d="M38.0244 35.7201C37.8128 36.9783 37.8982 38.2686 38.2735 39.4881C38.6489 40.7075 39.304 41.8224 40.1865 42.7439C42.1008 44.6807 45.2993 45.6494 48.1141 45.6494C50.92 45.73 53.6481 44.721 55.7262 42.834C56.6505 41.9166 57.3462 40.7948 57.757 39.559C58.1678 38.3233 58.2823 37.0082 58.0911 35.7201H38.0244Z" fill="#E5895B"/>
<path d="M51.8075 43.5363C53.3163 45.4732 57.6856 44.6847 56.3796 40.5857L51.8075 43.5363Z" fill="#FAD395"/>
<path d="M50.4332 43.1078C52.1222 45.27 57.5955 43.9865 56.3338 39.3018L50.4332 43.1078Z" fill="#4F2800"/>
<path d="M51.8977 41.9814C52.0259 41.9361 52.1648 41.9305 52.2962 41.9654C52.4276 42.0003 52.5454 42.074 52.6343 42.1769C52.7232 42.2798 52.7789 42.4071 52.7943 42.5422C52.8097 42.6773 52.784 42.8139 52.7205 42.9341C52.657 43.0544 52.5588 43.1527 52.4386 43.2162C52.3184 43.2798 52.1818 43.3056 52.0467 43.2902C51.9116 43.2749 51.7842 43.2192 51.6813 43.1304C51.5783 43.0416 51.5046 42.9238 51.4696 42.7924C51.4202 42.6281 51.4373 42.4509 51.5174 42.2992C51.5975 42.1474 51.7341 42.0333 51.8977 41.9814ZM55.4758 39.5039C55.4728 39.25 55.3695 39.0077 55.1885 38.8298C55.0074 38.6519 54.7633 38.5528 54.5094 38.5543C54.2556 38.5558 54.0127 38.6577 53.8337 38.8377C53.6547 39.0177 53.5543 39.2613 53.5543 39.5151C53.5543 39.769 53.6547 40.0125 53.8337 40.1925C54.0127 40.3725 54.2556 40.4744 54.5094 40.4759C54.7633 40.4774 55.0074 40.3784 55.1885 40.2005C55.3695 40.0225 55.4728 39.7802 55.4758 39.5264V39.5039Z" fill="white"/>
<path d="M54.1042 43.9409C54.7438 43.7487 55.313 43.3731 55.7414 42.8607C56.1697 42.3482 56.4384 41.7214 56.5141 41.0578C55.5235 40.9233 53.8563 42.342 54.1042 43.9409Z" fill="#AD6151"/>
<path d="M39.2178 34.4143H56.9203C59.4197 46.3733 36.5375 46.2606 39.2178 34.4143Z" fill="#FAD395"/>
<path d="M48.0689 41.2159C48.1696 40.494 48.4569 39.8109 48.9025 39.234C51.0229 38.8961 52.8663 37.2972 52.2819 34.3916C50.9358 33.9181 49.5197 33.6743 48.0928 33.6707L47.2354 36.4192L48.0915 41.2616L48.0689 41.2159Z" fill="#4F2800"/>
<path d="M48.069 41.2161C47.9683 40.4942 47.681 39.8111 47.2354 39.2342C45.115 38.8963 43.2716 37.2974 43.8561 34.3918C45.2026 33.9183 46.6192 33.6748 48.0465 33.6715V41.2161H48.069Z" fill="#63300F"/>
<path d="M44.9381 34.8196C46.9961 34.266 49.1638 34.266 51.2218 34.8196C52.0779 37.0043 43.9681 36.9818 44.9381 34.8196Z" fill="#AD6151"/>
<path d="M44.6904 28.7393C45.1582 28.7393 45.6154 28.878 46.0043 29.1378C46.3932 29.3977 46.6963 29.767 46.8753 30.1991C47.0543 30.6313 47.1011 31.1068 47.0099 31.5655C46.9186 32.0243 46.6934 32.4456 46.3627 32.7764C46.0319 33.1071 45.6106 33.3323 45.1518 33.4236C44.6931 33.5148 44.2176 33.468 43.7854 33.289C43.3533 33.11 42.984 32.8069 42.7241 32.418C42.4643 32.0291 42.3256 31.5719 42.3256 31.1041C42.3256 30.4769 42.5747 29.8754 43.0182 29.4319C43.4617 28.9884 44.0632 28.7393 44.6904 28.7393Z" fill="white"/>
<path d="M44.8707 29.5504C45.2182 29.5504 45.5578 29.6534 45.8467 29.8465C46.1355 30.0395 46.3607 30.3138 46.4936 30.6348C46.6266 30.9558 46.6614 31.309 46.5936 31.6497C46.5258 31.9905 46.3585 32.3035 46.1128 32.5491C45.8672 32.7948 45.5542 32.9621 45.2134 33.0299C44.8727 33.0976 44.5195 33.0629 44.1985 32.9299C43.8775 32.797 43.6032 32.5718 43.4102 32.2829C43.2172 31.9941 43.1141 31.6544 43.1141 31.307C43.12 30.843 43.3069 30.3995 43.6351 30.0714C43.9633 29.7432 44.4067 29.5563 44.8707 29.5504Z" fill="#1B1D23"/>
<path d="M51.4923 28.7396C51.0246 28.7396 50.5674 28.8783 50.1785 29.1382C49.7896 29.398 49.4865 29.7674 49.3075 30.1995C49.1285 30.6316 49.0816 31.1071 49.1729 31.5659C49.2641 32.0246 49.4894 32.446 49.8201 32.7767C50.1508 33.1075 50.5722 33.3327 51.031 33.424C51.4897 33.5152 51.9652 33.4684 52.3973 33.2894C52.8295 33.1104 53.1988 32.8073 53.4587 32.4184C53.7185 32.0295 53.8572 31.5722 53.8572 31.1045C53.8572 30.4773 53.6081 29.8758 53.1646 29.4323C52.7211 28.9888 52.1195 28.7396 51.4923 28.7396Z" fill="white"/>
<path d="M51.3121 29.5508C50.9647 29.5508 50.6251 29.6538 50.3362 29.8468C50.0474 30.0398 49.8222 30.3142 49.6893 30.6352C49.5563 30.9561 49.5215 31.3093 49.5893 31.6501C49.6571 31.9908 49.8244 32.3038 50.07 32.5495C50.3157 32.7952 50.6287 32.9625 50.9694 33.0302C51.3102 33.098 51.6634 33.0632 51.9844 32.9303C52.3053 32.7973 52.5797 32.5722 52.7727 32.2833C52.9657 31.9944 53.0687 31.6548 53.0687 31.3074C53.0629 30.8433 52.876 30.3999 52.5478 30.0717C52.2196 29.7436 51.7762 29.5566 51.3121 29.5508Z" fill="#1B1D23"/>
<path d="M46.4014 27.951C44.7166 27.586 42.9559 27.8929 41.494 28.8065C40.9964 25.9234 45.8839 25.068 46.4014 27.951Z" fill="#63300F"/>
<path d="M49.2852 26.5094C50.9708 26.1439 52.7327 26.4511 54.1952 27.3655C54.6901 24.46 49.8033 23.6039 49.2852 26.5094Z" fill="#4F2800"/>
<path d="M66.7171 45.4735V63.6485C66.7171 64.2339 66.4846 64.7953 66.0707 65.2092C65.6567 65.6231 65.0953 65.8557 64.5099 65.8557H31.5824C30.997 65.8557 30.4356 65.6231 30.0217 65.2092C29.6078 64.7953 29.3752 64.2339 29.3752 63.6485V45.6312L48.0459 50.0906L66.7171 45.4735Z" fill="#7EAABA"/>
<path d="M65.2301 47.3877L48.0683 51.6218L30.8839 47.5202V63.2905C30.8839 63.4354 30.9124 63.5789 30.9679 63.7128C31.0233 63.8466 31.1046 63.9682 31.2071 64.0707C31.3095 64.1731 31.4311 64.2544 31.565 64.3098C31.6988 64.3653 31.8423 64.3938 31.9872 64.3938H64.1242C64.4168 64.3938 64.6974 64.2776 64.9043 64.0707C65.1112 63.8638 65.2275 63.5832 65.2275 63.2905L65.2301 47.3877Z" fill="#D3E8EF"/>
<path d="M48.0685 51.6219L30.9066 47.5229V63.2886C30.9066 63.5812 31.0229 63.8619 31.2298 64.0688C31.4367 64.2757 31.7173 64.3919 32.0099 64.3919H48.0685V51.6219Z" fill="white"/>
<path d="M48.0682 56.0819H62.5047V58.0187H48.0682V56.0819ZM48.0682 60.0908H62.5047V62.0276H48.0682V60.0908Z" fill="#036AAB"/>
<path d="M33.6318 56.0818H48.0683V58.0186H33.6318V56.0818ZM48.0683 62.0275V60.0906H33.6318V62.0275H48.0683Z" fill="#0399ED"/>
<path d="M39.4874 54.8206H41.3116V63.6493H39.4874V54.8206Z" fill="white"/>
<path d="M34.4204 46.8247L48.0465 50.0901L43.1816 54.6847C40.0282 52.838 36.8979 50.7885 34.4204 46.8247Z" fill="#7EAABA"/>
<path d="M38.2716 49.28C39.6972 50.6437 41.276 51.8377 42.9762 52.8383L45.0303 50.9015L38.2716 49.28Z" fill="white"/>
<path d="M61.6952 46.825L48.0691 50.0903L52.934 54.6849C56.0868 52.8382 59.1951 50.7887 61.6952 46.825Z" fill="#7EAABA"/>
<path d="M57.8235 49.2802C56.3979 50.6438 54.8192 51.8378 53.1189 52.8384L51.0695 50.9016L57.8235 49.2802Z" fill="white"/>
</g>
<defs>
<filter id="filter0_d_14_187" x="0" y="0.5" width="88" height="88" filterUnits="userSpaceOnUse" color-interpolation-filters="sRGB">
<feFlood flood-opacity="0" result="BackgroundImageFix"/>
<feColorMatrix in="SourceAlpha" type="matrix" values="0 0 0 0 0 0 0 0 0 0 0 0 0 0 0 0 0 0 127 0" result="hardAlpha"/>
<feOffset dy="2"/>
<feGaussianBlur stdDeviation="2"/>
<feComposite in2="hardAlpha" operator="out"/>
<feColorMatrix type="matrix" values="0 0 0 0 0 0 0 0 0 0 0 0 0 0 0 0 0 0 0.07 0"/>
<feBlend mode="normal" in2="BackgroundImageFix" result="effect1_dropShadow_14_187"/>
<feBlend mode="normal" in="SourceGraphic" in2="effect1_dropShadow_14_187" result="shape"/>
</filter>
</defs>
</svg>
