<svg width="88" height="89" fill="none" xmlns="http://www.w3.org/2000/svg"><g filter="url(#a)"><rect x="4" y="2.5" width="80" height="80" rx="4" fill="#fff"/><path d="M20.772 48.04a10.251 10.251 0 0 0 8.626-2.432l3.986.225-2.162 6.352c-2.41 3.826-5.878 4.617-9.456 4.392l-.972-8.517-.022-.02Z" fill="#7EAABA"/><path d="m22.258 49.482.653 5.81c2.951-.022 5.338-.994 7.118-3.693l1.576-4.55-1.757-.09a11.126 11.126 0 0 1-7.59 2.523Z" fill="#D3E8EF"/><path d="m22.258 49.482.406 3.445c4.076-.495 7.274-2.162 8.918-5.878l-1.757-.09a11.126 11.126 0 0 1-7.567 2.523Z" fill="#fff"/><path d="M21.743 43.063a6.758 6.758 0 1 1 0 13.517 6.758 6.758 0 0 1 0-13.517Z" fill="#7EAABA"/><path d="M21.74 44.37a5.405 5.405 0 1 0 0 10.809 5.405 5.405 0 0 0 0-10.81Z" fill="#D3E8EF"/><path d="M21.743 44.37a5.382 5.382 0 0 0-4.44 2.318 5.41 5.41 0 0 0 9.843 2.77 5.427 5.427 0 0 0-5.403-5.089Z" fill="#fff"/><path d="M21.042 44.032a5.045 5.045 0 1 1 0 10.09 5.045 5.045 0 0 1 0-10.09Z" fill="#7EAABA"/><path d="M20.681 42.68a5.068 5.068 0 1 1 .046 10.135 5.068 5.068 0 0 1-.046-10.135Z" fill="#7F3E13"/><path d="M21.177 44.617a4.032 4.032 0 1 0-.045 8.063 4.032 4.032 0 0 0 .045-8.063Z" fill="#B85A1B"/><path d="M18.16 38.581a2.207 2.207 0 0 1 4.413 0c1.239-2.072 5.113-.923 3.897 2.32.066.27.112.518.157.765 2.095.113 2.793 3.401-.09 4.415a6.307 6.307 0 0 1-1.126 2.319c-2.478 2.12-3.266.383-4.595-1.06-1.283.045-4.82-.879-3.828 2.432-2.252-1.416-3.716-4.322-2.612-8.624-1.531-3.445 2.5-4.73 3.784-2.612v.045Z" fill="#7F3E13"/><path d="M15.727 41.667c-.541 2.072-.563 4.415.923 6.104 2.072 2.364 6.284 2.252 7.886-.721.856-1.622.81-3.626.45-5.383-3.063-.615-6.22-.6-9.277.045l.018-.045Z" fill="#B85A1B"/><path d="M15.727 41.667c-.541 2.072-.563 4.415.923 6.104a5.023 5.023 0 0 0 3.716 1.666v-8.265c-1.557.033-3.109.2-4.638.495h-.001Z" fill="#E1762F"/><path d="M17.754 43.243c-.293 1.149-.315 2.478.541 3.401a2.711 2.711 0 0 0 4.392-.428c.441-.936.53-2 .248-2.996a12.724 12.724 0 0 0-5.18.023Z" fill="#7F3E13"/><path d="M24.578 38.581a1.17 1.17 0 1 1 0 2.342 1.17 1.17 0 0 1 0-2.342Zm-4.234 1.487a1.171 1.171 0 0 0 0-2.343v2.343Z" fill="#B85A1B"/><path d="M20.344 40.067v-2.32a1.17 1.17 0 1 0 0 2.343v-.023Zm-4.008-1.351a1.17 1.17 0 1 1 0 2.34 1.17 1.17 0 0 1-.001-2.34Z" fill="#E1762F"/><path d="M25.884 42.838a1.171 1.171 0 1 1 0 2.343 1.171 1.171 0 0 1 0-2.343Z" fill="#B85A1B"/><path d="M66.064 56.667c-.27-3.512-1.846-6.036-5-7.41l.609-2.432 5.045-1.352c4.392 1.33 6.126 4.122 6.957 7.658l-7.59 3.535-.02.001Z" fill="#7EAABA"/><path d="m67.123 54.73 5.022-2.343c-.878-2.928-2.342-4.842-5.427-5.585l-3.942 1.06-.18.654a9.048 9.048 0 0 1 4.506 6.193l.02.02Z" fill="#fff"/><path d="M61.222 57.252a6.554 6.554 0 1 1 12.448-4.107 6.554 6.554 0 0 1-12.448 4.107Z" fill="#7EAABA"/><path d="M62.303 56.891a5.406 5.406 0 1 0 10.257-3.42 5.406 5.406 0 0 0-10.257 3.42Z" fill="#D3E8EF"/><path d="M72.819 54.46a5.101 5.101 0 0 0-.226-.969 5.403 5.403 0 0 0-6.847-3.445c-.841.27-1.6.75-2.204 1.396.043.33.119.654.225.969a5.403 5.403 0 0 0 6.847 3.445 5.18 5.18 0 0 0 2.204-1.396Z" fill="#fff"/><path d="M59.983 58.942a6.171 6.171 0 1 1 11.734-3.828 6.171 6.171 0 0 1-11.734 3.828Z" fill="#7F3E13"/><path d="M61.244 58.537a4.865 4.865 0 1 1 9.244-3.037 4.865 4.865 0 0 1-9.244 3.037Z" fill="#B85A1B"/><path d="M61.042 56.24a4.864 4.864 0 0 1 9.437-.766c.135.393.219.802.248 1.216a8.508 8.508 0 0 1-9.685-.473v.023Z" fill="#E1762F"/><path d="M38.565 19.145a4.588 4.588 0 0 1 4.459 4.73 4.468 4.468 0 1 1-8.919 0 4.592 4.592 0 0 1 4.46-4.73Z" fill="#7F3E13"/><path d="M38.565 20.45a3.313 3.313 0 0 0-3.154 3.423 3.164 3.164 0 1 0 6.306 0 3.313 3.313 0 0 0-3.152-3.423Z" fill="#B85A1B"/><path d="M38.565 21.757a1.993 1.993 0 0 0-1.847 2.12 1.863 1.863 0 1 0 3.693 0 2.009 2.009 0 0 0-1.846-2.12Z" fill="#63300F"/><path d="M57.55 19.144a4.592 4.592 0 0 1 4.46 4.73 4.467 4.467 0 1 1-8.919 0 4.592 4.592 0 0 1 4.46-4.73Z" fill="#7F3E13"/><path d="M57.551 20.45a3.313 3.313 0 0 0-3.153 3.423 3.164 3.164 0 1 0 6.306 0 3.313 3.313 0 0 0-3.153-3.423Z" fill="#B85A1B"/><path d="M57.55 21.757a1.992 1.992 0 0 0-1.846 2.12 1.865 1.865 0 1 0 3.693 0 2.008 2.008 0 0 0-1.846-2.12Z" fill="#4F2800"/><path d="M46.244 21.352a1.419 1.419 0 1 1 0 2.837 1.419 1.419 0 0 1 0-2.837Zm3.604 0a1.418 1.418 0 1 1-.001 2.836 1.418 1.418 0 0 1 .001-2.836Z" fill="#7F3E13"/><path d="M64.554 27.253v8.783h.09A3.266 3.266 0 0 1 66.74 39.1v6.331l-18.67 6.168-18.671-5.99v-6.464a3.265 3.265 0 0 1 2.094-3.063h.092V27.23c0-6.08 32.973-6.08 32.973 0l-.003.023Z" fill="#7F3E13"/><path d="M33.069 27.591v9.482l-.766.316a2.162 2.162 0 0 0-1.396 2.048v6.666l17.162 5.518 17.162-5.653v-6.531a2.187 2.187 0 0 0-1.396-2.05l-.766-.315v-9.48c0-4.506-29.977-4.506-29.977 0h-.023Z" fill="#B85A1B"/><path d="M33.069 27.59v9.482l-.766.315a2.162 2.162 0 0 0-1.396 2.05V46.1l17.162 5.52v-3.625c-5.946.022-11.891-3.874-10.315-11.577H48.07V24.234c-7.5 0-15 1.126-15 3.38v-.024Z" fill="#E1762F"/><path d="M36.92 34.415h22.32c3.175 16.756-25.72 16.62-22.32 0Z" fill="#E5895B"/><path d="M38.024 35.72a8.192 8.192 0 0 0 2.163 7.024c1.914 1.937 5.112 2.905 7.927 2.905a10.86 10.86 0 0 0 7.612-2.815 8.306 8.306 0 0 0 2.365-7.114H38.024Z" fill="#E5895B"/><path d="M51.807 43.536c1.51 1.937 5.879 1.149 4.573-2.95l-4.573 2.95Z" fill="#FAD395"/><path d="M50.433 43.108c1.69 2.162 7.163.879 5.9-3.806l-5.9 3.806Z" fill="#4F2800"/><path d="M51.898 41.981a.676.676 0 1 1-.428.811.653.653 0 0 1 .428-.81Zm3.578-2.477a.961.961 0 1 0 0 .022v-.022Z" fill="#fff"/><path d="M54.104 43.94a3.415 3.415 0 0 0 2.41-2.882c-.99-.135-2.658 1.284-2.41 2.883Z" fill="#AD6151"/><path d="M39.218 34.414H56.92c2.5 11.96-20.383 11.847-17.702 0Z" fill="#FAD395"/><path d="M48.069 41.216c.1-.722.388-1.405.834-1.982 2.12-.338 3.963-1.937 3.379-4.842a12.721 12.721 0 0 0-4.19-.721l-.857 2.748.857 4.843-.023-.046Z" fill="#4F2800"/><path d="M48.069 41.216a4.189 4.189 0 0 0-.834-1.982c-2.12-.338-3.963-1.937-3.379-4.842a12.72 12.72 0 0 1 4.19-.72v7.544h.023Z" fill="#63300F"/><path d="M44.938 34.82a12.095 12.095 0 0 1 6.284 0c.856 2.184-7.254 2.162-6.284 0Z" fill="#AD6151"/><path d="M44.69 28.74a2.365 2.365 0 1 1 0 4.73 2.365 2.365 0 0 1 0-4.73Z" fill="#fff"/><path d="M44.87 29.55a1.756 1.756 0 1 1-1.756 1.757 1.78 1.78 0 0 1 1.757-1.757Z" fill="#1B1D23"/><path d="M51.492 28.74a2.364 2.364 0 1 0 0 4.729 2.364 2.364 0 0 0 0-4.73Z" fill="#fff"/><path d="M51.312 29.55a1.757 1.757 0 1 0 1.757 1.757 1.779 1.779 0 0 0-1.757-1.756Z" fill="#1B1D23"/><path d="M46.401 27.951a6.616 6.616 0 0 0-4.907.855c-.498-2.883 4.39-3.738 4.907-.855Z" fill="#63300F"/><path d="M49.285 26.51a6.617 6.617 0 0 1 4.91.855c.495-2.905-4.392-3.761-4.91-.856Z" fill="#4F2800"/><path d="M66.717 45.474v18.175a2.207 2.207 0 0 1-2.207 2.207H31.582a2.207 2.207 0 0 1-2.207-2.207V45.63l18.67 4.46 18.672-4.617Z" fill="#7EAABA"/><path d="m65.23 47.388-17.162 4.234-17.184-4.102v15.77a1.103 1.103 0 0 0 1.103 1.104h32.137a1.103 1.103 0 0 0 1.104-1.104l.002-15.902Z" fill="#D3E8EF"/><path d="m48.069 51.622-17.162-4.1V63.29a1.104 1.104 0 0 0 1.103 1.103h16.059v-12.77Z" fill="#fff"/><path d="M48.068 56.082h14.437v1.937H48.068v-1.937Zm0 4.009h14.437v1.937H48.068V60.09Z" fill="#036AAB"/><path d="M33.632 56.082h14.436v1.937H33.632v-1.937Zm14.436 5.946V60.09H33.632v1.937h14.436Z" fill="#0399ED"/><path d="M39.487 54.82h1.825v8.83h-1.825v-8.83Z" fill="#fff"/><path d="m34.42 46.825 13.627 3.265-4.865 4.595c-3.154-1.847-6.284-3.897-8.762-7.86Z" fill="#7EAABA"/><path d="M38.272 49.28a25.562 25.562 0 0 0 4.704 3.558l2.054-1.937-6.758-1.621Z" fill="#fff"/><path d="M61.695 46.825 48.07 50.09l4.865 4.595c3.153-1.847 6.261-3.896 8.761-7.86Z" fill="#7EAABA"/><path d="M57.824 49.28a25.563 25.563 0 0 1-4.705 3.558l-2.05-1.936 6.755-1.622Z" fill="#fff"/></g><defs><filter id="a" x="0" y=".5" width="88" height="88" filterUnits="userSpaceOnUse" color-interpolation-filters="sRGB"><feFlood flood-opacity="0" result="BackgroundImageFix"/><feColorMatrix in="SourceAlpha" values="0 0 0 0 0 0 0 0 0 0 0 0 0 0 0 0 0 0 127 0" result="hardAlpha"/><feOffset dy="2"/><feGaussianBlur stdDeviation="2"/><feComposite in2="hardAlpha" operator="out"/><feColorMatrix values="0 0 0 0 0 0 0 0 0 0 0 0 0 0 0 0 0 0 0.07 0"/><feBlend in2="BackgroundImageFix" result="effect1_dropShadow_14_187"/><feBlend in="SourceGraphic" in2="effect1_dropShadow_14_187" result="shape"/></filter></defs></svg>